<?xml version="1.0" encoding="utf-8"?>
<!-- Generator: Adobe Illustrator 19.2.1, SVG Export Plug-In . SVG Version: 6.00 Build 0)  -->
<svg version="1.1" id="Layer_1" xmlns="http://www.w3.org/2000/svg" xmlns:xlink="http://www.w3.org/1999/xlink" x="0px" y="0px"
	 viewBox="0 0 148.75 325.75" style="enable-background:new 0 0 148.75 325.75;" xml:space="preserve">
<style type="text/css">
	.st0{fill:#F0EAD6;}
	.st1{fill:#EE4036;}
	.st2{fill:#BE1E2D;}
	.st3{clip-path:url(#XMLID_2_);fill:#404041;}
	.st4{clip-path:url(#XMLID_2_);fill:none;stroke:#FFFFFF;stroke-width:2;stroke-miterlimit:10;}
	.st5{clip-path:url(#XMLID_3_);fill:#F0EAD6;}
	.st6{clip-path:url(#XMLID_3_);fill:#EE4036;}
	.st7{clip-path:url(#XMLID_3_);fill:none;}
	.st8{clip-path:url(#XMLID_3_);fill:none;stroke:#404041;stroke-miterlimit:10;}
	.st9{clip-path:url(#XMLID_3_);fill:#404041;}
	.st10{clip-path:url(#XMLID_3_);fill:#FFF9CD;}
	.st11{clip-path:url(#XMLID_4_);fill:#F0EAD6;}
	.st12{clip-path:url(#XMLID_4_);}
	.st13{clip-path:url(#XMLID_4_);fill:#D8D03E;}
	.st14{clip-path:url(#XMLID_4_);fill:none;}
	.st15{clip-path:url(#XMLID_4_);fill:#404041;}
	.st16{clip-path:url(#XMLID_4_);fill:#EE4036;}
	.st17{clip-path:url(#XMLID_4_);fill:#FFF9CD;}
	.st18{clip-path:url(#XMLID_5_);fill:#FFF9CD;}
	.st19{clip-path:url(#XMLID_5_);fill:none;stroke:#EE4036;stroke-width:1.5;stroke-miterlimit:10;}
	.st20{clip-path:url(#XMLID_4_);fill:none;stroke:#EE4036;stroke-width:1.5;stroke-miterlimit:10;}
	.st21{fill:#FFF9CD;}
	.st22{clip-path:url(#XMLID_6_);fill:#404041;}
	.st23{clip-path:url(#XMLID_6_);fill:#FFF9CD;}
	.st24{clip-path:url(#XMLID_6_);fill:#EE4036;}
	.st25{clip-path:url(#XMLID_6_);fill:#D8D03E;}
	.st26{fill:#404041;}
	.st27{fill:#FFFFFF;}
	.st28{fill:none;}
	.st29{fill:#00ADEE;}
	.st30{fill:#26A9E0;}
	.st31{clip-path:url(#XMLID_7_);fill:#1B75BB;}
	.st32{clip-path:url(#XMLID_7_);fill:#FFFFFF;}
	.st33{clip-path:url(#XMLID_8_);fill:#E5E2B6;}
	.st34{clip-path:url(#XMLID_8_);fill:#EE4036;}
	.st35{clip-path:url(#XMLID_8_);fill:#FFFFFF;}
	.st36{fill:#D7182A;}
	.st37{clip-path:url(#XMLID_9_);fill:#FFF9CD;}
	.st38{clip-path:url(#XMLID_9_);fill:#EE4036;}
	.st39{clip-path:url(#XMLID_9_);fill:#58595B;}
	.st40{clip-path:url(#XMLID_10_);fill:#FFF9CD;}
	.st41{clip-path:url(#XMLID_10_);fill:#EE4036;}
	.st42{clip-path:url(#XMLID_10_);fill:#58595B;}
	.st43{fill:none;stroke:#58595B;stroke-width:1.5;stroke-miterlimit:10;}
	.st44{fill:#58595B;}
	.st45{fill:#A6A8AB;}
	.st46{clip-path:url(#XMLID_11_);fill:#EE4036;}
	.st47{clip-path:url(#XMLID_11_);}
	.st48{clip-path:url(#XMLID_11_);fill:none;stroke:#404041;stroke-miterlimit:10;}
	.st49{clip-path:url(#XMLID_12_);fill:#EE4036;}
	.st50{clip-path:url(#XMLID_12_);}
	.st51{clip-path:url(#XMLID_12_);fill:none;stroke:#404041;stroke-miterlimit:10;}
	.st52{clip-path:url(#XMLID_13_);fill:#D8D03E;}
	.st53{clip-path:url(#XMLID_13_);fill:#00ADEE;}
	.st54{clip-path:url(#XMLID_13_);fill:#EE4036;}
	.st55{clip-path:url(#XMLID_14_);fill:#D8D03E;}
	.st56{clip-path:url(#XMLID_14_);fill:#EE4036;}
	.st57{clip-path:url(#XMLID_14_);fill:#00ADEE;}
	.st58{fill:none;stroke:#404041;stroke-width:1.5;stroke-miterlimit:10;}
	.st59{fill:#EF4136;}
	.st60{opacity:0.51;fill:#BE1E2D;}
	.st61{clip-path:url(#XMLID_15_);fill:#404041;}
	.st62{clip-path:url(#XMLID_15_);fill:#FFF9CD;}
	.st63{fill:#D8D03E;}
	.st64{opacity:0.28;fill:#FFF9CD;}
	.st65{fill:#1B75BB;}
	.st66{clip-path:url(#XMLID_16_);fill:#D8D03E;}
	.st67{clip-path:url(#XMLID_16_);fill:#404041;}
	.st68{opacity:0.62;fill:#D8D03E;}
</style>
<g>
	<path id="XMLID_1632_" class="st0" d="M63.39,59.49l0.44-11.98c0-0.03-0.01-0.06-0.02-0.08c-0.14-0.22-0.94-1.51-1.5-3.3
		c-0.21-0.69-0.27-1.43-0.2-2.15l0-0.04c0.14-1.56-0.3-3.11-1.22-4.38C60.43,36.93,60,36.09,60,35.17c0,0-3.17-13.74,5.68-17.58
		c0,0,6.96-3.04,14.27,0.48c0,0,6.34,1.67,6.34,5.55c0,0-0.35,7.89,0,9.33c0,0.01,0,0.01,0,0.01c0.05,0.09,0.91,1.74-0.87,4.38
		c-0.01,0.01-0.02,0.03-0.02,0.05c-0.08,0.48-1.41,8.2-1.67,9.14l-0.49,1.98c-0.52,2.09-0.82,4.29-0.35,6.39
		c0.28,1.27-1.1,2.75-1.19,4.04l0,0l1.08,5.21c0,0.09-0.09,0.15-0.18,0.14l-18.69-4.02L63.39,59.49z"/>
	<path id="XMLID_1631_" class="st1" d="M85.11,60.95c1.27,0.17,2.29-0.04,2.68-1.58c0.78-3.04-0.02-8.67-0.02-8.67
		c0-2.17,1.75-9.67,1.75-9.67l0,0c0.76-0.11,1.35-0.73,1.41-1.5c0.23-3.23-0.24-10.75-0.24-10.75c0.06-1.99,0.09-4.96-0.73-6.58
		c-0.54-1.08-1.98-1.01-2.12-1.69c-0.03-0.13,2.14,0.16,2.05,0.09c-0.94-0.69-0.91-0.99-1.32-1.36c-0.24-0.21,1.24,0.04,0.94-0.08
		l-1.82-0.93l0.97-0.91l-1.31-0.62l0.85-0.92l-1.14-0.83l1.05-0.92l-1.55-0.2l0.72-0.67l-1.34-0.74l0.12-0.97l-0.86,0.33l0.83-1.58
		l-1.42,0.08l0.5-1L83.76,9.7l0.67-1.04l-1.71,0.08l-0.08-0.92l-1.33,0.75l0.29-1l-1.23,0.59l-0.14-1.17l-0.99,0.98l-0.42-0.93
		L78,7.62l-0.56-1l-0.7,0.49l-0.47-0.69l-0.58,0.43l-0.83-0.55l-0.54,0.65l-0.6-0.48l-0.42,0.98l-0.85-0.48l-0.67,1.08l-0.75-0.67
		l-0.88,0.96l-1.21-0.58l-0.96,0.79l-1.33-0.12l-0.46,1.92l-0.83,0.12l-0.75,1.42h-0.83l-0.25,1l-1.11,0.25v0.83l-1.06,0.12
		l-0.05,0.7l-1.04,0.38l0.26,0.65l-0.92,0.57l0.5,0.62l-1.75,0.96h0.79l0.54,0.42l-1.83,0.96l0.71,0.54l-1.04,1.25h1.33
		c-2.83,2.42-2.17,7.33-1.58,7.83c0.42,0.36,0.75,2.25,0.9,3.29c0.07,0.45,0.05,0.89,0,1.34c-0.42,3.6,0.92,7.68,1.69,9.66
		c0.28,0.71,0.41,1.47,0.38,2.24c-0.07,1.93,0.12,5.8,0.12,5.8c0.44,2.25,0.23,3.08,0,6.91c-0.01,0.14-0.01,0.28-0.02,0.42
		c0,0.03,0,0.07,0,0.1c-0.01,1.78,1.89,2.92,3.49,2.16l0.19-0.09c1.5-0.67,0.88-1.63,0.71-2.63l-0.15-0.87l-0.08-9.76
		c0-0.29-0.08-0.57-0.24-0.82c-0.01-0.01-0.01-0.02-0.02-0.03c-0.93-1.53-1.43-3.3-1.3-5.08c0.07-0.92-0.1-2.23-1.04-3.8
		c-0.51-0.85-1.62-2.66-1.12-3.58c0.73-1.35,0.82-3.45,0.75-5.38c-0.04-1.12,0.27-2.2,0.83-3.18c0.3-0.53,0.57-1.07,0.82-1.63
		c0.77-1.74,3.12-5.84,8.65-5.4c0.38,0.03,2.98,0.41,3.36,0.4c1.96-0.07,6.05,2.1,8.71,5.77c0.61,0.84,0.32,2.33,0.75,3.08
		c1.23,2.17,0.01,4.17,0.13,8.11c0.04,1.12-0.02,2.25-0.24,3.35c-0.64,3.2-1.9,9.59-1.97,10.1l-0.25,7.69l-0.03,1.22
		c-0.02,1.01,0.62,1.91,1.58,2.22L85.11,60.95z"/>
	<path id="XMLID_1630_" class="st0" d="M85.3,32.2c0.51,0,1,0.11,1.46,0.33c1.03,0.5,2.68,1.62,2.68,3.67c0,0,0.46,1.72-1.08,4.14
		c0,0-1.17,3.03-2.42,3.11c0,0-1.43,0.42-2.17,0L84.4,32.2H85.3z"/>
	<path id="XMLID_1629_" class="st0" d="M63,43.01c0,0-1.48,0.75-1.92-1.13c0,0-0.92-1.97-1.8-3.44c-0.37-0.61-0.64-1.28-0.78-1.98
		c-0.06-0.3-0.08-0.6-0.04-0.82c0.26-1.3,1.48-2.07,2.35-1.44L63,39.64V43.01z"/>
	<path id="XMLID_1628_" class="st0" d="M139.19,159.24c0,0-1.75-6.2-4.37-8.93c-0.97-1.01-2.05-3.56-3.01-6.32l0.08,0.04
		c0,0-4.57-14.72-11.32-38.89c-1.07-3.82-2.97-5.68-3.44-9.24c-0.62-4.69-1.12-6.31-1.72-9.43c-0.28-1.47-2.49-6.9-3.83-9.34
		c-1.08-1.97-1.83-4.83-2.91-6.45c-0.34-0.52-0.74-1-1.09-1.48c-1.55-2.1-3.66-3.7-6.1-4.63c-2.19-0.84-5.48-1.3-8.87-1.62
		c-8.82-0.84-9.12-4.05-10.06-8.93c-0.12-0.62-0.18-1.18-0.17-1.66l-17.75,0.17c0,0,1.36,7.75-7.54,10.76
		c-0.69,0.23-1.41,0.39-2.14,0.44c-4.23,0.28-15.21-0.75-18.89,12.3c-0.34,1.22-0.75,2.42-1.34,3.54
		c-1.16,2.21-3.13,7.17-3.09,15.39c0.02,4.68-1.9,6.45-3.1,11.8c-1.91,8.55-2.01,5.75-4.29,13.55c-0.89,3.05-7.72,27.4-10.33,30.01
		c-2.33,2.33-2.57,4.35-4.37,8.93c-0.47,1.18-0.83,0.96-0.78,9.22c0.02,3.18,2.73,5.75,5.57,7.2c2.39,1.22,5.21,2.4,6.75,2.15
		c0,0-7.37-9.5-6.43-15c0,0,4.18-2.25,4.63,4.62c0.05,0.76,1.46,0.25,1.55-0.51c0.24-1.91,0.57-4.92,0.62-7.25
		c0.05-2.13-1.47-6.12-0.54-8.03c2.35-4.79,8.16-13.79,10-16.67c2.43-5.96,5.8-11.49,9.98-16.39l1.86-2.17
		c1.12-1.31,1.91-2.89,2.23-4.59c0.24-1.28,0.38-2.6,0.59-3.66l1.81-9.22l3.2,24.86l46.83,0.36l2.21-26.97l0.52,1.26
		c1.8,4.35,2.27,4.63,3.09,9.27c0,0,1.77,8.21,2.99,9.43c2.15,2.17,3.98,4.62,5.43,7.28c0.08,0.14,0.16,0.29,0.24,0.43
		c1.05,1.87,2.31,3.62,3.75,5.21c0.89,0.99,2.08,2.4,3.28,4.07c1.51,2.12,4.26,8.85,5.57,10.87c0.22,0.34,2.11,2.21,2.6,2.96
		c0.86,1.35,1.12,2.91,1.12,4.46c0,3.25-0.49,1.59-0.68,10.86c0,0,0.18,4.52,1.43,4.52c0,0,0.86,0.22,0.79-1.86
		c-0.02-0.55,0.08-1.1,0.29-1.61c0.43-1.07,1.37-2.46,3.25-1.83c0.49,0.16,0.84,0.63,0.85,1.14c0.02,1.28-0.51,4.31-3.92,11.03
		l-1.86,2.29c-0.22,0.27,0.03,0.66,0.36,0.56c2.78-0.78,8.52-1.83,10.83-7.71c0.32-0.81,0.47-1.68,0.49-2.55
		C140.04,165.34,140.01,161.46,139.19,159.24z"/>
	<g id="XMLID_1625_">
		<path id="XMLID_1627_" class="st0" d="M50.81,122.57c0,0-3.07,9.43-5.76,23.07c-2.75,13.97-5.09,32.35-3.32,49.55
			c0,0,2.53,13.5,6.52,17c0,0,1.52,8.41,0.33,11.01c-0.33,0.72-0.59,1.47-0.57,2.27c0.03,0.96,0.26,2.29,1.03,3.97
			c0,0-6.45,24.25,0,47.75c0,0,1.2,8.5,1.45,10.75c0,0-2,2.5,0,4.75c0,0-11.25,11.75-14,14.5c0,0-3,6.22,4.75,6.22
			c0,0,11.6,0.03,12.25-4.82c0.11-0.78,0.21-1.55,0.49-2.28c0.82-2.19,2.49-6.26,3.76-6.63c0,0,3-3.25,0-6.25
			c0,0,0.65-1.77,0.76-3.84c0.25-4.71,0.8-9.39,1.99-13.94c2.08-7.95,4.54-18.31,4.24-21.97c-0.5-6.25,0-19.5-2.25-25.25
			c0,0,2.3-0.75,2.27-13.25c0,0,7.66-46.02,4.66-50.52l0.7-41.95L50.81,122.57z"/>
		<path id="XMLID_1626_" class="st0" d="M109.52,307.19c-2.75-2.75-14-14.5-14-14.5c2-2.25,0-4.75,0-4.75
			c0.25-2.25,1.45-10.75,1.45-10.75c6.4-34.5,0-47.75,0-47.75c0.26-0.56,0.48-1.1,0.67-1.61c0.75-1.99,0.93-4.13,0.69-6.25
			c-0.37-3.25,1.54-9.89,1.54-9.89c3.98-3.5,6.63-20.74,6.63-20.74c3.5-34-8.99-68.37-8.99-68.37H78.2l-4.33,46.94
			c-3,4.5,7.38,45.68,7.38,45.68c-0.02,12.5,2.27,13.25,2.27,13.25c-2.25,5.75-1.75,19-2.25,25.25c-0.36,4.49,3.41,19.03,5.56,26.87
			c0.71,2.57,0.84,5.24,0.68,7.9c-0.15,2.51,0.76,4.98,0.76,4.98c-3,3,0,6.25,0,6.25c1.27,0.36,2.94,4.44,3.76,6.63
			c0.27,0.73,0.38,1.5,0.49,2.28c0.66,4.84,12.25,4.82,12.25,4.82C112.52,313.41,109.52,307.19,109.52,307.19z"/>
	</g>
	<rect id="XMLID_1624_" x="66.28" y="121.08" class="st0" width="14.33" height="47.33"/>
	<g id="XMLID_1206_">
		<defs>
			<path id="XMLID_1207_" d="M64.53,261.07c0,0-1.19,8.73-2.17,16.55c-0.82,6.56-0.55,13.21,0.86,19.67
				c0.96,4.38,1.75,9.13,1.13,10.63l-10.25,5.5l-1.75-2.25c0,0-4.79,2.3-6.48,4.21c-0.82,0.92-1.73,1.75-2.81,2.34
				c-2.23,1.2-5.93,2.47-10.42,1.27c-0.91-0.24-1.83-0.42-2.76-0.55c-2.35-0.34-6.27-0.99-6.27-1.51c0,0,0.39-2.9,2.35-4.28
				c1.05-0.74,2-1.61,2.94-2.49c1.36-1.27,3.26-2.9,5.18-4.14c3.87-2.49,7.22-5.72,9.52-9.7c1.13-1.95,2-3.68,2-4.39l0.64-33.7
				C46.24,258.22,61.78,263.07,64.53,261.07z"/>
		</defs>
		<clipPath id="XMLID_2_">
			<use xlink:href="#XMLID_1207_"  style="overflow:visible;"/>
		</clipPath>
		<path id="XMLID_1345_" style="clip-path:url(#XMLID_2_);fill:#EE4036;" d="M64.53,261.07c0,0-1.19,8.73-2.17,16.55
			c-0.82,6.56-0.55,13.21,0.86,19.67c0.96,4.38,1.75,9.13,1.13,10.63l-10.25,5.5l-1.75-2.25c0,0-6.25,3-7,5c0,0-5.75,5.25-13.75,2.5
			c0,0-8-1-8-1.75c0,0,0.39-2.9,2.35-4.28c1.05-0.74,2-1.61,2.94-2.49c1.36-1.27,3.26-2.9,5.18-4.14c3.87-2.49,7.22-5.72,9.52-9.7
			c1.13-1.95,2-3.68,2-4.39l0.64-33.7C46.24,258.22,61.78,263.07,64.53,261.07z"/>
		<g id="XMLID_1343_" style="clip-path:url(#XMLID_2_);">
			<path id="XMLID_1344_" class="st2" d="M64.35,304.25l-10.25,5.5l-1.75-2.25c0,0-5.21,2.5-6.69,4.46
				c-0.55,0.72-1.25,1.3-2.03,1.76c-2.28,1.36-6.64,3.13-12.03,1.28c0,0-4.57-0.57-6.8-1.17c-0.97,1.41-1.2,3.09-1.2,3.09
				c0,0.75,8,1.75,8,1.75c8,2.75,13.75-2.5,13.75-2.5c0.75-2,7-5,7-5l1.75,2.25l10.25-5.5c0.29-0.7,0.27-2.12,0.07-3.88
				C64.4,304.11,64.38,304.19,64.35,304.25z"/>
		</g>
		<path id="XMLID_1342_" style="clip-path:url(#XMLID_2_);fill:none;stroke:#404041;stroke-miterlimit:10;" d="M44.09,270.32
			c0,0,4.24,1,6.01,0"/>
		<path id="XMLID_1341_" style="clip-path:url(#XMLID_2_);fill:none;stroke:#404041;stroke-miterlimit:10;" d="M44.09,272.32
			c0,0,4.24,1,6.01,0"/>
		<path id="XMLID_1338_" style="clip-path:url(#XMLID_2_);fill:none;stroke:#404041;stroke-miterlimit:10;" d="M44.09,274.49
			c0,0,4.24,1,6.01,0"/>
		<path id="XMLID_1336_" style="clip-path:url(#XMLID_2_);fill:none;stroke:#404041;stroke-miterlimit:10;" d="M44.09,277.83
			c0,0,4.24,1,6.01,0"/>
		<path id="XMLID_1275_" style="clip-path:url(#XMLID_2_);fill:none;stroke:#404041;stroke-miterlimit:10;" d="M44.09,281.22
			c0,0,4.24,1,6.01,0"/>
		<path id="XMLID_1245_" style="clip-path:url(#XMLID_2_);fill:none;stroke:#404041;stroke-miterlimit:10;" d="M44.09,284.55
			c0,0,4.24,1,6.01,0"/>
		<path id="XMLID_1244_" style="clip-path:url(#XMLID_2_);fill:none;stroke:#404041;stroke-miterlimit:10;" d="M44.09,288.62
			c0,0,4.24,1,6.01,0"/>
		<path id="XMLID_1243_" style="clip-path:url(#XMLID_2_);fill:none;stroke:#404041;stroke-miterlimit:10;" d="M44.09,292.22
			c0,0,4.24,1,6.01,0"/>
		<path id="XMLID_1242_" style="clip-path:url(#XMLID_2_);fill:none;stroke:#404041;stroke-miterlimit:10;" d="M44.09,294.89
			c0,0,4.24,1,6.01,0"/>
		<path id="XMLID_1209_" style="clip-path:url(#XMLID_2_);fill:none;stroke:#404041;stroke-miterlimit:10;" d="M47.09,298.82
			c0,0-4.24-1-6.01,0"/>
		<path id="XMLID_1208_" style="clip-path:url(#XMLID_2_);fill:none;stroke:#404041;stroke-miterlimit:10;" d="M44.09,300.89
			c0,0-4.24-1-6.01,0"/>
	</g>
	<g id="XMLID_1113_">
		<defs>
			<path id="XMLID_1114_" d="M81.5,261.05c0,0,1.19,8.73,2.17,16.55c0.82,6.56,0.55,13.21-0.86,19.67
				c-0.96,4.38-1.75,9.13-1.13,10.63l10.25,5.5l1.75-2.25c0,0,4.79,2.3,6.48,4.21c0.82,0.92,1.73,1.75,2.81,2.34
				c2.23,1.2,5.93,2.47,10.42,1.27c0.91-0.24,1.83-0.42,2.76-0.55c2.35-0.34,6.27-0.99,6.27-1.51c0,0-0.39-2.9-2.35-4.28
				c-1.05-0.74-2-1.61-2.94-2.49c-1.36-1.27-3.26-2.9-5.18-4.14c-3.87-2.49-7.22-5.72-9.52-9.7c-1.13-1.95-2-3.68-2-4.39l-0.64-33.7
				C99.79,258.2,84.25,263.05,81.5,261.05z"/>
		</defs>
		<clipPath id="XMLID_3_">
			<use xlink:href="#XMLID_1114_"  style="overflow:visible;"/>
		</clipPath>
		<path id="XMLID_1205_" class="st6" d="M82.09,259.65c0,0,0.6,10.13,1.58,17.95c0.82,6.56,0.55,13.21-0.86,19.67
			c-0.96,4.38-1.75,9.13-1.13,10.63l10.25,5.5l1.75-2.25c0,0,6.25,3,7,5c0,0,5.75,5.25,13.75,2.5c0,0,8-1,8-1.75
			c0,0-0.39-2.9-2.35-4.28c-1.05-0.74-2-1.61-2.94-2.49c-1.36-1.27-3.26-2.9-5.18-4.14c-3.87-2.49-7.22-5.72-9.52-9.7
			c-1.13-1.95-2-3.68-2-4.39l-0.64-33.7C99.79,258.2,84.84,261.65,82.09,259.65z"/>
		<g id="XMLID_1203_" style="clip-path:url(#XMLID_3_);">
			<path id="XMLID_1204_" class="st2" d="M81.68,304.23l10.25,5.5l1.75-2.25c0,0,5.21,2.5,6.69,4.46c0.55,0.72,1.25,1.3,2.03,1.76
				c2.28,1.36,6.64,3.13,12.03,1.28c0,0,4.57-0.57,6.8-1.17c0.97,1.41,1.2,3.09,1.2,3.09c0,0.75-8,1.75-8,1.75
				c-8,2.75-13.75-2.5-13.75-2.5c-0.75-2-7-5-7-5l-1.75,2.25l-10.25-5.5c-0.29-0.7-0.27-2.12-0.07-3.88
				C81.63,304.09,81.65,304.17,81.68,304.23z"/>
		</g>
		<path id="XMLID_1202_" class="st8" d="M101.95,270.3c0,0-4.24,1-6.01,0"/>
		<path id="XMLID_1201_" class="st8" d="M101.95,272.3c0,0-4.24,1-6.01,0"/>
		<path id="XMLID_1200_" class="st8" d="M101.95,274.47c0,0-4.24,1-6.01,0"/>
		<path id="XMLID_1199_" class="st8" d="M101.95,277.81c0,0-4.24,1-6.01,0"/>
		<path id="XMLID_1198_" class="st8" d="M101.95,281.19c0,0-4.24,1-6.01,0"/>
		<path id="XMLID_1197_" class="st8" d="M101.95,284.53c0,0-4.24,1-6.01,0"/>
		<path id="XMLID_1168_" class="st8" d="M101.95,288.6c0,0-4.24,1-6.01,0"/>
		<path id="XMLID_1118_" class="st8" d="M101.95,292.2c0,0-4.24,1-6.01,0"/>
		<path id="XMLID_1117_" class="st8" d="M101.95,294.87c0,0-4.24,1-6.01,0"/>
		<path id="XMLID_1116_" class="st8" d="M98.94,298.8c0,0,4.24-1,6.01,0"/>
		<path id="XMLID_1115_" class="st8" d="M101.95,300.87c0,0,4.24-1,6.01,0"/>
	</g>
	<g id="XMLID_1100_">
		<defs>
			<path id="XMLID_1101_" d="M45.9,141.54h56.89h0.63c0,0,6.67,29.61,4,48.94c0,0-6.17,34.33-6.17,41.83c0,0,1.84,12.24,2.16,20.68
				c0.13,3.29-2.25,6.14-5.51,6.65l-15.33,2.37c-1.04,0.16-1.99-0.63-2.01-1.68c-0.12-6.28-0.46-25.72-0.06-33.1
				c0.05-0.99,0-1.99-0.17-2.97l-4.61-26.49c-0.18-1.04-0.32-2.08-0.42-3.12l-1.99-20.83h-3.21l-3.84,51v34.65
				c0,1.58-1.28,2.85-2.85,2.85h-17.6c-1.96,0-3.53-1.61-3.48-3.57c0.21-7.83,3.31-25.43,3.42-27.93
				c0.23-5.32-6.26-42.05-5.56-52.97c0.71-10.92,4.06-36.3,4.06-36.3H45.9z"/>
		</defs>
		<use xlink:href="#XMLID_1101_"  style="overflow:visible;fill:#404041;"/>
		<clipPath id="XMLID_4_">
			<use xlink:href="#XMLID_1101_"  style="overflow:visible;"/>
		</clipPath>
		<path id="XMLID_1112_" class="st13" d="M45.9,141.54h56.89h0.63c0,0,6.67,29.61,4,48.94c0,0-6.17,34.33-6.17,41.83
			c0,0,1.84,12.24,2.16,20.68c0.13,3.29-2.25,6.14-5.51,6.65l-15.33,2.37c-1.04,0.16-1.99-0.63-2.01-1.68
			c-0.12-6.28-0.46-25.72-0.06-33.1c0.05-0.99,0-1.99-0.17-2.97l-4.61-26.49c-0.18-1.04-0.32-2.08-0.42-3.12l-1.99-20.83h-3.21
			l-3.84,51v34.65c0,1.58-1.28,2.85-2.85,2.85h-17.6c-1.96,0-3.53-1.61-3.48-3.57c0.21-7.83,3.31-25.43,3.42-27.93
			c0.23-5.32-6.26-42.05-5.56-52.97c0.71-10.92,4.06-36.3,4.06-36.3H45.9z"/>
		<path id="XMLID_1111_" style="clip-path:url(#XMLID_4_);fill:#00ADEE;" d="M66.28,237.8l1.73,22.77l0,0
			c-1.04,1.96-3.19,3.07-5.39,2.8l-6.61-0.8L66.28,237.8z"/>
		<path id="XMLID_1110_" style="clip-path:url(#XMLID_4_);fill:#00ADEE;" d="M80.26,235.97l-0.26,23.65l-0.01,1.1
			c1.21,1.95,3.5,2.96,5.76,2.54l6.78-1.28L80.26,235.97z"/>
		<path id="XMLID_1106_" class="st16" d="M48.83,140.02h7l-11.25,36.9c-0.71,2.32-0.63,4.82,0.21,7.09l5.21,14.05l11.89-29.29
			c0.56-1.38,1.89-2.3,3.38-2.33l11.13-0.23c1.64-0.03,3.12,0.98,3.68,2.53l12.4,34.41l9.63-19.27c0.88-1.76,1.06-3.78,0.51-5.66
			l-11.15-38.22h8.33l10.67,40.48l-11,22.67l11,20.67l-17,42l-16.5-36.33l9.5-24.67l-11.33-32.67h-8.33l-10,26.76l12.33,30.57
			l-13.33,38.33l-18-42.67l6-26.24l-8.48-18.43L48.83,140.02z M46.16,226.44l8.85,25.13l6.09-20.06c0.43-1.41,0.29-2.92-0.37-4.24
			l-8.37-16.55c-0.64-1.27-2.52-1.07-2.88,0.31l-3.42,13.13C45.86,224.92,45.9,225.71,46.16,226.44z M91.9,214.37L85,228.53
			c-0.63,1.3-0.68,2.8-0.13,4.14l8.13,19.69c0.17,0.41,0.76,0.38,0.89-0.04l7.39-23.7c0.46-1.47,0.29-3.06-0.46-4.4l-5.54-9.94
			C94.54,212.92,92.58,212.98,91.9,214.37z"/>
		<path id="XMLID_1105_" style="clip-path:url(#XMLID_4_);fill:#00ADEE;" d="M51.51,140.02c0,0,0.11,1.14,0.33,2.8
			c0.21,1.57-0.33,3.58,0.93,5.56c1.29,2.01,1.12,4.56,1.9,5.72c0.68,1.02,0.8,2.27,1.19,3.43c1.73,5.28-0.83,5.19-0.27,7.95
			c0.47,2.27,2,3.83,4.92,4.33c2,0.34,2.84,3.31,5.76,3.42c0,0,11.19,1.82,16.82-1.92c1.16-0.77,0.86-0.89,1.58-1.75
			c0.98-1.17,3.58-0.58,4.08-3.33c0.09-0.47-0.59-3.41-0.36-4.49c0.14-0.68,0.26-1.3,0.31-1.64c0.19-1.48,0.75-2.88,1.65-4.07
			c0.86-1.14,1.97-3.97,2.85-7.08c0.41-1.45,1.14-1.72,1.04-4.38c-0.06-1.77,0.51-3.35,0.46-4.56H82.68l-1.51,3.45
			c-0.37,0.84-0.58,1.75-0.62,2.67l0,0c0.46,1.15,0.55,2.41,0.24,3.61l-0.32,1.25c-0.27,1.05-0.17,2.73,0.29,3.71
			c1.36,2.89,4.05,2.07,1,7.12c-0.55,0.92-3.08,0.02-4.17,0.32c-0.84,0.23-2.01,0.99-3.1,0.52c-1.39-0.6-2.86-1.35-5.05,0.02
			c-1.09,0.68-2.43-0.36-3.27-0.73c-0.83-0.36-3.64,0.81-4.17,0.24c-3.25-3.5-1.49-4.5-0.92-5.34c0.63-0.93,1.23-2.65,2.28-3.18
			c1.18-0.58,1.85-2.47,1.88-3.02c0.05-0.9-0.83-1.25,0-3.83c0.27-0.84,0.08-2.07-1.24-3.69c-1.54-1.87-0.84-3.11-0.84-3.11H51.51z"
			/>
		<path id="XMLID_1104_" style="clip-path:url(#XMLID_4_);fill:#00ADEE;" d="M70.01,187.32c0,0-6.71,2.75-9,7.97
			c-0.78,1.77-0.62,3.82,0.31,5.51c1.71,3.09,5.05,8.75,6.68,9.08l3.11-21.31L70.01,187.32z"/>
		<path id="XMLID_1102_" style="clip-path:url(#XMLID_4_);fill:#00ADEE;" d="M76.75,212.57c0,0,5.78-4.38,6.65-10.01
			c0.3-1.91-0.37-3.85-1.72-5.24c-2.45-2.55-7.13-7.17-8.79-7.06l2.46,21.39L76.75,212.57z"/>
	</g>
	<g id="XMLID_583_">
		<g id="XMLID_585_">
			<defs>
				<path id="XMLID_586_" d="M42.26,141.54h63.17c0,0-0.8-9.35-2.61-9.61c0,0-0.2-5.46-1.54-7.28c-0.6-0.81-0.97-1.77-0.93-2.78
					l0.64-16.33c0,0,0.53,5.28,5.28,13.03c3.86,6.3,6.84,13.92,11,18.25l6.2,8.2c0,0,10.3-0.75,10.3-3.47c0,0-7.19-27.66-10.5-34.22
					c0,0-10.17-35.17-17.69-40.33c0,0-2.64-2.69-8.31-3.67c-6.41-1.11-9.83-1.17-12.74-3.41c0,0-10.38,9.08-22.07-0.07
					c0,0-1.21,3.03-16.19,4.46c-5.19,0.5-5.47,1.53-6.62,3.99c-0.33,0.71-0.78,1.35-1.26,1.97c-1.88,2.45-6.24,11.11-11.06,41.22
					l-12.81,33.53c0,0,3.5,4.05,10.75,3.8c0,0,21.59-35.22,22.89-43.69c0,0-1.64,14.7-1.64,17.45c0,0-1.25,2.75-1,5.25
					c0,0-2.25,3-2.25,5.25L42.26,141.54z"/>
			</defs>
			<clipPath id="XMLID_5_">
				<use xlink:href="#XMLID_586_"  style="overflow:visible;"/>
			</clipPath>
			<path id="XMLID_1099_" style="clip-path:url(#XMLID_5_);fill:#D8D03E;" d="M42.26,141.54h63.17c0,0-0.8-9.35-2.61-9.61
				c0,0-0.2-5.46-1.54-7.28c-0.6-0.81-0.97-1.77-0.93-2.78l0.64-16.33c0,0,0.53,5.28,5.28,13.03c3.86,6.3,6.84,13.92,11,18.25
				l6.2,8.2c0,0,10.3-0.75,10.3-3.47c0,0-7.19-27.66-10.5-34.22c0,0-10.17-35.17-17.69-40.33c0,0-2.64-2.69-8.31-3.67
				c-6.41-1.11-9.83-1.17-12.74-3.41c0,0-10.38,9.08-22.07-0.07c0,0-1.21,3.03-16.19,4.46c-5.19,0.5-5.47,1.53-6.62,3.99
				c-0.33,0.71-0.78,1.35-1.26,1.97c-1.88,2.45-6.24,11.11-11.06,41.22l-12.81,33.53c0,0,3.5,4.05,10.75,3.8
				c0,0,21.59-35.22,22.89-43.69c0,0-1.64,14.7-1.64,17.45c0,0-1.25,2.75-1,5.25c0,0-2.25,3-2.25,5.25L42.26,141.54z"/>
			<path id="XMLID_1096_" style="clip-path:url(#XMLID_5_);fill:#EE4036;" d="M77.49,100.8l10.09-21.29
				c0.44-0.93,1.77-0.92,2.19,0.02l9.79,21.91c0.28,0.62,0.27,1.33-0.02,1.94L89.29,125c-0.26,0.55-1.04,0.55-1.3,0.01L77.5,103.49
				C77.09,102.64,77.08,101.65,77.49,100.8z M89.13,114.95l4.81-11.11c0.45-1.05,0.42-2.25-0.08-3.27L88.53,89.8
				c-0.14-0.28-0.55-0.27-0.67,0.02l-4.12,10.18c-0.56,1.39-0.53,2.96,0.09,4.32l4.82,10.62C88.74,115.17,89.04,115.16,89.13,114.95
				z"/>
			<path id="XMLID_1093_" style="clip-path:url(#XMLID_5_);fill:#EE4036;" d="M48.78,99.37l10.36-20.66
				c0.43-0.86,1.67-0.8,2.02,0.09l8.52,21.85c0.28,0.71,0.27,1.5-0.02,2.2l-8.31,20.11c-0.44,1.06-1.92,1.1-2.41,0.07l-10.17-21.17
				C48.38,101.07,48.39,100.15,48.78,99.37z M60.8,113.82l4.04-11.68c0.14-0.39,0.13-0.82-0.03-1.21l-4.49-11.14
				c-0.22-0.54-0.97-0.58-1.24-0.06l-4.83,9.44c-0.75,1.47-0.72,3.21,0.08,4.65l5.6,10.06C60.13,114.26,60.66,114.21,60.8,113.82z"
				/>
			<path id="XMLID_1092_" style="clip-path:url(#XMLID_5_);fill:#00ADEE;" d="M108.06,142.49H41.59v-4.94l1.23,0.41
				c1.43,0.48,2.97,0.14,4.16-0.91h0c1.86-1.64,4.47-1.43,6.11,0.5h0c0.64,0.75,1.51,1.16,2.41,1.14l0,0
				c2.19,0.26,1.42-0.14,3.38-1.15l0.94-0.49c0.48-0.25,1.05-0.23,1.51,0.05c0,0,3.43,3.11,6.72,2.91l6.29-0.2h7.29
				c0.56-0.01,1.95-1.14,2.65-2.03c0.44-0.56,1.31-1.31,1.93-1.64c1.79-0.97,2.54-0.04,5.3,1.05c0.25,0.1,0.54,0.25,0.81,0.4
				c1.06,0.6,2.36,0.56,3.4-0.08c0.01-0.01,0.02-0.01,0.03-0.02c1.09-0.66,2.14-0.76,3.56-0.12c0.91,0.41,1.94,0.78,2.95,0.93
				c2.95,0.45,5.8-0.77,5.8-0.77V142.49z"/>
			<path id="XMLID_1091_" style="clip-path:url(#XMLID_5_);fill:#00ADEE;" d="M102.01,117.07l-0.89-4.81
				c-0.14-0.74-1.09-0.96-1.54-0.36l-2.53,3.37c-0.03,0.03-0.05,0.07-0.07,0.11c-3.03,5.33-4.04,10.65-4.38,13.61
				c-0.02,0.14-0.04,0.27-0.07,0.39c-0.44,1.63-2.64,1.98-3.72,0.68c-1.03-1.24-2.42-3.15-2.71-4.7c-0.77-4.06-3.76-8.1-4.7-9.54
				c-0.48-0.74-5.39-10.89-7.44-10.75c-1.08,0.07-4.02,3.88-5.37,6.87c-0.54,1.18-4.7,7.86-6.15,12.76c-1.08,3.64-3.18,6-4.42,5.81
				c-1.68-0.25-3.23-1.87-3.48-3.55c-0.36-2.45-1.13-5.97-2.8-9.7c-0.76-1.71-1.83-3.27-3.13-4.61l-1.11-1.13
				c-0.49-0.5-1.34-0.24-1.47,0.44l-0.77,4.14l-3.33,15.24c-0.1,0.44,0.15,1.87,0.58,2.01c1.49,0.46,4.98,2.01,7.67,1.43
				c4.46-0.96,4.17-1.82,4.58-1.82l2.09-0.14c1.4-0.1,2.8,0.99,4.17,1.25c0,0,10.38,4.35,11.83,2.36c1.24-1.7,1.86-5.44-0.84-6.48
				c-2.04-0.78-7.08-0.38-3-10.71c1.81-4.6,3.22-8.76,4.62-9.17c0.6-0.17,4,3.49,5.21,8.08c1.29,4.92,3.92,6.96-0.08,10.54
				c-0.97,0.87-1.94,0.47-3.25,1.62c-1.39,1.23-1.92,4.97-0.77,6.26l0.05,0.06c2.15,2.39,9.05-1.44,9.11-1.66
				c0.09-0.32,2.35-0.95,2.35-0.95c1.37-0.26,2.78-0.35,4.17-0.25l3.04,0.21c0.41,0,2.48,1.76,3.63,1.76c6.56,0,6.41,0,7.75-1.53
				c0.4-0.46,0.63-1.32,0.5-1.91L102.01,117.07z"/>
			<path id="XMLID_1090_" style="clip-path:url(#XMLID_5_);fill:#00ADEE;" d="M36.97,83.77l1,5.36c4.29,3.26,17.42-8.24,15.36-18.61
				c-0.03-0.15,0.05-0.3,0.08-0.44c0.49-1.82,2.95-2.21,4.15-0.76c1.15,1.39,2.69,3.51,3.02,5.23c0.86,4.53,4.19,9.02,5.24,10.63
				c0.54,0.82,6.01,12.13,8.29,11.98c1.21-0.08,4.48-4.32,5.98-7.65c0.6-1.32,5.23-8.76,6.86-14.22c1.21-4.06,3.55-6.68,4.92-6.48
				c1.87,0.28,4.47,2.16,3.88,3.96c-2.11,6.37,13.97,17.14,13.97,17.14c0.54,0.56,2.7-0.25,2.85-1.02l0.86-4.61l-3.63-16.39
				c0.11-0.49-0.17-2.09-0.65-2.24c-1.66-0.52-5.55-2.24-8.55-1.59c-4.97,1.07-4.64,2.03-5.1,2.03l-2.33,0.16
				c-1.56,0.11-3.12-1.1-4.65-1.39c0,0-11.57-4.84-13.18-2.63c-1.38,1.9-2.08,6.07,0.93,7.22c2.28,0.87,7.88,0.42,3.34,11.93
				c-2.02,5.12-3.59,9.76-5.15,10.21c-0.67,0.19-4.46-3.88-5.8-9.01c-1.44-5.48-4.36-7.75,0.09-11.75c1.08-0.97,2.16-0.52,3.62-1.81
				c1.55-1.37,2.14-5.53,0.86-6.98l-0.06-0.06c-2.4-2.66-10.08,1.6-10.15,1.85c-0.1,0.36-2.62,1.06-2.62,1.06
				c-1.53,0.29-3.1,0.39-4.65,0.28l-3.39-0.23c-0.46,0-2.77-1.96-4.04-1.96c-7.31,0-7.15,0-8.64,1.7c-0.45,0.51-0.7,1.47-0.55,2.13
				L36.97,83.77z"/>
			<path id="XMLID_1089_" style="clip-path:url(#XMLID_5_);fill:#00ADEE;" d="M114.25,134.81l19.51-12.23l-11.17-17.5
				c0,0-16.49,11.99-16.33,17.5"/>
			<path id="XMLID_1016_" style="clip-path:url(#XMLID_5_);fill:#00ADEE;" d="M34.02,143.56l-19.51-15.23l11.17-17.5
				c0,0,16.49,11.99,16.33,17.5"/>
			<path id="XMLID_641_" style="clip-path:url(#XMLID_5_);fill:#EE4036;" d="M106.43,128.08l3.67,5.63l27.33-20.56l-26.67-48.88
				L99.99,63.3l-2.72,0.02l2,7.5l6.03,8.15c0.43,0.58,0.83,1.18,1.19,1.8c4.97,8.52,9.15,17.48,12.49,26.77l1.93,5.36
				c0.43,1.19,0.08,2.52-0.87,3.36L106.43,128.08z"/>
			<path id="XMLID_587_" style="clip-path:url(#XMLID_5_);fill:#EE4036;" d="M37.83,134.06l-2.94,6.45l-23.6-26.36l26.67-48.88
				l10.74-2.6l-0.97,9.82c0,0-13.63,24.99-17.2,38.07l-2.2,8.06c-0.42,1.55-0.09,3.21,0.9,4.48L37.83,134.06z"/>
		</g>
		<line id="XMLID_584_" class="st58" x1="73.88" y1="63.91" x2="73.88" y2="141.54"/>
	</g>
</g>
</svg>
