<?xml version="1.0" encoding="utf-8"?>
<!-- Generator: Adobe Illustrator 19.2.1, SVG Export Plug-In . SVG Version: 6.00 Build 0)  -->
<svg version="1.1" id="Layer_1" xmlns="http://www.w3.org/2000/svg" xmlns:xlink="http://www.w3.org/1999/xlink" x="0px" y="0px"
	 viewBox="0 0 148.75 325.75" style="enable-background:new 0 0 148.75 325.75;" xml:space="preserve">
<style type="text/css">
	.st0{fill:#F0EAD6;}
	.st1{fill:#EE4036;}
	.st2{fill:#BE1E2D;}
	.st3{clip-path:url(#XMLID_2_);fill:#404041;}
	.st4{clip-path:url(#XMLID_2_);fill:none;stroke:#FFFFFF;stroke-width:2;stroke-miterlimit:10;}
	.st5{clip-path:url(#XMLID_3_);fill:#F0EAD6;}
	.st6{clip-path:url(#XMLID_3_);fill:#EE4036;}
	.st7{clip-path:url(#XMLID_3_);fill:none;}
	.st8{clip-path:url(#XMLID_3_);fill:none;stroke:#404041;stroke-miterlimit:10;}
	.st9{clip-path:url(#XMLID_3_);fill:#404041;}
	.st10{clip-path:url(#XMLID_3_);fill:#FFF9CD;}
	.st11{clip-path:url(#XMLID_4_);fill:#F0EAD6;}
	.st12{clip-path:url(#XMLID_4_);}
	.st13{clip-path:url(#XMLID_4_);fill:#D8D03E;}
	.st14{clip-path:url(#XMLID_4_);fill:none;}
	.st15{clip-path:url(#XMLID_4_);fill:#404041;}
	.st16{clip-path:url(#XMLID_4_);fill:#EE4036;}
	.st17{clip-path:url(#XMLID_4_);fill:#FFF9CD;}
	.st18{clip-path:url(#XMLID_5_);fill:#FFF9CD;}
	.st19{clip-path:url(#XMLID_5_);fill:none;stroke:#EE4036;stroke-width:1.5;stroke-miterlimit:10;}
	.st20{clip-path:url(#XMLID_4_);fill:none;stroke:#EE4036;stroke-width:1.5;stroke-miterlimit:10;}
	.st21{fill:#FFF9CD;}
	.st22{clip-path:url(#XMLID_6_);fill:#404041;}
	.st23{clip-path:url(#XMLID_6_);fill:#FFF9CD;}
	.st24{clip-path:url(#XMLID_6_);fill:#EE4036;}
	.st25{clip-path:url(#XMLID_6_);fill:#D8D03E;}
	.st26{fill:#404041;}
	.st27{fill:#FFFFFF;}
	.st28{fill:none;}
	.st29{fill:#00ADEE;}
	.st30{fill:#26A9E0;}
	.st31{clip-path:url(#XMLID_7_);fill:#1B75BB;}
	.st32{clip-path:url(#XMLID_7_);fill:#FFFFFF;}
	.st33{clip-path:url(#XMLID_8_);fill:#E5E2B6;}
	.st34{clip-path:url(#XMLID_8_);fill:#EE4036;}
	.st35{clip-path:url(#XMLID_8_);fill:#FFFFFF;}
	.st36{fill:#D7182A;}
	.st37{clip-path:url(#XMLID_9_);fill:#FFF9CD;}
	.st38{clip-path:url(#XMLID_9_);fill:#EE4036;}
	.st39{clip-path:url(#XMLID_9_);fill:#58595B;}
	.st40{clip-path:url(#XMLID_10_);fill:#FFF9CD;}
	.st41{clip-path:url(#XMLID_10_);fill:#EE4036;}
	.st42{clip-path:url(#XMLID_10_);fill:#58595B;}
	.st43{fill:none;stroke:#58595B;stroke-width:1.5;stroke-miterlimit:10;}
	.st44{fill:#58595B;}
	.st45{fill:#A6A8AB;}
	.st46{clip-path:url(#XMLID_11_);fill:#EE4036;}
	.st47{clip-path:url(#XMLID_11_);}
	.st48{clip-path:url(#XMLID_11_);fill:none;stroke:#404041;stroke-miterlimit:10;}
	.st49{clip-path:url(#XMLID_12_);fill:#EE4036;}
	.st50{clip-path:url(#XMLID_12_);}
	.st51{clip-path:url(#XMLID_12_);fill:none;stroke:#404041;stroke-miterlimit:10;}
	.st52{clip-path:url(#XMLID_13_);fill:#D8D03E;}
	.st53{clip-path:url(#XMLID_13_);fill:#00ADEE;}
	.st54{clip-path:url(#XMLID_13_);fill:#EE4036;}
	.st55{clip-path:url(#XMLID_14_);fill:#D8D03E;}
	.st56{clip-path:url(#XMLID_14_);fill:#EE4036;}
	.st57{clip-path:url(#XMLID_14_);fill:#00ADEE;}
	.st58{fill:none;stroke:#404041;stroke-width:1.5;stroke-miterlimit:10;}
	.st59{fill:#EF4136;}
	.st60{opacity:0.51;fill:#BE1E2D;}
	.st61{clip-path:url(#XMLID_15_);fill:#404041;}
	.st62{clip-path:url(#XMLID_15_);fill:#FFF9CD;}
	.st63{fill:#D8D03E;}
	.st64{opacity:0.28;fill:#FFF9CD;}
	.st65{fill:#1B75BB;}
	.st66{clip-path:url(#XMLID_16_);fill:#D8D03E;}
	.st67{clip-path:url(#XMLID_16_);fill:#404041;}
	.st68{opacity:0.62;fill:#D8D03E;}
</style>
<g id="XMLID_1725_">
	<g id="XMLID_2048_">
		<path id="XMLID_2101_" class="st0" d="M63.39,61.53l0.44-11.98c0-0.03-0.01-0.06-0.02-0.08c-0.14-0.22-0.94-1.51-1.5-3.3
			c-0.21-0.69-0.27-1.43-0.2-2.15l0-0.04c0.14-1.56-0.3-3.11-1.22-4.38C60.43,38.97,60,38.14,60,37.21c0,0-3.17-13.74,5.68-17.58
			c0,0,6.96-3.04,14.27,0.48c0,0,6.34,1.67,6.34,5.55c0,0-0.35,7.89,0,9.33c0,0.01,0,0.01,0,0.01c0.05,0.09,0.91,1.74-0.87,4.38
			c-0.01,0.01-0.02,0.03-0.02,0.05c-0.08,0.48-1.41,8.2-1.67,9.14l-0.49,1.98c-0.52,2.09-0.82,4.29-0.35,6.39
			c0.28,1.27-1.1,2.75-1.19,4.04l0,0l1.08,5.21c0,0.09-0.09,0.15-0.18,0.14l-18.69-4.02L63.39,61.53z"/>
		<path id="XMLID_2056_" class="st1" d="M85.11,62.99c1.27,0.17,2.29-0.04,2.68-1.58c0.78-3.04-0.02-8.67-0.02-8.67
			c0-2.17,1.75-9.67,1.75-9.67l0,0c0.76-0.11,1.35-0.73,1.41-1.5c0.23-3.23-0.24-10.75-0.24-10.75c0.06-1.99,0.09-4.96-0.73-6.58
			c-0.54-1.08-1.98-1.01-2.12-1.69c-0.03-0.13,2.14,0.16,2.05,0.09c-0.94-0.69-0.91-0.99-1.32-1.36c-0.24-0.21,1.24,0.04,0.94-0.08
			l-1.82-0.93l0.97-0.91l-1.31-0.62l0.85-0.92l-1.14-0.83l1.05-0.92l-1.55-0.2l0.72-0.67l-1.34-0.74l0.12-0.97l-0.86,0.33l0.83-1.58
			l-1.42,0.08l0.5-1l-1.34,0.42l0.67-1.04l-1.71,0.08l-0.08-0.92l-1.33,0.75l0.29-1l-1.23,0.59l-0.14-1.17l-0.99,0.98l-0.42-0.93
			L78,9.66l-0.56-1l-0.7,0.49l-0.47-0.69l-0.58,0.43l-0.83-0.55l-0.54,0.65l-0.6-0.48l-0.42,0.98l-0.85-0.48l-0.67,1.08l-0.75-0.67
			l-0.88,0.96l-1.21-0.58l-0.96,0.79l-1.33-0.12l-0.46,1.92l-0.83,0.12l-0.75,1.42h-0.83l-0.25,1l-1.11,0.25v0.83l-1.06,0.13
			l-0.05,0.7l-1.04,0.38l0.26,0.65l-0.92,0.57l0.5,0.62l-1.75,0.96h0.79l0.54,0.42l-1.83,0.96l0.71,0.54l-1.04,1.25h1.33
			c-2.83,2.42-2.17,7.33-1.58,7.83c0.42,0.36,0.75,2.25,0.9,3.29c0.07,0.45,0.05,0.89,0,1.34c-0.42,3.6,0.92,7.68,1.69,9.66
			c0.28,0.71,0.41,1.47,0.38,2.24c-0.07,1.93,0.12,5.8,0.12,5.8c0.44,2.25,0.23,3.08,0,6.91c-0.01,0.14-0.01,0.28-0.02,0.42
			c0,0.03,0,0.07,0,0.1c-0.01,1.78,1.89,2.92,3.49,2.16l0.19-0.09c1.5-0.67,0.88-1.63,0.71-2.63l-0.15-0.87l-0.08-9.76
			c0-0.29-0.08-0.57-0.24-0.82c-0.01-0.01-0.01-0.02-0.02-0.03c-0.93-1.53-1.43-3.3-1.3-5.08c0.07-0.92-0.1-2.23-1.04-3.8
			c-0.51-0.85-1.62-2.66-1.12-3.58c0.73-1.35,0.82-3.45,0.75-5.38c-0.04-1.12,0.27-2.2,0.83-3.18c0.3-0.53,0.57-1.07,0.82-1.63
			c0.77-1.74,3.12-5.84,8.65-5.4c0.38,0.03,2.98,0.41,3.36,0.4c1.96-0.07,6.05,2.1,8.71,5.77c0.61,0.84,0.32,2.33,0.75,3.08
			c1.23,2.17,0.01,4.17,0.13,8.11c0.04,1.12-0.02,2.25-0.24,3.35c-0.64,3.2-1.9,9.59-1.97,10.1l-0.25,7.69l-0.03,1.22
			c-0.02,1.01,0.62,1.91,1.58,2.22L85.11,62.99z"/>
		<path id="XMLID_2055_" class="st0" d="M85.3,34.24c0.51,0,1,0.11,1.46,0.33c1.03,0.5,2.68,1.62,2.68,3.67c0,0,0.46,1.72-1.08,4.14
			c0,0-1.17,3.03-2.42,3.11c0,0-1.43,0.42-2.17,0l0.63-11.25H85.3z"/>
		<path id="XMLID_2054_" class="st0" d="M63,45.06c0,0-1.48,0.75-1.92-1.13c0,0-0.92-1.97-1.8-3.44c-0.37-0.61-0.64-1.28-0.78-1.98
			c-0.06-0.3-0.08-0.6-0.04-0.82c0.26-1.3,1.48-2.07,2.35-1.44L63,41.68V45.06z"/>
		<path id="XMLID_2053_" class="st0" d="M139.19,161.28c0,0-1.75-6.2-4.37-8.93c-0.97-1.01-2.05-3.56-3.01-6.32l0.08,0.04
			c0,0-4.57-14.72-11.32-38.89c-1.07-3.82-2.97-5.68-3.44-9.24c-0.62-4.69-1.12-6.31-1.72-9.43c-0.28-1.47-2.49-6.9-3.83-9.34
			c-1.08-1.97-1.83-4.83-2.91-6.45c-0.34-0.52-0.74-1-1.09-1.48c-1.55-2.1-3.66-3.7-6.1-4.63c-2.19-0.84-5.48-1.3-8.87-1.62
			c-8.82-0.84-9.12-4.05-10.06-8.93c-0.12-0.62-0.18-1.18-0.17-1.66l-17.75,0.17c0,0,1.36,7.75-7.54,10.76
			c-0.69,0.23-1.41,0.39-2.14,0.44c-4.23,0.28-15.21-0.75-18.89,12.3c-0.34,1.22-0.75,2.42-1.34,3.54
			c-1.16,2.21-3.13,7.17-3.09,15.39c0.02,4.68-1.9,6.45-3.1,11.8c-1.91,8.55-2.01,5.75-4.29,13.55c-0.89,3.05-7.72,27.4-10.33,30.01
			c-2.33,2.33-2.57,4.35-4.37,8.93c-0.47,1.18-0.83,0.96-0.78,9.22c0.02,3.18,2.73,5.75,5.57,7.2c2.39,1.22,5.21,2.4,6.75,2.15
			c0,0-7.37-9.5-6.43-15c0,0,4.18-2.25,4.63,4.62c0.05,0.76,1.46,0.25,1.55-0.51c0.24-1.91,0.57-4.92,0.62-7.25
			c0.05-2.13-1.47-6.12-0.54-8.03c2.35-4.79,8.16-13.79,10-16.67c2.43-5.96,5.8-11.49,9.98-16.39l1.86-2.17
			c1.12-1.31,1.91-2.89,2.23-4.59c0.24-1.28,0.38-2.6,0.59-3.66l1.81-9.22l3.2,24.86l46.83,0.36l2.21-26.97l0.52,1.26
			c1.8,4.35,2.27,4.63,3.09,9.27c0,0,1.77,8.21,2.99,9.43c2.15,2.17,3.98,4.62,5.43,7.28c0.08,0.14,0.16,0.29,0.24,0.43
			c1.05,1.87,2.31,3.62,3.75,5.21c0.89,0.99,2.08,2.4,3.28,4.07c1.51,2.12,4.26,8.85,5.57,10.87c0.22,0.34,2.11,2.21,2.6,2.96
			c0.86,1.35,1.12,2.91,1.12,4.46c0,3.25-0.49,1.59-0.68,10.86c0,0,0.18,4.52,1.43,4.52c0,0,0.86,0.22,0.79-1.86
			c-0.02-0.55,0.08-1.1,0.29-1.61c0.43-1.07,1.37-2.46,3.25-1.83c0.49,0.16,0.84,0.63,0.85,1.14c0.02,1.28-0.51,4.31-3.92,11.03
			l-1.86,2.29c-0.22,0.27,0.03,0.66,0.36,0.56c2.78-0.78,8.52-1.83,10.83-7.71c0.32-0.81,0.47-1.68,0.49-2.55
			C140.04,167.38,140.01,163.5,139.19,161.28z"/>
		<g id="XMLID_2050_">
			<path id="XMLID_2052_" class="st0" d="M50.81,124.62c0,0-3.07,9.43-5.76,23.07c-2.75,13.97-5.09,32.35-3.32,49.55
				c0,0,2.53,13.5,6.52,17c0,0,1.52,8.41,0.33,11.01c-0.33,0.72-0.59,1.47-0.57,2.27c0.03,0.96,0.26,2.29,1.03,3.97
				c0,0-6.45,24.25,0,47.75c0,0,1.2,8.5,1.45,10.75c0,0-2,2.5,0,4.75c0,0-11.25,11.75-14,14.5c0,0-3,6.22,4.75,6.22
				c0,0,11.6,0.03,12.25-4.82c0.11-0.78,0.21-1.55,0.49-2.28c0.82-2.19,2.49-6.26,3.76-6.63c0,0,3-3.25,0-6.25
				c0,0,0.65-1.77,0.76-3.84c0.25-4.71,0.8-9.39,1.99-13.94c2.08-7.95,4.54-18.31,4.24-21.97c-0.5-6.25,0-19.5-2.25-25.25
				c0,0,2.3-0.75,2.27-13.25c0,0,7.66-46.02,4.66-50.52l0.7-41.95L50.81,124.62z"/>
			<path id="XMLID_2051_" class="st0" d="M109.52,309.23c-2.75-2.75-14-14.5-14-14.5c2-2.25,0-4.75,0-4.75
				c0.25-2.25,1.45-10.75,1.45-10.75c6.4-34.5,0-47.75,0-47.75c0.26-0.56,0.48-1.1,0.67-1.61c0.75-1.99,0.93-4.13,0.69-6.25
				c-0.37-3.25,1.54-9.89,1.54-9.89c3.98-3.5,6.63-20.74,6.63-20.74c3.5-34-8.99-68.37-8.99-68.37H78.2l-4.33,46.94
				c-3,4.5,7.38,45.68,7.38,45.68c-0.02,12.5,2.27,13.25,2.27,13.25c-2.25,5.75-1.75,19-2.25,25.25
				c-0.36,4.49,3.41,19.03,5.56,26.87c0.71,2.57,0.84,5.24,0.68,7.9c-0.15,2.51,0.76,4.98,0.76,4.98c-3,3,0,6.25,0,6.25
				c1.27,0.36,2.94,4.44,3.76,6.63c0.27,0.73,0.38,1.5,0.49,2.28c0.66,4.84,12.25,4.82,12.25,4.82
				C112.52,315.45,109.52,309.23,109.52,309.23z"/>
		</g>
		<rect id="XMLID_2049_" x="66.28" y="123.12" class="st0" width="14.33" height="47.33"/>
	</g>
	<g id="XMLID_1841_">
		<defs>
			<path id="XMLID_1842_" d="M131.45,143.93c0.34-0.31,0.56-0.65,0.56-1.05c0,0-8.15-29.12-11.46-35.69c0,0-7.12-34.21-14.64-39.38
				c0,0-2.64-2.69-8.31-3.67c-6.41-1.11-10.93-1.14-13.84-3.38c0,0-3.15,36.25-10.32,42.5c-2.34,2.04-9.05-35.7-11.32-41
				c0,0-0.53,1.44-15.51,2.87c-5.14,0.49-5.46,1.51-6.59,3.92c-0.31,0.65-0.68,1.28-1.13,1.84C37.1,73.04,32.71,81,27.75,112
				l-11.89,33.84c0,0,0.15,0.41,0.59,0.95l0,0l-0.89,2.52l5.9,3.28l2.24-2.95c0.3,0.01,0.6,0.01,0.92,0c0,0,21.78-32.49,22.78-42.26
				c0,0,2,12.88,2.82,15.75c0,0-0.79,2.79-0.54,5.29h49.1c0,0,0.29-1.85-0.23-2.97c-0.49-1.05-0.74-2.2-0.5-3.34l3.29-15.74
				c0,0,0.91,6.42,3.93,12.52c3.22,6.5,9.25,12.62,12.34,18.76l5.16,8.36c0,0,0.14-0.01,0.39-0.02l3.36,4.08l5.9-2.35L131.45,143.93
				z"/>
		</defs>
		<clipPath id="XMLID_2_">
			<use xlink:href="#XMLID_1842_"  style="overflow:visible;"/>
		</clipPath>
		<path id="XMLID_2047_" style="clip-path:url(#XMLID_2_);fill:#FFF9CD;" d="M131.45,143.93c0.34-0.31,0.56-0.65,0.56-1.05
			c0,0-8.15-29.12-11.46-35.69c0,0-7.12-34.21-14.64-39.38c0,0-2.64-2.69-8.31-3.67c-6.41-1.11-10.93-1.14-13.84-3.38
			c0,0-3.15,36.25-10.32,42.5c-2.34,2.04-9.05-35.7-11.32-41c0,0-0.53,1.44-15.51,2.87c-5.14,0.49-5.46,1.51-6.59,3.92
			c-0.31,0.65-0.68,1.28-1.13,1.84C37.1,73.04,32.71,81,27.75,112l-11.89,33.84c0,0,0.15,0.41,0.59,0.95l0,0l-0.89,2.52l5.9,3.28
			l2.24-2.95c0.3,0.01,0.6,0.01,0.92,0c0,0,21.78-32.49,22.78-42.26c0,0,2,12.88,2.82,15.75c0,0-0.79,2.79-0.54,5.29h49.1
			c0,0,0.29-1.85-0.23-2.97c-0.49-1.05-0.74-2.2-0.5-3.34l3.29-15.74c0,0,0.91,6.42,3.93,12.52c3.22,6.5,9.25,12.62,12.34,18.76
			l5.16,8.36c0,0,0.14-0.01,0.39-0.02l3.36,4.08l5.9-2.35L131.45,143.93z"/>
		<rect id="XMLID_2046_" x="42.41" y="61.74" style="clip-path:url(#XMLID_2_);fill:#EE4036;" width="4.5" height="185.64"/>
		<rect id="XMLID_2045_" x="50.66" y="61.74" style="clip-path:url(#XMLID_2_);fill:#58595B;" width="4.5" height="185.64"/>
		<rect id="XMLID_2044_" x="58.22" y="61.74" style="clip-path:url(#XMLID_2_);fill:#EE4036;" width="4.5" height="185.64"/>
		<rect id="XMLID_2043_" x="66.47" y="61.74" style="clip-path:url(#XMLID_2_);fill:#58595B;" width="4.5" height="185.64"/>
		<rect id="XMLID_2042_" x="74.24" y="61.74" style="clip-path:url(#XMLID_2_);fill:#EE4036;" width="4.5" height="185.64"/>
		<rect id="XMLID_2041_" x="82.49" y="60.01" style="clip-path:url(#XMLID_2_);fill:#58595B;" width="4.51" height="187.37"/>
		<rect id="XMLID_2040_" x="91.48" y="61.74" style="clip-path:url(#XMLID_2_);fill:#EE4036;" width="4.5" height="185.64"/>
		<rect id="XMLID_2039_" x="99.73" y="61.74" style="clip-path:url(#XMLID_2_);fill:#58595B;" width="4.5" height="185.64"/>
		<rect id="XMLID_1983_" x="106.59" y="51.77" style="clip-path:url(#XMLID_2_);fill:#EE4036;" width="2.25" height="87.02"/>
		<rect id="XMLID_1982_" x="110.71" y="51.77" style="clip-path:url(#XMLID_2_);fill:#58595B;" width="2.25" height="87.02"/>
		<rect id="XMLID_1981_" x="115.39" y="58.34" style="clip-path:url(#XMLID_2_);fill:#EE4036;" width="2.25" height="87.02"/>
		<rect id="XMLID_1980_" x="123.72" y="58.34" style="clip-path:url(#XMLID_2_);fill:#EE4036;" width="2.25" height="87.83"/>
		<rect id="XMLID_1979_" x="119.51" y="58.34" style="clip-path:url(#XMLID_2_);fill:#58595B;" width="2.25" height="87.02"/>
		<rect id="XMLID_1978_" x="129.18" y="57.34" style="clip-path:url(#XMLID_2_);fill:#58595B;" width="2.25" height="87.62"/>
		<rect id="XMLID_1977_" x="15.07" y="54.06" style="clip-path:url(#XMLID_2_);fill:#EE4036;" width="2.25" height="87.02"/>
		<rect id="XMLID_1976_" x="19.19" y="62.06" style="clip-path:url(#XMLID_2_);fill:#58595B;" width="2.25" height="87.02"/>
		<rect id="XMLID_1975_" x="23.87" y="63.63" style="clip-path:url(#XMLID_2_);fill:#EE4036;" width="2.25" height="87.02"/>
		<rect id="XMLID_1970_" x="32.2" y="60.63" style="clip-path:url(#XMLID_2_);fill:#EE4036;" width="2.25" height="87.02"/>
		<rect id="XMLID_1844_" x="27.99" y="60.63" style="clip-path:url(#XMLID_2_);fill:#58595B;" width="2.25" height="87.02"/>
		<rect id="XMLID_1843_" x="37.66" y="59.63" style="clip-path:url(#XMLID_2_);fill:#58595B;" width="2.25" height="87.02"/>
	</g>
	<g id="XMLID_1821_">
		<defs>
			<path id="XMLID_1822_" d="M98.67,127.88c0,0,12.99,40.46,8.92,64.13c0,0-6.17,34.33-6.17,41.83c0,0,1.42,11.89-1.83,12.39
				c0,0-18.16,2.43-17.79-2.39c0.08-0.99-1.13-17.07-1.3-18.05L75.9,199.3c-0.18-1.04-0.32-2.08-0.42-3.12l-2.99-20.83h-2.21
				l-5.93,67.5c0,0-18.01,5.17-18.45,0.75c-0.53-5.3-5.44-50.85-5.54-64.22c-0.18-24.36,9.2-51.49,9.2-51.49H98.67z"/>
		</defs>
		<clipPath id="XMLID_3_">
			<use xlink:href="#XMLID_1822_"  style="overflow:visible;"/>
		</clipPath>
		<path id="XMLID_1840_" class="st10" d="M98.67,127.88c0,0,12.99,40.46,8.92,64.13c0,0-6.17,34.33-6.17,41.83
			c0,0,1.42,11.89-1.83,12.39c0,0-18.16,2.43-17.79-2.39c0.08-0.99-1.13-17.07-1.3-18.05L75.9,199.3c-0.18-1.04-0.32-2.08-0.42-3.12
			l-2.99-20.83h-2.21l-5.93,67.5c0,0-18.01,5.17-18.45,0.75c-0.53-5.3-5.44-50.85-5.54-64.22c-0.18-24.36,9.2-51.49,9.2-51.49H98.67
			z"/>
		<path id="XMLID_1839_" class="st10" d="M131.38,143.39c0.34-0.31,0.56-0.65,0.56-1.05c0,0-8.15-29.12-11.46-35.69
			c0,0-7.12-34.21-14.64-39.38c0,0-2.64-2.69-8.31-3.67c-6.41-1.11-10.93-1.14-13.84-3.38c0,0-3.15,36.25-10.32,42.5
			c-2.34,2.04-9.05-35.7-11.32-41c0,0-0.53,1.44-15.51,2.87c-5.14,0.49-5.46,1.51-6.59,3.92c-0.31,0.65-0.68,1.28-1.13,1.84
			c-1.78,2.16-6.17,10.12-11.13,41.11L15.79,145.3c0,0,0.15,0.41,0.59,0.95l0,0l-0.89,2.52l5.9,3.28l2.24-2.95
			c0.3,0.01,0.6,0.01,0.92,0c0,0,21.78-32.49,22.78-42.26c0,0,2,12.88,2.82,15.75c0,0-0.79,2.79-0.54,5.29h49.1
			c0,0,0.29-1.85-0.23-2.97c-0.49-1.05-0.74-2.2-0.5-3.34l3.29-15.74c0,0,0.91,6.42,3.93,12.52c3.22,6.5,9.25,12.62,12.34,18.76
			l5.16,8.36c0,0,0.14-0.01,0.39-0.02l3.36,4.08l5.9-2.35L131.38,143.39z"/>
		<rect id="XMLID_1838_" x="43.35" y="61.2" class="st6" width="4.5" height="185.64"/>
		<rect id="XMLID_1837_" x="51.6" y="61.2" style="clip-path:url(#XMLID_3_);fill:#58595B;" width="4.5" height="185.64"/>
		<rect id="XMLID_1836_" x="59.15" y="61.2" class="st6" width="4.5" height="185.64"/>
		<rect id="XMLID_1835_" x="68.4" y="61.2" style="clip-path:url(#XMLID_3_);fill:#58595B;" width="4.5" height="185.64"/>
		<rect id="XMLID_1834_" x="75.17" y="61.2" class="st6" width="4.5" height="185.64"/>
		<rect id="XMLID_1833_" x="84.42" y="61.2" style="clip-path:url(#XMLID_3_);fill:#58595B;" width="4.5" height="185.64"/>
		<rect id="XMLID_1824_" x="93.41" y="61.2" class="st6" width="4.5" height="185.64"/>
		<rect id="XMLID_1823_" x="101.66" y="61.2" style="clip-path:url(#XMLID_3_);fill:#58595B;" width="4.5" height="185.64"/>
	</g>
	<g id="XMLID_1780_">
		<g id="XMLID_1817_">
			<g id="XMLID_1818_">
				<path id="XMLID_1820_" class="st1" d="M31.75,305.98c1.19-0.37,3.31-1.01,5.98-1.76c6.15-1.73,10.64-7.14,10.94-13.52
					c0.02-0.36,0.03-0.72,0.03-1.1l-4.43-49.01H66.9c0,0-1.06,29.88-2.3,33.36c-1.76,4.93-1.83,14.38-1.29,18.6
					c0.2,1.55,1.29,4.86,1.29,6.42v9.4H30.68v-0.94C30.68,306.76,31.11,306.18,31.75,305.98z"/>
				<path id="XMLID_1819_" class="st2" d="M64.6,313.03c0,0.92-0.71,1.69-1.63,1.75c-4.13,0.29-14.96,1.06-19.07,1.36
					c-0.72,0.05-1.43,0.2-2.12,0.41c-1.58,0.48-5.27,1.09-10.11-1.51c-0.6-0.32-0.98-0.93-0.98-1.61l0-6.61l16.46,1.18
					c0.46,0.02,0.97,0.03,1.49,0.04c1.43,0.03,2.86-0.12,4.25-0.44l1.09-0.25c2.03-0.46,4.1-0.72,6.18-0.66c0.01,0,0.02,0,0.04,0
					l4.4,0.12"/>
			</g>
		</g>
		<g id="XMLID_1781_">
			<g id="XMLID_1782_">
				<path id="XMLID_1784_" class="st1" d="M115.48,306.43c-1.19-0.37-3.31-1.01-5.98-1.76c-6.15-1.73-10.64-7.14-10.94-13.52
					c-0.02-0.36-0.03-0.72-0.03-1.1l4.43-49.01H80.33c0,0,1.06,29.88,2.3,33.36c1.76,4.93,1.83,14.38,1.29,18.6
					c-0.2,1.55-1.29,4.86-1.29,6.42v9.4h33.91v-0.94C116.55,307.21,116.12,306.62,115.48,306.43z"/>
				<path id="XMLID_1783_" class="st2" d="M82.64,313.48c0,0.92,0.71,1.69,1.63,1.75c4.13,0.29,14.96,1.06,19.07,1.36
					c0.72,0.05,1.43,0.2,2.12,0.41c1.58,0.48,5.27,1.09,10.11-1.51c0.6-0.32,0.98-0.93,0.98-1.61l0-6.61l-16.46,1.18
					c-0.46,0.02-0.97,0.03-1.49,0.04c-1.43,0.03-2.86-0.12-4.25-0.44l-1.09-0.25c-2.03-0.46-4.1-0.72-6.18-0.66
					c-0.01,0-0.02,0-0.04,0l-4.4,0.12"/>
			</g>
		</g>
	</g>
	<line id="XMLID_1779_" class="st43" x1="49.57" y1="127.88" x2="98.67" y2="127.88"/>
	<polygon id="XMLID_1738_" class="st44" points="123.15,145.98 126.51,150.07 132.41,147.72 131.45,143.93 	"/>
	<path id="XMLID_1737_" class="st45" d="M83,65.55c0,0,22-1.37,29.97-1.37c0,0-9.29,18.28-17.33,21.56s-15.95,2.11-15.95,2.11
		L83,65.55z"/>
	<path id="XMLID_1731_" class="st44" d="M80.45,82.72c0,0-0.5-18.64,2.84-23.22l17.65,4.84c0,0-5.47,1.34-8.77,3.14
		c-2.54,1.38-4.55,3.57-5.6,4.95C84.6,75.01,81.8,78.58,80.45,82.72z"/>
	<path id="XMLID_1730_" class="st45" d="M63,64.18c0,0-16.85,0.29-30.01,2.17c0,0,10.42,16.24,18.45,19.51s16.85,1.99,16.85,1.99
		L63,64.18z"/>
	<path id="XMLID_1729_" class="st44" d="M67.12,82.72c0,0-0.07-18.19-3.41-22.77l-17.56,4.52c0,0,5.47,1.34,8.77,3.14
		c2.54,1.38,4.55,3.57,5.6,4.95C62.49,75.14,65.77,78.58,67.12,82.72z"/>
	<polygon id="XMLID_1728_" class="st44" points="16.44,146.79 15.56,149.31 21.45,152.59 23.69,149.64 	"/>
	<circle id="XMLID_1727_" class="st1" cx="73" cy="27.27" r="4.76"/>
	<path id="XMLID_1726_" class="st0" d="M76.99,27.27c0,1.86-2.12,3.33-3.98,3.33s-3.98-1.47-3.98-3.33c0-1.86,2.11-3.37,3.97-3.37
		C74.86,23.9,76.99,25.4,76.99,27.27z"/>
</g>
</svg>
