<?xml version="1.0" encoding="utf-8"?>
<!-- Generator: Adobe Illustrator 19.2.1, SVG Export Plug-In . SVG Version: 6.00 Build 0)  -->
<svg version="1.1" id="Layer_1" xmlns="http://www.w3.org/2000/svg" xmlns:xlink="http://www.w3.org/1999/xlink" x="0px" y="0px"
	 viewBox="0 0 148.75 325.75" style="enable-background:new 0 0 148.75 325.75;" xml:space="preserve">
<style type="text/css">
	.st0{fill:#F0EAD6;}
	.st1{fill:#EE4036;}
	.st2{fill:#BE1E2D;}
	.st3{clip-path:url(#XMLID_2_);fill:#404041;}
	.st4{clip-path:url(#XMLID_2_);fill:none;stroke:#FFFFFF;stroke-width:2;stroke-miterlimit:10;}
	.st5{clip-path:url(#XMLID_3_);fill:#F0EAD6;}
	.st6{clip-path:url(#XMLID_3_);fill:#EE4036;}
	.st7{clip-path:url(#XMLID_3_);fill:none;}
	.st8{clip-path:url(#XMLID_3_);fill:none;stroke:#404041;stroke-miterlimit:10;}
	.st9{clip-path:url(#XMLID_3_);fill:#404041;}
	.st10{clip-path:url(#XMLID_3_);fill:#FFF9CD;}
	.st11{clip-path:url(#XMLID_4_);fill:#F0EAD6;}
	.st12{clip-path:url(#XMLID_4_);}
	.st13{clip-path:url(#XMLID_4_);fill:#D8D03E;}
	.st14{clip-path:url(#XMLID_4_);fill:none;}
	.st15{clip-path:url(#XMLID_4_);fill:#404041;}
	.st16{clip-path:url(#XMLID_4_);fill:#EE4036;}
	.st17{clip-path:url(#XMLID_4_);fill:#FFF9CD;}
	.st18{clip-path:url(#XMLID_5_);fill:#FFF9CD;}
	.st19{clip-path:url(#XMLID_5_);fill:none;stroke:#EE4036;stroke-width:1.5;stroke-miterlimit:10;}
	.st20{clip-path:url(#XMLID_4_);fill:none;stroke:#EE4036;stroke-width:1.5;stroke-miterlimit:10;}
	.st21{fill:#FFF9CD;}
	.st22{clip-path:url(#XMLID_6_);fill:#404041;}
	.st23{clip-path:url(#XMLID_6_);fill:#FFF9CD;}
	.st24{clip-path:url(#XMLID_6_);fill:#EE4036;}
	.st25{clip-path:url(#XMLID_6_);fill:#D8D03E;}
	.st26{fill:#404041;}
	.st27{fill:#FFFFFF;}
	.st28{fill:none;}
	.st29{fill:#00ADEE;}
	.st30{fill:#26A9E0;}
	.st31{clip-path:url(#XMLID_7_);fill:#1B75BB;}
	.st32{clip-path:url(#XMLID_7_);fill:#FFFFFF;}
	.st33{clip-path:url(#XMLID_8_);fill:#E5E2B6;}
	.st34{clip-path:url(#XMLID_8_);fill:#EE4036;}
	.st35{clip-path:url(#XMLID_8_);fill:#FFFFFF;}
	.st36{fill:#D7182A;}
	.st37{clip-path:url(#XMLID_9_);fill:#FFF9CD;}
	.st38{clip-path:url(#XMLID_9_);fill:#EE4036;}
	.st39{clip-path:url(#XMLID_9_);fill:#58595B;}
	.st40{clip-path:url(#XMLID_10_);fill:#FFF9CD;}
	.st41{clip-path:url(#XMLID_10_);fill:#EE4036;}
	.st42{clip-path:url(#XMLID_10_);fill:#58595B;}
	.st43{fill:none;stroke:#58595B;stroke-width:1.5;stroke-miterlimit:10;}
	.st44{fill:#58595B;}
	.st45{fill:#A6A8AB;}
	.st46{clip-path:url(#XMLID_11_);fill:#EE4036;}
	.st47{clip-path:url(#XMLID_11_);}
	.st48{clip-path:url(#XMLID_11_);fill:none;stroke:#404041;stroke-miterlimit:10;}
	.st49{clip-path:url(#XMLID_12_);fill:#EE4036;}
	.st50{clip-path:url(#XMLID_12_);}
	.st51{clip-path:url(#XMLID_12_);fill:none;stroke:#404041;stroke-miterlimit:10;}
	.st52{clip-path:url(#XMLID_13_);fill:#D8D03E;}
	.st53{clip-path:url(#XMLID_13_);fill:#00ADEE;}
	.st54{clip-path:url(#XMLID_13_);fill:#EE4036;}
	.st55{clip-path:url(#XMLID_14_);fill:#D8D03E;}
	.st56{clip-path:url(#XMLID_14_);fill:#EE4036;}
	.st57{clip-path:url(#XMLID_14_);fill:#00ADEE;}
	.st58{fill:none;stroke:#404041;stroke-width:1.5;stroke-miterlimit:10;}
	.st59{fill:#EF4136;}
	.st60{opacity:0.51;fill:#BE1E2D;}
	.st61{clip-path:url(#XMLID_15_);fill:#404041;}
	.st62{clip-path:url(#XMLID_15_);fill:#FFF9CD;}
	.st63{fill:#D8D03E;}
	.st64{opacity:0.28;fill:#FFF9CD;}
	.st65{fill:#1B75BB;}
	.st66{clip-path:url(#XMLID_16_);fill:#D8D03E;}
	.st67{clip-path:url(#XMLID_16_);fill:#404041;}
	.st68{opacity:0.62;fill:#D8D03E;}
</style>
<g id="XMLID_640_">
	<path id="XMLID_301_" class="st0" d="M63.48,62.52l0.44-11.98c0-0.03-0.01-0.06-0.02-0.08c-0.14-0.22-0.94-1.51-1.5-3.3
		c-0.21-0.69-0.27-1.43-0.2-2.15l0-0.04c0.14-1.56-0.3-3.11-1.22-4.38c-0.46-0.63-0.89-1.47-0.89-2.39c0,0-3.17-13.74,5.68-17.58
		c0,0,6.96-3.04,14.27,0.48c0,0,6.34,1.67,6.34,5.55c0,0-0.35,7.89,0,9.33c0,0.01,0,0.01,0,0.01c0.05,0.09,0.91,1.74-0.87,4.38
		c-0.01,0.01-0.02,0.03-0.02,0.05c-0.08,0.48-1.41,8.2-1.67,9.14l-0.49,1.98c-0.52,2.09-0.82,4.29-0.35,6.39
		c0.28,1.27-1.1,2.75-1.19,4.04l0,0l1.08,5.21c0,0.09-0.09,0.15-0.18,0.14l-18.69-4.02L63.48,62.52z"/>
	<path id="XMLID_300_" class="st1" d="M85.2,63.98c1.27,0.17,2.29-0.04,2.68-1.58c0.78-3.04-0.02-8.67-0.02-8.67
		c0-2.17,1.75-9.67,1.75-9.67l0,0c0.76-0.11,1.35-0.73,1.41-1.5c0.23-3.23-0.24-10.75-0.24-10.75c0.06-1.99,0.09-4.96-0.73-6.58
		c-0.54-1.08-1.98-1.01-2.12-1.69c-0.03-0.13,2.14,0.16,2.05,0.09c-0.94-0.69-0.91-0.99-1.32-1.36c-0.24-0.21,1.24,0.04,0.94-0.08
		l-1.82-0.93l0.97-0.91l-1.31-0.62l0.85-0.92l-1.14-0.83l1.05-0.92l-1.55-0.2l0.72-0.67l-1.34-0.74l0.12-0.97l-0.86,0.33l0.83-1.58
		l-1.42,0.08l0.5-1l-1.34,0.42l0.67-1.04l-1.71,0.08l-0.08-0.92L81.4,11.6l0.29-1l-1.23,0.59l-0.14-1.17L79.33,11l-0.42-0.93
		l-0.82,0.58l-0.56-1l-0.7,0.49l-0.47-0.69l-0.58,0.43l-0.83-0.55L74.4,9.96l-0.6-0.48l-0.42,0.98l-0.85-0.48l-0.67,1.08l-0.75-0.67
		l-0.88,0.96l-1.21-0.58l-0.96,0.79l-1.33-0.12l-0.46,1.92l-0.83,0.12l-0.75,1.42h-0.83l-0.25,1l-1.11,0.25v0.83l-1.06,0.12
		l-0.05,0.7l-1.04,0.38l0.26,0.65L59.7,19.4l0.5,0.62l-1.75,0.96h0.79l0.54,0.42l-1.83,0.96l0.71,0.54l-1.04,1.25h1.33
		c-2.83,2.42-2.17,7.33-1.58,7.83c0.42,0.36,0.75,2.25,0.9,3.29c0.07,0.45,0.05,0.89,0,1.34c-0.42,3.6,0.92,7.68,1.69,9.66
		c0.28,0.71,0.41,1.47,0.38,2.24c-0.07,1.93,0.12,5.8,0.12,5.8c0.44,2.25,0.23,3.08,0,6.91c-0.01,0.14-0.01,0.28-0.02,0.42
		c0,0.03,0,0.07,0,0.1c-0.01,1.78,1.89,2.92,3.49,2.16l0.19-0.09c1.5-0.67,0.88-1.63,0.71-2.63l-0.15-0.87l-0.08-9.76
		c0-0.29-0.08-0.57-0.24-0.82c-0.01-0.01-0.01-0.02-0.02-0.03c-0.93-1.53-1.43-3.3-1.3-5.08c0.07-0.92-0.1-2.23-1.04-3.8
		c-0.51-0.85-1.62-2.66-1.12-3.58c0.73-1.35,0.82-3.45,0.75-5.38c-0.04-1.12,0.27-2.2,0.83-3.18c0.3-0.53,0.57-1.07,0.82-1.63
		c0.77-1.74,3.12-5.84,8.65-5.4c0.38,0.03,2.98,0.41,3.36,0.4c1.96-0.07,6.05,2.1,8.71,5.77c0.61,0.84,0.32,2.33,0.75,3.08
		c1.23,2.17,0.01,4.17,0.13,8.11c0.04,1.12-0.02,2.25-0.24,3.35c-0.64,3.2-1.9,9.59-1.97,10.1l-0.25,7.69l-0.03,1.22
		c-0.02,1.01,0.62,1.91,1.58,2.22L85.2,63.98z"/>
	<path id="XMLID_299_" class="st0" d="M85.39,35.23c0.51,0,1,0.11,1.46,0.33c1.03,0.5,2.68,1.62,2.68,3.67c0,0,0.46,1.72-1.08,4.14
		c0,0-1.17,3.03-2.42,3.11c0,0-1.43,0.42-2.17,0l0.63-11.25H85.39z"/>
	<path id="XMLID_298_" class="st0" d="M63.09,46.04c0,0-1.48,0.75-1.92-1.13c0,0-0.92-1.97-1.8-3.44c-0.37-0.61-0.64-1.28-0.78-1.98
		c-0.06-0.3-0.08-0.6-0.04-0.82c0.26-1.3,1.48-2.07,2.35-1.44l2.18,5.43V46.04z"/>
	<g id="XMLID_200_">
		<defs>
			<path id="XMLID_201_" d="M139.19,162.27c0,0-1.75-6.2-4.37-8.93c-0.97-1.01-2.05-3.56-3.01-6.32l0.08,0.04
				c0,0-4.57-14.72-11.32-38.89c-1.07-3.82-2.97-5.68-3.44-9.24c-0.08-0.59-0.15-1.13-0.23-1.62c-0.07-0.5-0.15-0.96-0.22-1.39
				c-0.43-2.58-0.83-4.07-1.28-6.42c-0.12-0.64-0.62-2.04-1.24-3.62c-0.27-0.68-0.56-1.38-0.86-2.08c-0.2-0.46-0.4-0.92-0.6-1.36
				c-0.4-0.88-0.79-1.67-1.13-2.28c-1.08-1.97-1.83-4.83-2.91-6.45c-0.34-0.52-0.74-1-1.09-1.48c-1.55-2.1-3.66-3.7-6.1-4.63
				c-2.19-0.84-5.48-1.3-8.87-1.62c-8.82-0.84-9.12-4.05-10.06-8.93c-0.12-0.62-0.18-1.18-0.17-1.66l-17.75,0.17
				c0,0,1.36,7.75-7.54,10.76c-0.69,0.23-1.41,0.39-2.14,0.44c-4.23,0.28-15.21-0.75-18.89,12.3c-0.34,1.22-0.75,2.42-1.34,3.54
				c-1.16,2.21-3.13,7.17-3.09,15.39c0.02,4.68-1.9,6.45-3.1,11.8c-1.91,8.55-2.01,5.75-4.29,13.55
				c-0.89,3.05-7.72,27.4-10.33,30.01c-2.33,2.33-2.57,4.35-4.37,8.93c-0.47,1.18-0.83,0.96-0.78,9.22c0.02,3.18,2.73,5.75,5.57,7.2
				c2.39,1.22,5.21,2.4,6.75,2.15c0,0-7.37-9.5-6.43-15c0,0,4.18-2.25,4.63,4.62c0.05,0.76,1.46,0.25,1.55-0.51
				c0.24-1.91,0.57-4.92,0.62-7.25c0.05-2.13-1.47-6.12-0.54-8.03c2.35-4.79,8.16-13.79,10-16.67c2.43-5.96,5.8-11.49,9.98-16.39
				l1.86-2.17c1.12-1.31,1.91-2.89,2.23-4.59c0.24-1.28,0.38-2.6,0.59-3.66l1.81-9.22l3.16,24.56c0,0,0,0,0,0
				c-0.01,0.04-0.03,0.09-0.04,0.13c-0.05,0.16-0.1,0.34-0.16,0.54c-0.02,0.08-0.05,0.16-0.07,0.24c-0.06,0.18-0.11,0.38-0.17,0.59
				c-0.03,0.11-0.06,0.21-0.09,0.32c-0.06,0.22-0.13,0.45-0.2,0.69c-0.03,0.12-0.07,0.23-0.1,0.36c-0.1,0.34-0.2,0.7-0.31,1.08
				c-0.01,0.03-0.02,0.06-0.03,0.09c-0.12,0.42-0.24,0.87-0.37,1.35c-0.03,0.11-0.06,0.23-0.09,0.35c-0.1,0.36-0.2,0.72-0.3,1.11
				c-0.05,0.17-0.09,0.35-0.14,0.53c-0.09,0.36-0.19,0.72-0.28,1.1c-0.05,0.19-0.1,0.38-0.15,0.57c-0.11,0.43-0.22,0.88-0.34,1.34
				c-0.04,0.14-0.07,0.28-0.11,0.42c-0.15,0.61-0.3,1.24-0.46,1.88c-0.03,0.13-0.06,0.27-0.09,0.4c-0.12,0.52-0.25,1.05-0.37,1.59
				c-0.05,0.23-0.1,0.46-0.16,0.68c-0.11,0.47-0.21,0.95-0.32,1.44c-0.06,0.25-0.11,0.5-0.17,0.76c-0.11,0.51-0.22,1.02-0.33,1.54
				c-0.05,0.24-0.1,0.47-0.15,0.7c-0.16,0.76-0.31,1.53-0.47,2.32c-0.69,3.49-1.35,7.26-1.93,11.22c-0.29,1.98-0.56,4-0.8,6.07
				c-0.12,1.03-0.23,2.07-0.34,3.12c-0.53,5.24-0.86,10.67-0.87,16.12c0,1.13,0.01,2.25,0.03,3.38c0.07,3.15,0.25,6.29,0.56,9.4
				c0.01,0.09,0.01,0.17,0.02,0.26c0,0,2.53,13.5,6.52,17c0,0,0.06,0.33,0.15,0.88c0.05,0.29,0.1,0.65,0.16,1.05
				c0.01,0.06,0.02,0.12,0.03,0.19c0.16,1.2,0.34,2.75,0.42,4.26c0.02,0.31,0.03,0.62,0.03,0.92c0.01,0.61,0,1.19-0.04,1.72
				c-0.06,0.8-0.19,1.49-0.41,1.98c-0.33,0.72-0.59,1.47-0.57,2.27c0.02,0.72,0.16,1.65,0.55,2.78c0.13,0.38,0.29,0.78,0.48,1.2
				c0,0-2.78,10.44-2.86,24.27c-0.05,7.24,0.65,15.41,2.86,23.48c0,0,1.2,8.5,1.45,10.75c0,0-0.95,1.18-0.89,2.65
				c0.03,0.67,0.26,1.4,0.89,2.1c0,0-11.25,11.75-14,14.5c0,0-0.57,1.19-0.57,2.53c0,1.72,0.96,3.69,5.32,3.69
				c0,0,11.6,0.03,12.25-4.82c0.11-0.78,0.21-1.55,0.49-2.28c0.82-2.19,2.49-6.26,3.76-6.63c0,0,1.42-1.54,1.33-3.47
				c-0.04-0.88-0.39-1.84-1.33-2.78c0,0,0.65-1.77,0.76-3.84c0.19-3.53,0.54-7.04,1.21-10.5c0.22-1.15,0.48-2.3,0.78-3.44
				c0.26-0.99,0.53-2.02,0.79-3.08c0.53-2.1,1.06-4.28,1.54-6.4c0.12-0.53,0.24-1.06,0.35-1.57c0.91-4.16,1.56-7.92,1.58-10.15
				c0-0.28-0.01-0.53-0.02-0.76c-0.5-6.25,0-19.5-2.25-25.25c0,0,2.3-0.75,2.27-13.25c0,0,0-0.02,0-0.03c0-0.01,0-0.01,0-0.02
				c0-0.02,0.01-0.04,0.02-0.08c0-0.03,0.01-0.06,0.02-0.09c0.01-0.07,0.03-0.14,0.04-0.24c0.02-0.1,0.04-0.2,0.06-0.33
				c0.01-0.05,0.02-0.1,0.03-0.15c0.03-0.16,0.06-0.34,0.1-0.54c0-0.02,0.01-0.04,0.01-0.06c0.04-0.2,0.07-0.42,0.12-0.65
				c0.01-0.07,0.02-0.13,0.04-0.2c0.05-0.27,0.1-0.56,0.15-0.87c0-0.02,0.01-0.04,0.01-0.06c0.06-0.34,0.12-0.69,0.19-1.07
				c0,0,0-0.01,0-0.01c0.06-0.37,0.13-0.75,0.2-1.16c0.01-0.03,0.01-0.06,0.02-0.09c0.07-0.41,0.14-0.84,0.22-1.29
				c0-0.02,0.01-0.05,0.01-0.07c0.07-0.44,0.15-0.9,0.23-1.36c0.01-0.05,0.02-0.1,0.02-0.15c0.08-0.47,0.16-0.96,0.24-1.46
				c0-0.03,0.01-0.05,0.01-0.08c0.17-1.04,0.35-2.14,0.53-3.28c0-0.03,0.01-0.05,0.01-0.08c0.09-0.56,0.18-1.13,0.27-1.71
				c0.01-0.03,0.01-0.07,0.02-0.1c0.28-1.79,0.57-3.67,0.85-5.58c0-0.02,0.01-0.05,0.01-0.07c0.09-0.62,0.18-1.25,0.27-1.87
				c0.01-0.04,0.01-0.07,0.02-0.11c0.28-1.93,0.55-3.87,0.79-5.79c0-0.03,0.01-0.06,0.01-0.1c0.08-0.62,0.16-1.24,0.24-1.86
				c0-0.04,0.01-0.07,0.01-0.11c0.08-0.62,0.15-1.24,0.22-1.85c0,0,0-0.01,0-0.01c0.15-1.24,0.28-2.46,0.4-3.63
				c0-0.03,0.01-0.07,0.01-0.1c0.06-0.57,0.11-1.12,0.16-1.67c0-0.04,0.01-0.08,0.01-0.12c0.15-1.68,0.27-3.26,0.34-4.7
				c0-0.03,0-0.07,0.01-0.1c0.02-0.46,0.04-0.9,0.05-1.32c0-0.04,0-0.07,0-0.11c0-0.13,0-0.25,0.01-0.38h2.76
				c0,0.02-0.01,0.05-0.01,0.07c0,0,0,0.01,0,0.01c-0.34,1.7-0.16,4.79,0.33,8.59c0.07,0.54,0.15,1.1,0.23,1.67
				c0.25,1.71,0.54,3.52,0.87,5.4c0.11,0.62,0.22,1.26,0.34,1.89c0.23,1.27,0.48,2.56,0.74,3.85c0.13,0.64,0.26,1.29,0.39,1.93
				c0.23,1.15,0.47,2.29,0.71,3.42c0.06,0.27,0.11,0.54,0.17,0.8c1.98,9.24,3.97,17.11,3.97,17.11c-0.02,10.16,1.49,12.56,2.06,13.1
				c0.13,0.13,0.21,0.15,0.21,0.15c-2.25,5.75-1.75,19-2.25,25.25c-0.11,1.4,0.18,3.79,0.7,6.64c0.05,0.29,0.11,0.58,0.16,0.87
				c0.17,0.88,0.36,1.8,0.56,2.75c0.07,0.31,0.14,0.63,0.21,0.95c0.21,0.96,0.43,1.94,0.67,2.92c0.08,0.33,0.16,0.66,0.23,0.99
				c0.24,0.99,0.48,1.97,0.72,2.95s0.49,1.94,0.73,2.87c0.16,0.62,0.32,1.23,0.48,1.83c0.08,0.3,0.16,0.59,0.23,0.88
				c0.15,0.58,0.3,1.14,0.45,1.68c0.15,0.54,0.29,1.05,0.42,1.55c0.18,0.64,0.32,1.29,0.43,1.94c0.22,1.31,0.31,2.63,0.32,3.96
				c0,0.66-0.02,1.33-0.06,1.99c-0.03,0.47-0.02,0.94,0.01,1.39c0.07,1.02,0.27,1.94,0.45,2.6c0.04,0.15,0.07,0.28,0.11,0.39
				c0.11,0.38,0.19,0.6,0.19,0.6c-3,3,0,6.25,0,6.25l0,0c0.16,0.05,0.32,0.15,0.49,0.3c0.29,0.25,0.58,0.65,0.88,1.12
				c0.14,0.23,0.28,0.46,0.42,0.72c0.23,0.43,0.46,0.89,0.68,1.36c0.11,0.23,0.21,0.46,0.31,0.7c0.23,0.53,0.44,1.05,0.63,1.54
				c0.13,0.32,0.24,0.62,0.34,0.9c0.07,0.18,0.13,0.37,0.18,0.56c0.15,0.56,0.23,1.14,0.31,1.72c0.06,0.45,0.22,0.86,0.45,1.24
				c0.16,0.25,0.35,0.48,0.57,0.69c0.11,0.11,0.23,0.21,0.35,0.31c0.25,0.2,0.52,0.38,0.82,0.55c0.59,0.34,1.26,0.62,1.97,0.86
				c0.18,0.06,0.36,0.11,0.54,0.17c3.46,1.01,7.55,1,7.55,1c7.75,0,4.75-6.22,4.75-6.22c-2.75-2.75-14-14.5-14-14.5
				c2-2.25,0-4.75,0-4.75c0.25-2.25,1.45-10.75,1.45-10.75c6.4-34.5,0-47.75,0-47.75c0.26-0.56,0.48-1.1,0.67-1.61
				c0.19-0.5,0.34-1,0.46-1.52c0.24-1.03,0.34-2.08,0.33-3.14c-0.01-0.53-0.04-1.06-0.1-1.59c-0.09-0.81-0.04-1.84,0.09-2.92
				c0.38-3.24,1.46-6.97,1.46-6.97c3.98-3.5,6.63-20.74,6.63-20.74c3.5-34-8.99-68.37-8.99-68.37l2.08-25.37l0.52,1.26
				c1.8,4.35,2.27,4.63,3.09,9.27c0,0,1.77,8.21,2.99,9.43c2.15,2.17,3.98,4.62,5.43,7.28c0.08,0.14,0.16,0.29,0.24,0.43
				c0.52,0.94,1.1,1.84,1.73,2.71c0.63,0.87,1.3,1.71,2.02,2.5c0.67,0.74,1.51,1.72,2.39,2.87c0.29,0.38,0.59,0.78,0.89,1.2
				c0.19,0.26,0.4,0.6,0.62,0.99c0.33,0.59,0.7,1.29,1.08,2.06c0.51,1.02,1.04,2.15,1.55,3.24c0.9,1.91,1.75,3.69,2.32,4.58
				c0.22,0.34,2.11,2.21,2.6,2.96c0.86,1.35,1.13,2.91,1.13,4.46c0,3.25-0.49,1.59-0.68,10.86c0,0,0.18,4.52,1.43,4.52
				c0,0,0.86,0.22,0.78-1.86c-0.02-0.55,0.08-1.1,0.29-1.61c0.27-0.67,0.74-1.47,1.51-1.81c0.31-0.14,0.67-0.21,1.08-0.17
				c0.21,0.02,0.43,0.07,0.66,0.15c0.12,0.04,0.24,0.1,0.34,0.18c0.3,0.22,0.5,0.58,0.51,0.97c0.02,1.28-0.51,4.31-3.92,11.03
				l-1.86,2.29c-0.22,0.27,0.03,0.66,0.36,0.56c0.52-0.15,1.15-0.3,1.83-0.5c0.46-0.13,0.94-0.28,1.44-0.45s1.02-0.37,1.53-0.61
				c2.33-1.06,4.72-2.84,6.02-6.15c0.32-0.81,0.47-1.68,0.49-2.55C140.05,168.37,140.01,164.48,139.19,162.27z"/>
		</defs>
		<clipPath id="XMLID_2_">
			<use xlink:href="#XMLID_201_"  style="overflow:visible;"/>
		</clipPath>
		<path id="XMLID_297_" style="clip-path:url(#XMLID_2_);fill:#F0EAD6;" d="M139.27,162.27c0,0-1.75-6.2-4.37-8.93
			c-0.97-1.01-2.05-3.56-3.01-6.32l0.08,0.04c0,0-4.57-14.72-11.32-38.89c-1.07-3.82-2.97-5.68-3.44-9.24
			c-0.62-4.69-1.12-6.31-1.72-9.43c-0.28-1.47-2.49-6.9-3.83-9.34c-1.08-1.97-1.83-4.83-2.91-6.45c-0.34-0.52-0.74-1-1.09-1.48
			c-1.55-2.1-3.66-3.7-6.1-4.63c-2.19-0.84-5.48-1.3-8.87-1.62c-8.82-0.84-9.12-4.05-10.06-8.93c-0.12-0.62-0.18-1.18-0.17-1.66
			L64.7,55.56c0,0,1.36,7.75-7.54,10.76c-0.69,0.23-1.41,0.39-2.14,0.44c-4.23,0.28-15.21-0.75-18.89,12.3
			c-0.34,1.22-0.75,2.42-1.34,3.54c-1.16,2.21-3.13,7.17-3.09,15.39c0.02,4.68-1.9,6.45-3.1,11.8c-1.91,8.55-2.01,5.75-4.29,13.55
			c-0.89,3.05-7.72,27.4-10.33,30.01c-2.33,2.33-2.57,4.35-4.37,8.93c-0.47,1.18-0.83,0.96-0.78,9.22c0.02,3.18,2.73,5.75,5.57,7.2
			c2.39,1.22,5.21,2.4,6.75,2.15c0,0-7.37-9.5-6.43-15c0,0,4.18-2.25,4.63,4.62c0.05,0.76,1.46,0.25,1.55-0.51
			c0.24-1.91,0.57-4.92,0.62-7.25c0.05-2.13-1.47-6.12-0.54-8.03c2.35-4.79,8.16-13.79,10-16.67c2.43-5.96,5.8-11.49,9.98-16.39
			l1.86-2.17c1.12-1.31,1.91-2.89,2.23-4.59c0.24-1.28,0.38-2.6,0.59-3.66l1.81-9.22l3.2,24.86l46.83,0.36l2.21-26.97l0.52,1.26
			c1.8,4.35,2.27,4.63,3.09,9.27c0,0,1.77,8.21,2.99,9.43c2.15,2.17,3.98,4.62,5.43,7.28c0.08,0.14,0.16,0.29,0.24,0.43
			c1.05,1.87,2.31,3.62,3.75,5.21c0.89,0.99,2.08,2.4,3.28,4.07c1.51,2.12,4.26,8.85,5.57,10.87c0.22,0.34,2.11,2.21,2.6,2.96
			c0.86,1.35,1.13,2.91,1.13,4.46c0,3.25-0.49,1.59-0.68,10.86c0,0,0.18,4.52,1.43,4.52c0,0,0.86,0.22,0.79-1.86
			c-0.02-0.55,0.08-1.1,0.29-1.61c0.43-1.07,1.37-2.46,3.25-1.83c0.49,0.16,0.84,0.63,0.85,1.14c0.02,1.28-0.51,4.31-3.92,11.03
			l-1.86,2.29c-0.22,0.27,0.03,0.66,0.36,0.56c2.78-0.78,8.52-1.83,10.83-7.71c0.32-0.81,0.47-1.68,0.49-2.55
			C140.13,168.37,140.1,164.48,139.27,162.27z"/>
		<g id="XMLID_294_" style="clip-path:url(#XMLID_2_);">
			<path id="XMLID_296_" class="st0" d="M50.9,125.6c0,0-3.07,9.43-5.76,23.07c-2.75,13.97-5.09,32.35-3.32,49.55
				c0,0,2.53,13.5,6.52,17c0,0,1.52,8.41,0.33,11.01c-0.33,0.72-0.59,1.47-0.57,2.27c0.03,0.96,0.26,2.29,1.03,3.97
				c0,0-6.45,24.25,0,47.75c0,0,1.2,8.5,1.45,10.75c0,0-2,2.5,0,4.75c0,0-11.25,11.75-14,14.5c0,0-3,6.22,4.75,6.22
				c0,0,11.6,0.03,12.25-4.82c0.11-0.78,0.21-1.55,0.49-2.28c0.82-2.19,2.49-6.26,3.76-6.63c0,0,3-3.25,0-6.25
				c0,0,0.65-1.77,0.76-3.84c0.25-4.71,0.8-9.39,1.99-13.94c2.08-7.95,4.54-18.31,4.24-21.97c-0.5-6.25,0-19.5-2.25-25.25
				c0,0,2.3-0.75,2.27-13.25c0,0,8.36-45.81,5.36-50.31v-42.16L50.9,125.6z"/>
			<path id="XMLID_295_" class="st0" d="M109.61,310.22c-2.75-2.75-14-14.5-14-14.5c2-2.25,0-4.75,0-4.75
				c0.25-2.25,1.45-10.75,1.45-10.75c6.4-34.5,0-47.75,0-47.75c0.26-0.56,0.48-1.1,0.67-1.61c0.75-1.99,0.93-4.13,0.69-6.25
				c-0.37-3.25,1.54-9.89,1.54-9.89c3.98-3.5,6.63-20.74,6.63-20.74c3.5-34-8.99-68.37-8.99-68.37H78.29l-4.09,44.26
				c-0.12,1.25-0.37,2.47-0.62,3.7c-1.55,7.77,7.75,44.65,7.75,44.65c-0.02,12.5,2.27,13.25,2.27,13.25
				c-2.25,5.75-1.75,19-2.25,25.25c-0.36,4.49,3.41,19.03,5.56,26.87c0.71,2.57,0.84,5.24,0.68,7.9c-0.15,2.51,0.76,4.98,0.76,4.98
				c-3,3,0,6.25,0,6.25c1.27,0.36,2.94,4.44,3.76,6.63c0.27,0.73,0.38,1.5,0.49,2.28c0.66,4.84,12.25,4.82,12.25,4.82
				C112.61,316.44,109.61,310.22,109.61,310.22z"/>
		</g>
		<rect id="XMLID_293_" x="66.37" y="124.11" style="clip-path:url(#XMLID_2_);fill:#F0EAD6;" width="14.33" height="47.33"/>
		<path id="XMLID_292_" style="clip-path:url(#XMLID_2_);fill:#D8D03E;" d="M27.72,105.7c-0.48,1.29,1.01,2.74,0.6,4.64
			c-1.86,8.56-3.41,5.65-5.63,13.47c-0.61,2.16-4.41,14.83-7.33,23.09c3.75,2.16,8.78,2.65,8.78,2.65l1,0
			c2.54-4.34,4.53-9.05,5.75-10.99c2.39-5.98,5.72-11.53,9.87-16.45l1.85-2.19c1.11-1.32,2.89-2.9,3.2-4.6
			c0.23-1.28,0.36-2.6,0.56-3.66l0.79-3.09C44.45,109.39,31.82,107.3,27.72,105.7z"/>
		<path id="XMLID_291_" style="clip-path:url(#XMLID_2_);fill:#D8D03E;" d="M63.79,58.02c0,0,14.19,1.51,19.34,0
			c0,0,1.03,3.32,4.89,4.46l-1.24,7.01c0,0,5.7,19.64,13.04,30.82l-1.84,22.46c-0.16,1.93,1.31,4.73,1.68,6.63l1.75,3.25
			c3.41,9.03,3.67,17.63,4.5,27.25l2.24,14.34H40.79c0,0,0.67-12.32,3.05-24.6c1.55-8.02,2.64-14.37,4.08-21.92
			c0.2-1.08,1.27-5.2,0.75-6.8c-0.45-1.36,0.93-3.12,0.18-6.01c-0.46-1.77-0.73-3.58-0.84-5.4l-0.85-8.26l14.51-32.08l-0.71-4.61
			C60.96,64.55,63.77,60.48,63.79,58.02z"/>
		<path id="XMLID_290_" style="clip-path:url(#XMLID_2_);fill:#D8D03E;" d="M98.24,105.7l7.75-1.42c2.79-0.59,5.53-1.42,8.17-2.49
			l9.2-3.72l12,46.33v0c-4.1,3.33-9.21,5.15-14.49,5.15h-0.17L98.24,105.7z"/>
		<path id="XMLID_289_" style="clip-path:url(#XMLID_2_);fill:#D8D03E;" d="M41.63,272.57c0,0,18.58,5,24.74,1.5l7.04-76.5
			c0,0-4.08,0.15-8.15,0.2c-4.28,0.06-4.28,0.06-12.66-1.74c-5.28-1.13-12.89-3.33-14.83-1.72L41.63,272.57z"/>
		<path id="XMLID_288_" style="clip-path:url(#XMLID_2_);fill:#D8D03E;" d="M74.46,198.07c0,0,23.81,0.75,33.56-5l-4.5,82.24
			c0,0-18.15,3.24-22.82,0l-6.24-71.24V198.07z"/>
		<path id="XMLID_287_" style="clip-path:url(#XMLID_2_);fill:none;" d="M139.27,162.27c0,0-1.75-6.2-4.37-8.93
			c-0.97-1.01-2.05-3.56-3.01-6.32l0.08,0.04c0,0-4.57-14.72-11.32-38.89c-1.07-3.82-2.97-5.68-3.44-9.24
			c-0.62-4.69-1.12-6.31-1.72-9.43c-0.28-1.47-2.49-6.9-3.83-9.34c-1.08-1.97-1.83-4.83-2.91-6.45c-0.34-0.52-0.74-1-1.09-1.48
			c-1.55-2.1-3.66-3.7-6.1-4.63c-2.19-0.84-5.48-1.3-8.87-1.62c-8.82-0.84-9.12-4.05-10.06-8.93c-0.12-0.62-0.18-1.18-0.17-1.66
			L64.7,55.56c0,0,1.36,7.75-7.54,10.76c-0.69,0.23-1.41,0.39-2.14,0.44c-4.23,0.28-15.21-0.75-18.89,12.3
			c-0.34,1.22-0.75,2.42-1.34,3.54c-1.16,2.21-3.13,7.17-3.09,15.39c0.02,4.68-1.9,6.45-3.1,11.8c-1.91,8.55-2.01,5.75-4.29,13.55
			c-0.89,3.05-7.72,27.4-10.33,30.01c-2.33,2.33-2.57,4.35-4.37,8.93c-0.47,1.18-0.83,0.96-0.78,9.22c0.02,3.18,2.73,5.75,5.57,7.2
			c2.39,1.22,5.21,2.4,6.75,2.15c0,0-7.37-9.5-6.43-15c0,0,4.18-2.25,4.63,4.62c0.05,0.76,1.46,0.25,1.55-0.51
			c0.24-1.91,0.57-4.92,0.62-7.25c0.05-2.13-1.47-6.12-0.54-8.03c2.35-4.79,8.16-13.79,10-16.67c2.43-5.96,5.8-11.49,9.98-16.39
			l1.86-2.17c1.12-1.31,1.91-2.89,2.23-4.59c0.24-1.28,0.38-2.6,0.59-3.66l1.81-9.22l3.16,24.56c-0.83,2.69-3.27,11.01-5.46,22.13
			c-2.75,13.97-5.09,32.35-3.32,49.55c0,0,2.53,13.5,6.52,17c0,0,1.52,8.41,0.33,11.01c-0.33,0.72-0.59,1.47-0.57,2.27
			c0.03,0.96,0.26,2.29,1.03,3.97c0,0-6.45,24.25,0,47.75c0,0,1.2,8.5,1.45,10.75c0,0-2,2.5,0,4.75c0,0-11.25,11.75-14,14.5
			c0,0-3,6.22,4.75,6.22c0,0,11.6,0.03,12.25-4.82c0.11-0.78,0.21-1.55,0.49-2.28c0.82-2.19,2.49-6.26,3.76-6.63c0,0,3-3.25,0-6.25
			c0,0,0.65-1.77,0.76-3.84c0.25-4.71,0.8-9.39,1.99-13.94c2.08-7.95,4.54-18.31,4.24-21.97c-0.5-6.25,0-19.5-2.25-25.25
			c0,0,2.3-0.75,2.27-13.25c0,0,6.37-34.92,5.99-46.78h3.14c-0.12,0.71-0.26,1.42-0.4,2.12c-1.55,7.77,7.75,44.65,7.75,44.65
			c-0.02,12.5,2.27,13.25,2.27,13.25c-2.25,5.75-1.75,19-2.25,25.25c-0.36,4.49,3.41,19.03,5.56,26.87c0.71,2.57,0.84,5.24,0.68,7.9
			c-0.15,2.51,0.76,4.98,0.76,4.98c-3,3,0,6.25,0,6.25c1.27,0.36,2.94,4.44,3.76,6.63c0.27,0.73,0.38,1.5,0.49,2.28
			c0.66,4.84,12.25,4.82,12.25,4.82c7.75,0,4.75-6.22,4.75-6.22c-2.75-2.75-14-14.5-14-14.5c2-2.25,0-4.75,0-4.75
			c0.25-2.25,1.45-10.75,1.45-10.75c6.4-34.5,0-47.75,0-47.75c0.26-0.56,0.48-1.1,0.67-1.61c0.75-1.99,0.93-4.13,0.69-6.25
			c-0.37-3.25,1.54-9.89,1.54-9.89c3.98-3.5,6.63-20.74,6.63-20.74c3.5-34-8.99-68.37-8.99-68.37h0l2.08-25.37l0.52,1.26
			c1.8,4.35,2.27,4.63,3.09,9.27c0,0,1.77,8.21,2.99,9.43c2.15,2.17,3.98,4.62,5.43,7.28c0.08,0.14,0.16,0.29,0.24,0.43
			c1.05,1.87,2.31,3.62,3.75,5.21c0.89,0.99,2.08,2.4,3.28,4.07c1.51,2.12,4.26,8.85,5.57,10.87c0.22,0.34,2.11,2.21,2.6,2.96
			c0.86,1.35,1.13,2.91,1.13,4.46c0,3.25-0.49,1.59-0.68,10.86c0,0,0.18,4.52,1.43,4.52c0,0,0.86,0.22,0.79-1.86
			c-0.02-0.55,0.08-1.1,0.29-1.61c0.43-1.07,1.37-2.46,3.25-1.83c0.49,0.16,0.84,0.63,0.85,1.14c0.02,1.28-0.51,4.31-3.92,11.03
			l-1.86,2.29c-0.22,0.27,0.03,0.66,0.36,0.56c2.78-0.78,8.52-1.83,10.83-7.71c0.32-0.81,0.47-1.68,0.49-2.55
			C140.13,168.37,140.1,164.48,139.27,162.27z"/>
		<rect id="XMLID_286_" x="69.52" y="170.24" style="clip-path:url(#XMLID_2_);fill:#D8D03E;" width="7.33" height="4.01"/>
		<path id="XMLID_285_" class="st3" d="M103.57,278.74H41.43v-10.27l6.43,1.39c3.47,0.75,11.14,1.03,14.69,0.97l20.4-0.34
			c1.68,0.07,12.51-0.01,17.44-1.01l3.19-1.02V278.74z"/>
		<path id="XMLID_284_" style="clip-path:url(#XMLID_2_);fill:#EE4036;" d="M101.57,276.32l-5.26,0.45
			c-3.34,0.37-6.71,0.49-10.07,0.39l-31.29,0.42c-0.58,0-1.16-0.03-1.74-0.09l-7.63-0.82v-4.33l1.72,0.28
			c4.18,0.67,8.41,0.95,12.64,0.83l27.14,0.14c3.44,0.02,6.88-0.23,10.28-0.74l3.47-0.52L101.57,276.32z"/>
		<path id="XMLID_276_" style="clip-path:url(#XMLID_2_);fill:#FFF9CD;" d="M100.38,275.66l-5.03,0.52
			c-3.07,0.32-6.15,0.47-9.24,0.45l-30.97-0.16c-0.71,0.01-1.42-0.02-2.13-0.1l-6.09-0.71v-1.33l4.64,0.41
			c1.63,0.14,3.27,0.2,4.91,0.18l29.24,0.48c3.57,0.06,7.13-0.13,10.67-0.57l3.99-0.5V275.66z"/>
		<path id="XMLID_275_" class="st3" d="M142.71,102.65l-40.94,9.37l-1.85-8.53l1.29,0.45c1.79,0.63,3.74,0.7,5.57,0.2
			c9.51-2.6,9.86-4.08,11.13-4.17c0.85-0.06,1.71-0.12,2.53-0.35l11.1-3.1c1.14-0.18,2.25-0.53,3.29-1.06l5.7-2.85L142.71,102.65z"
			/>
		<path id="XMLID_274_" style="clip-path:url(#XMLID_2_);fill:#EE4036;" d="M140.86,100.58l-3.43,1.2
			c-2.16,0.84-4.39,1.46-6.67,1.84l-20.88,4.95c-0.39,0.08-0.79,0.14-1.19,0.16l-6.34,0.7l-1.29-4.11l2.75,0.08
			c2.94,0.05,10.49-1.88,13.29-2.6l13.44-2.8c2.31-0.48,4.56-1.22,6.73-2.21l2.21-1.01L140.86,100.58z"/>
		<path id="XMLID_273_" style="clip-path:url(#XMLID_2_);fill:#FFF9CD;" d="M140.71,99.93l-3.55,1.3c-2.16,0.79-4.37,1.43-6.62,1.9
			l-22.54,4.72c-0.51,0.12-1.04,0.2-1.57,0.23l-4.58,0.27l-0.28-1.3l3.46-0.33c1.22-0.12,2.42-0.32,3.61-0.59l21.35-4.14
			c2.6-0.5,5.15-1.25,7.63-2.24l2.8-1.11L140.71,99.93z"/>
		<path id="XMLID_272_" class="st3" d="M113.54,138.96l38.54-16.69l3.97,9.47l-3.86,0.63c-2.48,0.23-7.44,2-9.66,3l-16.9,7.57
			c-1.09,0.38-2.11,0.94-3.05,1.64l-5.08,3.85L113.54,138.96z"/>
		<path id="XMLID_271_" style="clip-path:url(#XMLID_2_);fill:#EE4036;" d="M115.74,140.66l3.15-1.81c1.97-1.22,4.05-2.24,6.22-3.03
			l19.62-8.68c0.37-0.15,0.75-0.28,1.14-0.38l5.64-2.71l2,5.38l-2.02,0.26c-2.9,0.49-5.68,1.35-8.31,2.58l-17.21,7.06
			c-2.18,0.9-4.26,2.03-6.22,3.41l-1.99,1.4L115.74,140.66z"/>
		<path id="XMLID_270_" style="clip-path:url(#XMLID_2_);fill:#FFF9CD;" d="M115.99,141.27l3.25-1.93c1.98-1.18,4.04-2.2,6.16-3.08
			l21.29-8.76c0.48-0.22,0.98-0.39,1.5-0.52l4.45-1.1l0.52,1.23l-3.34,0.96c-1.18,0.34-2.32,0.75-3.44,1.24l-20.23,7.97
			c-2.47,0.97-4.84,2.17-7.09,3.6l-2.55,1.61L115.99,141.27z"/>
		<path id="XMLID_269_" class="st3" d="M32.93,167.11h79.14v10.27l-8.18-1.39c-4.41-0.75-14.19-1.03-18.7-0.97l-34.39,0.44
			c-2.14-0.07-4.29,0.05-6.4,0.34l-11.47,1.58V167.11z"/>
		<path id="XMLID_268_" style="clip-path:url(#XMLID_2_);fill:#EE4036;" d="M35.47,169.53l6.7-0.45c4.26-0.37,8.54-0.49,12.83-0.39
			l39.85-0.42c0.74,0,1.48,0.03,2.22,0.09l9.72,0.82v4.33l-2.19-0.28c-5.32-0.67-10.71-0.95-16.1-0.83l-34.56-0.14
			c-4.38-0.02-8.76,0.23-13.1,0.74l-4.42,0.52L35.47,169.53z"/>
		<path id="XMLID_267_" style="clip-path:url(#XMLID_2_);fill:#FFF9CD;" d="M36.99,170.19l6.41-0.52c3.91-0.32,7.84-0.47,11.77-0.45
			l39.44,0.16c0.91-0.01,1.81,0.02,2.71,0.1l9.38,0.97l0.09,1.34l-7.63-0.68c-2.08-0.14-4.17-0.2-6.26-0.18l-37.24-0.48
			c-4.54-0.06-9.08,0.13-13.59,0.57l-5.09,0.5V170.19z"/>
		<path id="XMLID_266_" class="st3" d="M44.2,111.85h57.6v10.27l-5.96-1.39c-3.21-0.75-10.33-1.03-13.61-0.97L57.2,120.2
			c-1.56-0.07-3.12,0.05-4.66,0.34l-8.35,1.58V111.85z"/>
		<path id="XMLID_265_" style="clip-path:url(#XMLID_2_);fill:#EE4036;" d="M46.05,114.27l4.88-0.45c3.1-0.37,6.22-0.49,9.33-0.39
			l29-0.42c0.54,0,1.08,0.03,1.62,0.09l7.82,0.92l0.6,4.42l-2.94-0.46c-3.87-0.67-7.79-0.95-11.71-0.83l-25.15-0.14
			c-3.19-0.02-6.38,0.23-9.53,0.74l-3.22,0.52L46.05,114.27z"/>
		<path id="XMLID_264_" style="clip-path:url(#XMLID_2_);fill:#FFF9CD;" d="M47.16,114.93l4.67-0.52c2.84-0.32,5.7-0.47,8.57-0.45
			l28.7,0.16c0.66-0.01,1.32,0.02,1.97,0.1l7.34,0.55l0.03,1.49l-0.25,0.02c-1.77,0.16-3.54,0.05-5.29-0.23
			c-1.65-0.27-3.33-0.41-5-0.39c-0.02,0-0.03,0-0.05,0l-27.1-0.48c-3.3-0.06-6.61,0.13-9.88,0.57l-3.71,0.5V114.93z"/>
		<g id="XMLID_260_" style="clip-path:url(#XMLID_2_);">
			<defs>
				<path id="XMLID_261_" d="M65.86,108.27l17.84,0.08c3.97,0.02,11.15-0.76,15.57-1.29l0.56-6.86c-0.62-0.94-1.23-1.95-1.82-3
					l-3.93,0.69c-1.66,0.29-3.34,0.4-5.02,0.34l-27,0.44c-3.63,0.06-8.82-0.33-13.36-0.94l-1.53,3.39l0.67,6.48
					C53.81,108.31,59.84,108.54,65.86,108.27z"/>
			</defs>
			<use xlink:href="#XMLID_261_"  style="overflow:visible;fill:#FFF9CD;"/>
			<clipPath id="XMLID_3_">
				<use xlink:href="#XMLID_261_"  style="overflow:visible;"/>
			</clipPath>
			<path id="XMLID_263_" class="st10" d="M65.86,108.27l17.84,0.08c3.97,0.02,11.15-0.76,15.57-1.29l0.56-6.86
				c-0.62-0.94-1.23-1.95-1.82-3l-3.93,0.69c-1.66,0.29-3.34,0.4-5.02,0.34l-27,0.44c-3.63,0.06-8.82-0.33-13.36-0.94l-1.53,3.39
				l0.67,6.48C53.81,108.31,59.84,108.54,65.86,108.27z"/>
			
				<polyline id="XMLID_262_" style="clip-path:url(#XMLID_3_);fill:none;stroke:#EE4036;stroke-width:1.5;stroke-miterlimit:10;" points="
				47.44,99.55 49.85,103.84 55.01,101.01 57.97,103.97 61.63,101.4 65.03,104.78 68.84,101.8 72.52,105.09 75.74,102.09 
				79.52,105.09 82.93,102.31 86.51,105.09 89.91,101.59 94.85,104.51 99.32,98.62 			"/>
		</g>
		<rect id="XMLID_259_" x="28.57" y="235.75" class="st3" width="83.5" height="19.14"/>
		<path id="XMLID_258_" style="clip-path:url(#XMLID_2_);fill:#FFF9CD;" d="M103.08,262.93l-1.44,0.25
			c-5.92,1.04-11.93,1.55-17.94,1.52l-17.84-0.08c-7.62,0.35-15.25-0.1-22.77-1.34l-2.15-0.36v-10.27l2.39,0.52
			c5.09,1.1,13.53,1.6,18.73,1.51l26.99-0.11c1.68,0.07,3.37-0.05,5.02-0.34l9.01-1.58V262.93z"/>
		<path id="XMLID_257_" class="st3" d="M113.22,235.75H34.08v-10.27l8.18,1.39c4.41,0.75,14.19,1.03,18.7,0.97l34.39-0.44
			c2.14,0.07,4.29-0.05,6.4-0.34l11.47-1.58V235.75z"/>
		<path id="XMLID_256_" style="clip-path:url(#XMLID_2_);fill:#EE4036;" d="M110.67,233.33l-6.7,0.45
			c-4.26,0.37-8.54,0.49-12.83,0.39l-39.85,0.42c-0.74,0-1.48-0.03-2.22-0.09l-9.72-0.82v-4.33l2.19,0.28
			c5.32,0.67,10.71,0.95,16.1,0.83l34.56,0.15c4.38,0.02,8.76-0.23,13.1-0.74l4.42-0.52L110.67,233.33z"/>
		<path id="XMLID_255_" style="clip-path:url(#XMLID_2_);fill:#FFF9CD;" d="M109.15,232.67l-6.41,0.52
			c-3.91,0.32-7.84,0.47-11.77,0.45l-39.44-0.16c-0.91,0.01-1.81-0.02-2.71-0.1l-7.76-0.71v-1.33l5.91,0.41
			c2.08,0.14,4.17,0.2,6.26,0.18l37.24,0.48c4.54,0.06,9.08-0.13,13.59-0.57l5.09-0.5V232.67z"/>
		<path id="XMLID_254_" style="clip-path:url(#XMLID_2_);fill:#FFF9CD;" d="M109.15,237.08l-3.99,1.41
			c-3.91,0.32-9.98,0.68-13.91,0.67l-39.51,0c-0.91,0.01-6.1-0.92-7-1l-3.67-1.07v-1.33l2.53,0.17c1.96,0.14,6.95,1.85,12,1.53
			c0.88-0.06,22.05,0.13,29.81,0c1.46-0.02,5.58-0.56,7.04-0.47c4.94,0.31,4.94,0.31,11.62-0.73l5.09-0.5V237.08z"/>
		
			<polyline id="XMLID_253_" style="clip-path:url(#XMLID_2_);fill:none;stroke:#EE4036;stroke-width:1.5;stroke-miterlimit:10;" points="
			40.39,258.71 46.07,256.24 49.82,260.24 54.99,257.41 57.94,260.36 61.61,257.79 65.01,261.18 68.81,258.19 72.5,261.49 
			75.71,258.49 79.49,261.49 82.9,258.71 86.49,261.49 89.88,257.99 94.82,260.91 98.15,257.49 103.57,259.99 		"/>
		<path id="XMLID_252_" style="clip-path:url(#XMLID_2_);fill:#EE4036;" d="M108.19,250.24l-9.87,0.85
			c-2.72,0.23-5.44,0.35-8.17,0.35l-34.26-0.01c-1.87,0.04-3.75,0-5.61-0.14l-14.44-1.05v-9.25l10.1,1.18
			c4.64,0.54,9.32,0.73,13.99,0.56l27.13,0.21c4.01,0.03,8.02-0.22,11.99-0.74l9.15-1.21V250.24z"/>
		<path id="XMLID_251_" style="clip-path:url(#XMLID_2_);fill:#D8D03E;" d="M110.67,247.49l-19.34,1.35
			c-0.28,0.02-0.57,0.03-0.85,0.03l-36.07-0.01c-1.39,0.03-2.79-0.01-4.18-0.12l-15.12-1.24v-2.17l17.07,0.83
			c0.87,0.04,1.73,0.06,2.6,0.04l34.26,0.44c0.96,0.01,1.92-0.01,2.88-0.08l18.75-1.24V247.49z"/>
		<polygon id="XMLID_250_" class="st3" points="156.94,114.97 104.75,127.46 99.8,112.22 151.99,99.73 		"/>
		<path id="XMLID_249_" style="clip-path:url(#XMLID_2_);fill:#FFF9CD;" d="M146.17,101.76l-2.23,1.8c-2.46,0.88-6.33,2.13-8.9,2.73
			l-25.79,6.16c-0.59,0.15-4.23,0.18-4.84,0.25l-2.69-0.33l-0.36-1.12l1.7-0.25c1.32-0.19,5.04,0.47,8.25-0.59
			c0.56-0.18,14.43-3.33,19.46-4.65c0.95-0.25,3.49-1.34,4.47-1.5c3.31-0.51,3.31-0.51,7.39-2.43l3.19-1.21L146.17,101.76z"/>
		<path id="XMLID_248_" style="clip-path:url(#XMLID_2_);fill:#EE4036;" d="M154.39,109.85l-6.89,2.36
			c-1.89,0.65-3.82,1.22-5.77,1.72l-24.55,6.25c-1.33,0.37-2.69,0.68-4.05,0.93l-10.57,1.95l-2.04-6.06l7.5-1.07
			c3.45-0.49,6.84-1.22,10.15-2.19l19.48-4.82c2.88-0.71,5.69-1.61,8.43-2.68l6.29-2.46L154.39,109.85z"/>
		<path id="XMLID_247_" style="clip-path:url(#XMLID_2_);fill:#D8D03E;" d="M154.24,108.9l-13.07,4.39
			c-0.19,0.06-0.39,0.12-0.58,0.17l-25.07,6.06c-0.96,0.26-1.94,0.46-2.94,0.6l-10.85,1.5l-0.59-1.82l12.09-2.18
			c0.61-0.11,1.22-0.24,1.82-0.4l23.93-5.4c0.67-0.15,1.33-0.33,1.98-0.55l12.69-4.2L154.24,108.9z"/>
		<polygon id="XMLID_246_" class="st3" points="116.86,213.66 62.07,214.61 33.36,213.66 33.36,200.98 116.86,200.98 		"/>
		<path id="XMLID_245_" style="clip-path:url(#XMLID_2_);fill:#FFF9CD;" d="M111.95,202.86l-6.41,0.35
			c-3.91,0.21-7.54,1.13-11.46,1.12H54.24c-0.91,0.01-3.1,0.05-4,0l-11-1.33l2.5-0.95l0.69,0.16c2.15,0.51,4.33,0.85,6.53,1.02
			c1.64,0.13,3.38,0.26,3.94,0.27c1.04,0.02,4.79-0.33,5.83-0.33l29.33,0.33c4.54,0.04,14.28-0.89,18.79-1.18l5.09-0.33V202.86z"/>
		<path id="XMLID_244_" style="clip-path:url(#XMLID_2_);fill:#EE4036;" d="M112.98,210.57l-9.87,0.56
			c-2.72,0.16-5.45,0.23-8.18,0.23l-34.26-0.01c-1.87,0.03-3.75,0-5.61-0.09l-14.44-0.69v-6.13l2.63,0.46
			c5.26,0.92,10.62,1.25,15.95,0.95c1.93-0.11,3.81-0.22,5.51-0.26l24.97,1.11c1.66,0.07,3.33,0,4.98-0.22
			c4.42-0.59,5.78-0.95,9.17-1.25l9.15-0.8V210.57z"/>
		<path id="XMLID_243_" style="clip-path:url(#XMLID_2_);fill:#D8D03E;" d="M115.46,208.75l-19.34,0.89
			c-0.28,0.01-0.57,0.02-0.85,0.02l-36.07-0.01c-1.39,0.02-2.79,0-4.18-0.08l-15.12-0.82v-1.44l17.07,0.55
			c0.87,0.03,1.73,0.04,2.6,0.03l34.26,0.29c0.96,0.01,1.92-0.01,2.88-0.05l18.75-0.82V208.75z"/>
		<polygon id="XMLID_242_" class="st3" points="35.94,140.1 87.33,139.15 114.26,140.1 114.26,152.78 35.94,154.84 		"/>
		<path id="XMLID_241_" style="clip-path:url(#XMLID_2_);fill:#FFF9CD;" d="M40.23,141.63l5.32-1.12c3.85-0.22,7.62-0.35,11.45-0.34
			h37.36c0.85-0.01,2.91-0.05,3.75,0l10.32,1.33l-2.34,0.95l-0.65-0.16c-2.01-0.51,0.64-0.16-1.43-0.33
			c-1.54-0.13-7.09-0.25-7.62-0.26c-0.98-0.02-5.27-0.37-6.25-0.36l-27.5,0.48c-4.26-0.04-13.41,0.08-17.64,0.37l-4.77,0.33V141.63z
			"/>
		<path id="XMLID_240_" style="clip-path:url(#XMLID_2_);fill:#EE4036;" d="M39.58,144.19l9.25-0.56c2.55-0.16,5.11-0.23,7.67-0.23
			l32.14,0.01c1.76-0.03,3.51,0,5.27,0.09l13.54,0.69v6.13l-2.47-0.46c-4.94-0.92-9.96-1.25-14.96-0.95
			c-1.81,0.11-3.57,0.22-5.17,0.26l-23.42-1.11c-1.56-0.07-3.13,0-4.67,0.22c-4.15,0.59-5.42,0.95-8.6,1.25l-8.58,0.8V144.19z"/>
		<path id="XMLID_239_" style="clip-path:url(#XMLID_2_);fill:#D8D03E;" d="M37.25,146.01l18.15-0.89c0.27-0.01,0.53-0.02,0.8-0.02
			l33.83,0.01c1.31-0.02,2.62,0,3.92,0.08l14.18,0.82v1.44l-16.01-0.55c-0.81-0.03-1.63-0.04-2.44-0.03l-32.14-0.29
			c-0.9-0.01-1.8,0.01-2.7,0.05l-17.59,0.82V146.01z"/>
		<path id="XMLID_238_" class="st3" d="M114.26,202.04H35.11v-10.27l8.18,1.39c4.41,0.75,14.19,1.03,18.7,0.97l34.39-0.44
			c2.14,0.07,4.29-0.05,6.4-0.34l11.47-1.58V202.04z"/>
		<path id="XMLID_237_" style="clip-path:url(#XMLID_2_);fill:#EE4036;" d="M111.71,199.62l-6.7,0.45
			c-4.26,0.37-8.54,0.49-12.83,0.39l-39.85,0.42c-0.74,0-1.48-0.03-2.22-0.09l-9.72-0.82v-4.33l2.19,0.28
			c5.32,0.67,10.71,0.95,16.1,0.83l34.56,0.14c4.38,0.02,8.76-0.23,13.1-0.74l4.42-0.52L111.71,199.62z"/>
		<path id="XMLID_236_" style="clip-path:url(#XMLID_2_);fill:#FFF9CD;" d="M110.19,198.96l-6.41,0.52
			c-3.91,0.32-7.84,0.47-11.77,0.45l-39.44-0.16c-0.91,0.01-1.81-0.02-2.71-0.1l-10.3-0.84l0.82-1.17l7.63,0.38
			c2.08,0.14,4.17,0.2,6.26,0.18l37.24,0.48c4.54,0.06,9.08-0.13,13.59-0.57l5.09-0.5V198.96z"/>
		<path id="XMLID_235_" style="clip-path:url(#XMLID_2_);fill:#FFF9CD;" d="M104.67,221.75l-1.44,0.25
			c-5.92,1.04-11.93,1.55-17.94,1.52l-17.84-0.08c-7.62,0.35-15.25-0.1-22.77-1.34l-2.15-0.36v-10.27l2.39,0.52
			c5.09,1.1,13.52,1.93,18.73,1.85l27-0.44c1.68,0.07,3.37-0.05,5.02-0.34l9.01-1.58V221.75z"/>
		
			<polyline id="XMLID_234_" style="clip-path:url(#XMLID_2_);fill:none;stroke:#EE4036;stroke-width:1.5;stroke-miterlimit:10;" points="
			41.98,217.52 46.44,215.58 51.41,219.06 56.57,216.22 59.53,219.18 63.2,216.61 66.6,219.99 70.4,217.01 74.09,220.31 77.3,217.3 
			81.08,220.31 84.49,217.52 88.07,220.31 91.47,216.81 96.41,219.72 100.83,216.81 105.16,218.81 		"/>
		<path id="XMLID_233_" style="clip-path:url(#XMLID_2_);fill:none;" d="M139.28,162.27c0,0-1.75-6.2-4.37-8.93
			c-0.97-1.01-2.05-3.56-3.01-6.32l0.08,0.04c0,0-4.57-14.72-11.32-38.89c-1.07-3.82-2.97-5.68-3.44-9.24
			c-0.08-0.59-0.15-1.13-0.23-1.62c-0.07-0.5-0.15-0.96-0.22-1.39c-0.43-2.58-0.83-4.07-1.28-6.42c-0.12-0.64-0.62-2.04-1.24-3.62
			c-0.27-0.68-0.56-1.38-0.86-2.08c-0.2-0.46-0.4-0.92-0.6-1.36c-0.4-0.88-0.79-1.67-1.13-2.28c-1.08-1.97-1.83-4.83-2.91-6.45
			c-0.34-0.52-0.74-1-1.09-1.48c-1.55-2.1-3.66-3.7-6.1-4.63c-2.19-0.84-5.48-1.3-8.87-1.62c-8.82-0.84-9.12-4.05-10.06-8.93
			c-0.12-0.62-0.18-1.18-0.17-1.66L64.7,55.56c0,0,1.36,7.75-7.54,10.76c-0.69,0.23-1.41,0.39-2.14,0.44
			c-4.23,0.28-15.21-0.75-18.89,12.3c-0.34,1.22-0.75,2.42-1.34,3.54c-1.16,2.21-3.13,7.17-3.09,15.39c0.02,4.68-1.9,6.45-3.1,11.8
			c-1.91,8.55-2.01,5.75-4.29,13.55c-0.89,3.05-7.72,27.4-10.33,30.01c-2.33,2.33-2.57,4.35-4.37,8.93
			c-0.47,1.18-0.83,0.96-0.78,9.22c0.02,3.18,2.73,5.75,5.57,7.2c2.39,1.22,5.21,2.4,6.75,2.15c0,0-7.37-9.5-6.43-15
			c0,0,4.18-2.25,4.63,4.62c0.05,0.76,1.46,0.25,1.55-0.51c0.24-1.91,0.57-4.92,0.62-7.25c0.05-2.13-1.47-6.12-0.54-8.03
			c2.35-4.79,8.16-13.79,10-16.67c2.43-5.96,5.8-11.49,9.98-16.39l1.86-2.17c1.12-1.31,1.91-2.89,2.23-4.59
			c0.24-1.28,0.38-2.6,0.59-3.66l1.81-9.22l3.16,24.56c0,0,0,0,0,0c-0.01,0.04-0.03,0.09-0.04,0.13c-0.05,0.16-0.1,0.34-0.16,0.54
			c-0.02,0.08-0.05,0.16-0.07,0.24c-0.06,0.18-0.11,0.38-0.17,0.59c-0.03,0.11-0.06,0.21-0.09,0.32c-0.06,0.22-0.13,0.45-0.2,0.69
			c-0.03,0.12-0.07,0.23-0.1,0.36c-0.1,0.34-0.2,0.7-0.31,1.08c-0.01,0.03-0.02,0.06-0.03,0.09c-0.12,0.42-0.24,0.87-0.37,1.35
			c-0.03,0.11-0.06,0.23-0.09,0.35c-0.1,0.36-0.19,0.72-0.3,1.11c-0.05,0.17-0.09,0.35-0.14,0.53c-0.09,0.36-0.19,0.72-0.28,1.1
			c-0.05,0.19-0.1,0.38-0.15,0.57c-0.11,0.43-0.22,0.88-0.34,1.34c-0.04,0.14-0.07,0.28-0.11,0.42c-0.15,0.61-0.3,1.24-0.46,1.88
			c-0.03,0.13-0.06,0.27-0.09,0.4c-0.12,0.52-0.25,1.05-0.37,1.59c-0.05,0.23-0.1,0.46-0.16,0.68c-0.11,0.47-0.21,0.95-0.32,1.44
			c-0.06,0.25-0.11,0.5-0.17,0.76c-0.11,0.51-0.22,1.02-0.33,1.54c-0.05,0.24-0.1,0.47-0.15,0.7c-0.16,0.76-0.31,1.53-0.47,2.32
			c-0.69,3.49-1.35,7.26-1.93,11.22c-0.29,1.98-0.56,4-0.8,6.07c-0.12,1.03-0.23,2.07-0.34,3.12c-0.53,5.24-0.86,10.67-0.87,16.12
			c0,1.13,0.01,2.25,0.03,3.38c0.07,3.15,0.25,6.29,0.56,9.4c0.01,0.09,0.01,0.17,0.02,0.26c0,0,2.53,13.5,6.52,17
			c0,0,0.06,0.33,0.15,0.88c0.05,0.29,0.1,0.65,0.16,1.05c0.01,0.06,0.02,0.12,0.03,0.19c0.16,1.2,0.34,2.75,0.42,4.26
			c0.02,0.31,0.03,0.62,0.03,0.92c0.01,0.61,0,1.19-0.04,1.72c-0.06,0.8-0.19,1.49-0.41,1.98c-0.33,0.72-0.59,1.47-0.57,2.27
			c0.02,0.72,0.16,1.65,0.55,2.78c0.13,0.38,0.29,0.78,0.48,1.2c0,0-2.78,10.44-2.86,24.27c-0.05,7.24,0.65,15.41,2.86,23.48
			c0,0,1.2,8.5,1.45,10.75c0,0-0.95,1.18-0.89,2.65c0.03,0.67,0.26,1.4,0.89,2.1c0,0-11.25,11.75-14,14.5c0,0-0.57,1.19-0.57,2.53
			c0,1.72,0.96,3.69,5.32,3.69c0,0,11.6,0.03,12.25-4.82c0.11-0.78,0.21-1.55,0.49-2.28c0.82-2.19,2.49-6.26,3.76-6.63
			c0,0,1.42-1.54,1.33-3.47c-0.04-0.88-0.39-1.84-1.33-2.78c0,0,0.65-1.77,0.76-3.84c0.19-3.53,0.54-7.04,1.21-10.5
			c0.22-1.15,0.48-2.3,0.78-3.44c0.26-0.99,0.53-2.02,0.79-3.08c0.53-2.1,1.06-4.28,1.54-6.4c0.12-0.53,0.24-1.06,0.35-1.57
			c0.91-4.16,1.56-7.92,1.58-10.15c0-0.28-0.01-0.53-0.02-0.76c-0.5-6.25,0-19.5-2.25-25.25c0,0,2.3-0.75,2.27-13.25
			c0,0,0-0.02,0-0.03c0-0.01,0-0.01,0-0.02c0-0.02,0.01-0.04,0.02-0.08c0-0.03,0.01-0.06,0.02-0.09c0.01-0.07,0.03-0.14,0.04-0.24
			c0.02-0.1,0.04-0.2,0.06-0.33c0.01-0.05,0.02-0.1,0.03-0.15c0.03-0.16,0.06-0.34,0.1-0.54c0-0.02,0.01-0.04,0.01-0.06
			c0.04-0.2,0.07-0.42,0.12-0.65c0.01-0.07,0.02-0.13,0.04-0.2c0.05-0.27,0.1-0.56,0.15-0.87c0-0.02,0.01-0.04,0.01-0.06
			c0.06-0.34,0.12-0.69,0.19-1.07c0,0,0-0.01,0-0.01c0.06-0.37,0.13-0.75,0.2-1.16c0.01-0.03,0.01-0.06,0.02-0.09
			c0.07-0.41,0.14-0.84,0.22-1.29c0-0.02,0.01-0.05,0.01-0.07c0.07-0.44,0.15-0.9,0.23-1.36c0.01-0.05,0.02-0.1,0.02-0.15
			c0.08-0.47,0.16-0.96,0.24-1.46c0-0.03,0.01-0.05,0.01-0.08c0.17-1.04,0.35-2.14,0.53-3.28c0-0.03,0.01-0.05,0.01-0.08
			c0.09-0.56,0.18-1.13,0.27-1.71c0.01-0.03,0.01-0.07,0.02-0.1c0.28-1.79,0.57-3.67,0.85-5.58c0-0.02,0.01-0.05,0.01-0.07
			c0.09-0.62,0.18-1.25,0.27-1.87c0.01-0.04,0.01-0.07,0.02-0.11c0.28-1.93,0.55-3.87,0.79-5.79c0-0.03,0.01-0.06,0.01-0.1
			c0.08-0.62,0.16-1.24,0.24-1.86c0-0.04,0.01-0.07,0.01-0.11c0.08-0.62,0.15-1.24,0.22-1.85c0,0,0-0.01,0-0.01
			c0.15-1.24,0.28-2.46,0.4-3.63c0-0.03,0.01-0.07,0.01-0.1c0.06-0.57,0.11-1.12,0.16-1.67c0-0.04,0.01-0.08,0.01-0.12
			c0.15-1.68,0.27-3.26,0.34-4.7c0-0.03,0-0.07,0.01-0.1c0.02-0.46,0.04-0.9,0.05-1.32c0-0.04,0-0.07,0-0.11
			c0.01-0.43,0.02-0.84,0.02-1.24c0,0,0-0.01,0-0.01c0-0.41,0-0.8-0.02-1.16c0,0,0,0,0,0h3.14v0c-0.12,0.71-0.25,1.41-0.39,2.11
			c0,0,0,0.01,0,0.01c-0.34,1.7-0.16,4.79,0.33,8.59c0.07,0.54,0.15,1.1,0.23,1.67c0.25,1.71,0.54,3.52,0.87,5.4
			c0.11,0.62,0.22,1.26,0.34,1.89c0.23,1.27,0.48,2.56,0.74,3.85c0.13,0.64,0.26,1.29,0.39,1.93c0.23,1.15,0.47,2.29,0.71,3.42
			c0.06,0.27,0.11,0.54,0.17,0.8c1.98,9.24,3.97,17.11,3.97,17.11c-0.02,10.16,1.49,12.56,2.06,13.1c0.13,0.13,0.21,0.15,0.21,0.15
			c-2.25,5.75-1.75,19-2.25,25.25c-0.11,1.4,0.18,3.79,0.7,6.64c0.05,0.29,0.11,0.58,0.16,0.87c0.17,0.88,0.36,1.8,0.56,2.75
			c0.07,0.31,0.14,0.63,0.21,0.95c0.21,0.96,0.43,1.94,0.67,2.92c0.08,0.33,0.15,0.66,0.23,0.99c0.24,0.99,0.48,1.97,0.72,2.95
			c0.24,0.97,0.49,1.94,0.73,2.87c0.16,0.62,0.32,1.23,0.48,1.83c0.08,0.3,0.16,0.59,0.23,0.88c0.15,0.58,0.3,1.14,0.45,1.68
			c0.15,0.54,0.29,1.05,0.42,1.55c0.18,0.64,0.32,1.29,0.43,1.94c0.22,1.31,0.31,2.63,0.32,3.96c0,0.66-0.02,1.33-0.06,1.99
			c-0.03,0.47-0.02,0.94,0.01,1.39c0.07,1.02,0.27,1.94,0.45,2.6c0.04,0.15,0.07,0.28,0.11,0.39c0.11,0.38,0.19,0.6,0.19,0.6
			c-3,3,0,6.25,0,6.25l0,0l0,0c0.16,0.05,0.32,0.15,0.49,0.3c0.29,0.25,0.58,0.65,0.88,1.12c0.14,0.23,0.28,0.46,0.42,0.72
			c0.23,0.43,0.46,0.89,0.68,1.36c0.11,0.23,0.21,0.46,0.31,0.7c0.23,0.53,0.44,1.05,0.63,1.54c0.13,0.32,0.24,0.62,0.34,0.9
			c0.07,0.18,0.13,0.37,0.18,0.56c0.15,0.56,0.23,1.14,0.31,1.72c0.06,0.45,0.22,0.86,0.45,1.24c0.16,0.25,0.35,0.48,0.57,0.69
			c0.11,0.11,0.23,0.21,0.35,0.31c0.25,0.2,0.52,0.38,0.82,0.55c0.59,0.34,1.26,0.62,1.97,0.86c0.18,0.06,0.36,0.11,0.54,0.17
			c3.46,1.01,7.55,1,7.55,1c7.75,0,4.75-6.22,4.75-6.22c-2.75-2.75-14-14.5-14-14.5c2-2.25,0-4.75,0-4.75
			c0.25-2.25,1.45-10.75,1.45-10.75c6.4-34.5,0-47.75,0-47.75c0.26-0.56,0.48-1.1,0.67-1.61c0.19-0.5,0.34-1,0.46-1.52
			c0.24-1.03,0.34-2.08,0.33-3.14c-0.01-0.53-0.04-1.06-0.1-1.59c-0.09-0.81-0.04-1.84,0.09-2.92c0.38-3.24,1.46-6.97,1.46-6.97
			c3.98-3.5,6.63-20.74,6.63-20.74c3.5-34-8.99-68.37-8.99-68.37l0,0l2.08-25.37l0.52,1.26c1.8,4.35,2.27,4.63,3.09,9.27
			c0,0,1.77,8.21,2.99,9.43c2.15,2.17,3.98,4.62,5.43,7.28c0.08,0.14,0.16,0.29,0.24,0.43c0.52,0.94,1.1,1.84,1.73,2.71
			c0.63,0.87,1.3,1.71,2.02,2.5c0.67,0.74,1.51,1.72,2.39,2.87c0.29,0.38,0.59,0.78,0.89,1.2c0.19,0.26,0.4,0.6,0.62,0.99
			c0.33,0.59,0.7,1.29,1.08,2.06c0.51,1.02,1.04,2.15,1.55,3.24c0.9,1.91,1.75,3.69,2.32,4.58c0.22,0.34,2.11,2.21,2.6,2.96
			c0.86,1.35,1.12,2.91,1.12,4.46c0,3.25-0.49,1.59-0.68,10.86c0,0,0.18,4.52,1.43,4.52c0,0,0.86,0.22,0.79-1.86
			c-0.02-0.55,0.08-1.1,0.29-1.61c0.27-0.67,0.74-1.47,1.51-1.81c0.31-0.14,0.67-0.21,1.08-0.17c0.21,0.02,0.43,0.07,0.66,0.15
			c0.12,0.04,0.24,0.1,0.34,0.18c0.3,0.22,0.5,0.58,0.51,0.97c0.02,1.28-0.51,4.31-3.92,11.03l-1.86,2.29
			c-0.22,0.27,0.03,0.66,0.36,0.56c0.52-0.15,1.15-0.3,1.83-0.5c0.46-0.13,0.94-0.28,1.44-0.45s1.02-0.37,1.53-0.61
			c2.33-1.06,4.72-2.84,6.02-6.15c0.32-0.81,0.47-1.68,0.49-2.55C140.14,168.37,140.11,164.48,139.28,162.27z"/>
		<path id="XMLID_232_" style="clip-path:url(#XMLID_2_);fill:#FFF9CD;" d="M124.37,130.47l17.34-4.21
			c3.86-0.94,10.64-3.41,14.8-4.99l-1.1-6.8c-0.83-0.77-1.66-1.6-2.49-2.47l-3.65,1.61c-1.54,0.68-3.15,1.19-4.8,1.53l-26.11,6.91
			c-3.51,0.93-8.64,1.8-13.2,2.29l-0.68,3.66l2.2,6.13C112.67,133.4,118.59,132.18,124.37,130.47z"/>
		
			<polyline id="XMLID_231_" style="clip-path:url(#XMLID_2_);fill:none;stroke:#EE4036;stroke-width:1.5;stroke-miterlimit:10;" points="
			104.39,126.42 107.76,130.01 112.09,126.02 115.67,128.19 118.61,124.81 122.72,127.28 125.7,123.47 130.07,125.79 132.47,122.1 
			136.86,124.11 139.51,120.59 143.65,122.43 146.11,118.22 151.6,119.87 154.53,113.08 		"/>
		<path id="XMLID_230_" class="st3" d="M44.85,118.09l-39.04-15.5l3.31-8.07l0.81,1.11c1.12,1.53,2.68,2.7,4.47,3.32
			c9.31,3.25,10.43,2.23,11.53,2.88c0.74,0.43,1.47,0.87,2.28,1.15l10.9,3.74c1.04,0.5,2.15,0.83,3.31,1l4.78,0.67L44.85,118.09z"/>
		<path id="XMLID_229_" style="clip-path:url(#XMLID_2_);fill:#EE4036;" d="M45.47,115.86l-3.51-0.95
			c-2.26-0.53-4.44-1.29-6.53-2.26l-20-7.76c-0.37-0.15-0.73-0.33-1.07-0.54l-5.62-3.01L10,97.22l2.22,1.63
			c2.4,1.71,9.7,4.4,12.43,5.39l12.66,5.31c2.18,0.91,4.45,1.58,6.8,1.99l2.4,0.42L45.47,115.86z"/>
		<path id="XMLID_228_" style="clip-path:url(#XMLID_2_);fill:#FFF9CD;" d="M45.05,114.86l-3.66-0.94c-2.23-0.57-4.41-1.3-6.53-2.19
			l-21.24-8.89c-0.49-0.19-0.97-0.42-1.42-0.7l-3.92-2.38l0.51-1.23l3.04,1.69c1.07,0.59,2.17,1.11,3.31,1.56l19.93,8.69
			c2.43,1.06,4.96,1.89,7.56,2.48l2.94,0.67L45.05,114.86z"/>
		<path id="XMLID_227_" class="st3" d="M0.23,131.47l41.21,8.1l-2.09,10.05l-3.54-1.67c-2.17-1.22-7.27-2.57-9.66-3.01L7.95,141.6
			c-1.12-0.3-2.27-0.43-3.44-0.37l-6.37,0.29L0.23,131.47z"/>
		<path id="XMLID_226_" style="clip-path:url(#XMLID_2_);fill:#EE4036;" d="M1.08,134.11l3.62,0.3c2.32,0.11,4.6,0.45,6.84,1.03
			l21.09,3.97c0.39,0.08,0.77,0.19,1.15,0.34l6.18,0.97l-1.4,5.56l-1.81-0.93c-2.67-1.24-5.45-2.11-8.31-2.58l-18.18-3.94
			c-2.31-0.5-4.66-0.74-7.05-0.72l-2.43,0.02L1.08,134.11z"/>
		<path id="XMLID_225_" style="clip-path:url(#XMLID_2_);fill:#FFF9CD;" d="M0.95,134.76l3.77,0.25c2.3,0.15,4.57,0.47,6.82,0.96
			l22.51,4.86c0.52,0.1,1.03,0.24,1.53,0.43l4.29,1.62l-0.27,1.31l-3.3-1.1c-1.16-0.39-2.34-0.7-3.54-0.92l-21.19-4.9
			c-2.58-0.6-5.22-0.95-7.88-1.06l-3.01-0.12L0.95,134.76z"/>
		<polygon id="XMLID_224_" class="st3" points="43.64,134.32 -0.48,117.01 4.08,101.66 47.33,118.32 		"/>
		<path id="XMLID_223_" style="clip-path:url(#XMLID_2_);fill:#FFF9CD;" d="M48.2,119.32l-2.85,0.22c-2.53-0.68-6.42-1.84-8.88-2.8
			l-24.74-9.55c-0.57-0.21-3.59-2.25-4.13-2.54l-2.03-1.79l0.34-1.13l1.54,0.76c1.2,0.59,3.88,3.24,7.13,4.19
			c0.56,0.16,13.77,5.44,18.67,7.2c0.92,0.33,3.64,0.87,4.53,1.3c3.02,1.45,3.02,1.45,7.46,2.19l3.31,0.81L48.2,119.32z"/>
		<path id="XMLID_222_" style="clip-path:url(#XMLID_2_);fill:#EE4036;" d="M46.05,128.42l-2.68,0.27
			c-1.93-0.54-3.84-1.16-5.73-1.86l-23.77-8.77c-1.31-0.45-2.6-0.96-3.87-1.53l-9.82-4.39L1.95,106l6.78,3.37
			c3.12,1.55,6.33,2.87,9.6,3.95l18.78,7.08c2.78,1.05,5.6,1.9,8.46,2.57l2.97,0.85L46.05,128.42z"/>
		<path id="XMLID_220_" style="clip-path:url(#XMLID_2_);fill:#D8D03E;" d="M50.81,129.79l-13.26-3.8
			c-0.19-0.06-0.39-0.12-0.57-0.19l-24.09-9.22c-0.94-0.33-1.86-0.72-2.76-1.17l-9.79-4.91l0.54-1.83l11.2,5.06
			c0.57,0.26,1.14,0.49,1.73,0.7l22.77,9.12c0.64,0.26,1.28,0.48,1.94,0.67l12.83,3.74L50.81,129.79z"/>
		<path id="XMLID_219_" style="clip-path:url(#XMLID_2_);fill:#FFF9CD;" d="M13.97,130.61l17.17,5.92
			c3.71,1.42,5.99,2.95,10.31,4.01l3.81-8.19c-0.25-1.1,0.98,0.06,0.8-1.13l-2.02-0.38c-1.65-0.31-3.27-0.8-4.82-1.46l-25.42-9.11
			c-3.42-1.22-8.14-3.42-12.17-5.59l-2.63,2.63l-1.66,6.3C2.67,126.4,8.24,128.74,13.97,130.61z"/>
		
			<polyline id="XMLID_218_" style="clip-path:url(#XMLID_2_);fill:none;stroke:#EE4036;stroke-width:1.5;stroke-miterlimit:10;" points="
			-0.19,115.96 0.54,120.82 6.38,119.99 8.1,123.8 12.44,122.69 14.42,127.06 19.04,125.61 21.32,129.99 25.39,128.31 27.87,132.46 
			32.04,131.06 34.41,134.93 38.82,132.85 42.41,137.32 45.26,132.36 		"/>
		<g id="XMLID_216_" style="clip-path:url(#XMLID_2_);">
			<path id="XMLID_217_" class="st21" d="M58.09,76.89l26.34-0.43c1.39-0.02,3.02,0.02,4.75,0.12c-1.49-4.31-2.37-7.31-2.37-7.31
				l0.44-2.51c-2.21-0.03-4.42-0.01-6.63,0.09l-17.84-0.08c-0.47,0-0.94,0.02-1.42,0.03l0.3,2.36L58.09,76.89z"/>
		</g>
		<path id="XMLID_215_" class="st3" d="M34.4,132.36h76.8l2.34,10.27l-8.18-1.39c-4.41-0.75-14.19-1.03-18.7-0.97l-34.39,0.44
			c-2.14-0.07-4.29,0.05-6.4,0.34l-11.47,1.58V132.36z"/>
		<path id="XMLID_214_" style="clip-path:url(#XMLID_2_);fill:#EE4036;" d="M36.94,134.77l6.7-0.45c4.26-0.37,8.54-0.49,12.83-0.39
			l39.85-0.42c0.74,0,1.48,0.03,2.22,0.09l9.72,0.82v4.33l-2.19-0.28c-5.32-0.67-10.71-0.95-16.1-0.83l-34.56-0.14
			c-4.38-0.02-8.76,0.23-13.1,0.74l-4.42,0.52L36.94,134.77z"/>
		<path id="XMLID_213_" style="clip-path:url(#XMLID_2_);fill:#FFF9CD;" d="M38.46,135.44l6.41-0.52c3.91-0.32,7.84-0.47,11.77-0.45
			l39.44,0.16c0.91-0.01,1.81,0.02,2.71,0.1l7.76,0.71v1.33l-5.91-0.41c-2.08-0.14-4.17-0.2-6.26-0.18l-37.24-0.48
			c-4.54-0.06-9.08,0.13-13.59,0.57l-5.09,0.5V135.44z"/>
		<path id="XMLID_212_" style="clip-path:url(#XMLID_2_);fill:#FFF9CD;" d="M40.39,154.12l3.17-0.3c5.92-1.04,11.93-1.55,17.94-1.52
			l17.84,0.08c7.62-0.35,16.37-1.35,23.9-0.11l4.21,0.7l0.81,11.38l-6.39-0.52c-5.09-1.1-13.52-1.93-18.73-1.85l-27,0.44
			c-1.68-0.07-3.37,0.05-5.02,0.34l-9.01,1.58L40.39,154.12z"/>
		
			<polyline id="XMLID_211_" style="clip-path:url(#XMLID_2_);fill:none;stroke:#EE4036;stroke-width:1.5;stroke-miterlimit:10;" points="
			42.38,157.31 48.06,154.84 51.81,158.84 56.97,156 59.93,158.96 63.59,156.39 66.99,159.78 70.8,156.79 74.49,160.09 77.7,157.09 
			81.48,160.09 84.89,157.31 88.47,160.09 91.87,156.59 96.81,159.5 100.14,156.09 105.56,158.59 		"/>
		<path id="XMLID_210_" style="clip-path:url(#XMLID_2_);fill:#FFF9CD;" d="M44.2,122.12l-0.64-0.41c4.98-1.85,11.5-2.51,17.51-2.49
			h18.25c7.62-0.35,16.39-0.32,23.92,0.93l0,0l2.32,11.86l-3.68-0.3c-5.09-1.1-13.52-1.93-18.73-1.85l-27,0.44
			c-1.34-0.05-2.68,0.01-4.01,0.18c-0.68,0.09-1.36,0.13-2.03,0.07l-6.91-0.55L44.2,122.12z"/>
		
			<polyline id="XMLID_209_" style="clip-path:url(#XMLID_2_);fill:none;stroke:#EE4036;stroke-width:1.5;stroke-miterlimit:10;" points="
			42.38,125.19 48.06,122.72 51.81,126.72 56.97,123.89 59.93,126.85 63.59,124.28 66.99,127.66 70.8,124.68 74.49,127.97 
			77.7,124.97 81.48,127.97 84.89,125.19 88.47,127.97 91.87,124.47 96.81,127.39 100.14,123.97 105.56,126.47 		"/>
		
			<polyline id="XMLID_208_" style="clip-path:url(#XMLID_2_);fill:none;stroke:#EE4036;stroke-width:1.5;stroke-miterlimit:10;" points="
			87.94,72.9 84.34,74.28 80.94,70.9 77.13,73.88 73.45,70.59 70.24,73.59 66.46,70.59 63.04,73.37 60.35,72.01 		"/>
		<g id="XMLID_202_" style="clip-path:url(#XMLID_2_);">
			<defs>
				<path id="XMLID_203_" d="M63.79,57.85c0,0,14.19,1.51,19.34,0c0,0,1.03,3.32,4.89,4.46l-1.24,7.01c0,0,5.7,19.64,13.04,30.82
					l-1.84,22.46c-0.16,1.93,1.31,4.73,1.68,6.63l1.75,3.25c3.41,9.03,3.67,17.63,4.5,27.25l2.24,14.34H40.78
					c0,0,0.67-12.32,3.05-24.6c1.55-8.02,2.64-14.37,4.08-21.92c0.2-1.08,1.27-5.2,0.75-6.8c-0.45-1.36,0.93-3.12,0.18-6.01
					c-0.46-1.77-0.73-3.58-0.84-5.4l-0.85-8.26l14.51-32.08l-0.71-4.61C60.95,64.37,63.77,60.3,63.79,57.85z"/>
			</defs>
			<clipPath id="XMLID_4_">
				<use xlink:href="#XMLID_203_"  style="overflow:visible;"/>
			</clipPath>
			<rect id="XMLID_207_" x="29.73" y="78.17" class="st15" width="83.5" height="12.9"/>
			<path id="XMLID_206_" class="st17" d="M110.31,79.07l-3.99,0.95c-3.91,0.21-9.98,0.46-13.91,0.45l-39.51,0
				c-0.91,0.01-6.1-0.62-7-0.67l-3.67-0.72v-0.9l2.53,0.12c1.96,0.09,6.95,1.25,12,1.03c0.88-0.04,22.05,0.09,29.81,0
				c1.46-0.02,5.58-0.38,7.04-0.32c4.94,0.21,4.94,0.21,11.62-0.49l5.09-0.33V79.07z"/>
			<path id="XMLID_205_" class="st16" d="M109.35,87.93l-9.87,0.57c-2.72,0.16-5.44,0.24-8.17,0.24l-34.26-0.01
				c-1.87,0.03-3.75,0-5.61-0.09l-14.44-0.71V81.7l10.1,0.8c4.64,0.37,9.32,0.49,13.99,0.38l27.13,0.14
				c4.01,0.02,8.02-0.15,11.99-0.5l9.15-0.82V87.93z"/>
			<path id="XMLID_204_" class="st13" d="M111.83,86.08l-19.34,0.91c-0.28,0.01-0.57,0.02-0.85,0.02L55.57,87
				c-1.39,0.02-2.79,0-4.18-0.08l-15.12-0.84v-1.46l17.07,0.56c0.87,0.03,1.73,0.04,2.6,0.03l34.26,0.3
				c0.96,0.01,1.92-0.01,2.88-0.05l18.75-0.84V86.08z"/>
		</g>
	</g>
	<rect id="XMLID_221_" x="69.64" y="173.11" class="st26" width="5.5" height="2.03"/>
	<circle id="XMLID_1339_" class="st1" cx="73.09" cy="29.86" r="4.76"/>
	<path id="XMLID_1337_" class="st0" d="M77.08,29.86c0,1.86-2.12,3.33-3.98,3.33c-1.86,0-3.98-1.47-3.98-3.33
		c0-1.86,2.11-3.37,3.97-3.37C74.95,26.49,77.08,28,77.08,29.86z"/>
</g>
</svg>
