<?xml version="1.0" encoding="utf-8"?>
<!-- Generator: Adobe Illustrator 19.2.1, SVG Export Plug-In . SVG Version: 6.00 Build 0)  -->
<svg version="1.1" id="Layer_1" xmlns="http://www.w3.org/2000/svg" xmlns:xlink="http://www.w3.org/1999/xlink" x="0px" y="0px"
	 viewBox="0 0 148.75 325.75" style="enable-background:new 0 0 148.75 325.75;" xml:space="preserve">
<style type="text/css">
	.st0{fill:#F0EAD6;}
	.st1{fill:#EE4036;}
	.st2{fill:#BE1E2D;}
	.st3{clip-path:url(#XMLID_2_);fill:#404041;}
	.st4{clip-path:url(#XMLID_2_);fill:none;stroke:#FFFFFF;stroke-width:2;stroke-miterlimit:10;}
	.st5{clip-path:url(#XMLID_3_);fill:#F0EAD6;}
	.st6{clip-path:url(#XMLID_3_);fill:#EE4036;}
	.st7{clip-path:url(#XMLID_3_);fill:none;}
	.st8{clip-path:url(#XMLID_3_);fill:none;stroke:#404041;stroke-miterlimit:10;}
	.st9{clip-path:url(#XMLID_3_);fill:#404041;}
	.st10{clip-path:url(#XMLID_3_);fill:#FFF9CD;}
	.st11{clip-path:url(#XMLID_4_);fill:#F0EAD6;}
	.st12{clip-path:url(#XMLID_4_);}
	.st13{clip-path:url(#XMLID_4_);fill:#D8D03E;}
	.st14{clip-path:url(#XMLID_4_);fill:none;}
	.st15{clip-path:url(#XMLID_4_);fill:#404041;}
	.st16{clip-path:url(#XMLID_4_);fill:#EE4036;}
	.st17{clip-path:url(#XMLID_4_);fill:#FFF9CD;}
	.st18{clip-path:url(#XMLID_5_);fill:#FFF9CD;}
	.st19{clip-path:url(#XMLID_5_);fill:none;stroke:#EE4036;stroke-width:1.5;stroke-miterlimit:10;}
	.st20{clip-path:url(#XMLID_4_);fill:none;stroke:#EE4036;stroke-width:1.5;stroke-miterlimit:10;}
	.st21{fill:#FFF9CD;}
	.st22{clip-path:url(#XMLID_6_);fill:#404041;}
	.st23{clip-path:url(#XMLID_6_);fill:#FFF9CD;}
	.st24{clip-path:url(#XMLID_6_);fill:#EE4036;}
	.st25{clip-path:url(#XMLID_6_);fill:#D8D03E;}
	.st26{fill:#404041;}
	.st27{fill:#FFFFFF;}
	.st28{fill:none;}
	.st29{fill:#00ADEE;}
	.st30{fill:#26A9E0;}
	.st31{clip-path:url(#XMLID_7_);fill:#1B75BB;}
	.st32{clip-path:url(#XMLID_7_);fill:#FFFFFF;}
	.st33{clip-path:url(#XMLID_8_);fill:#E5E2B6;}
	.st34{clip-path:url(#XMLID_8_);fill:#EE4036;}
	.st35{clip-path:url(#XMLID_8_);fill:#FFFFFF;}
	.st36{fill:#D7182A;}
	.st37{clip-path:url(#XMLID_9_);fill:#FFF9CD;}
	.st38{clip-path:url(#XMLID_9_);fill:#EE4036;}
	.st39{clip-path:url(#XMLID_9_);fill:#58595B;}
	.st40{clip-path:url(#XMLID_10_);fill:#FFF9CD;}
	.st41{clip-path:url(#XMLID_10_);fill:#EE4036;}
	.st42{clip-path:url(#XMLID_10_);fill:#58595B;}
	.st43{fill:none;stroke:#58595B;stroke-width:1.5;stroke-miterlimit:10;}
	.st44{fill:#58595B;}
	.st45{fill:#A6A8AB;}
	.st46{clip-path:url(#XMLID_11_);fill:#EE4036;}
	.st47{clip-path:url(#XMLID_11_);}
	.st48{clip-path:url(#XMLID_11_);fill:none;stroke:#404041;stroke-miterlimit:10;}
	.st49{clip-path:url(#XMLID_12_);fill:#EE4036;}
	.st50{clip-path:url(#XMLID_12_);}
	.st51{clip-path:url(#XMLID_12_);fill:none;stroke:#404041;stroke-miterlimit:10;}
	.st52{clip-path:url(#XMLID_13_);fill:#D8D03E;}
	.st53{clip-path:url(#XMLID_13_);fill:#00ADEE;}
	.st54{clip-path:url(#XMLID_13_);fill:#EE4036;}
	.st55{clip-path:url(#XMLID_14_);fill:#D8D03E;}
	.st56{clip-path:url(#XMLID_14_);fill:#EE4036;}
	.st57{clip-path:url(#XMLID_14_);fill:#00ADEE;}
	.st58{fill:none;stroke:#404041;stroke-width:1.5;stroke-miterlimit:10;}
	.st59{fill:#EF4136;}
	.st60{opacity:0.51;fill:#BE1E2D;}
	.st61{clip-path:url(#XMLID_15_);fill:#404041;}
	.st62{clip-path:url(#XMLID_15_);fill:#FFF9CD;}
	.st63{fill:#D8D03E;}
	.st64{opacity:0.28;fill:#FFF9CD;}
	.st65{fill:#1B75BB;}
	.st66{clip-path:url(#XMLID_16_);fill:#D8D03E;}
	.st67{clip-path:url(#XMLID_16_);fill:#404041;}
	.st68{opacity:0.62;fill:#D8D03E;}
</style>
<g>
	<g id="XMLID_2088_">
		<path id="XMLID_2104_" class="st0" d="M63.39,59.01l0.44-11.98c0-0.03-0.01-0.06-0.02-0.08c-0.14-0.22-0.94-1.51-1.5-3.3
			c-0.21-0.69-0.27-1.43-0.2-2.15l0-0.04c0.14-1.56-0.3-3.11-1.22-4.38C60.43,36.45,60,35.61,60,34.69c0,0-3.17-13.74,5.68-17.58
			c0,0,6.96-3.04,14.27,0.48c0,0,6.34,1.67,6.34,5.55c0,0-0.35,7.89,0,9.33c0,0.01,0,0.01,0,0.01c0.05,0.09,0.91,1.74-0.87,4.38
			c-0.01,0.01-0.02,0.03-0.02,0.05c-0.08,0.48-1.41,8.2-1.67,9.14l-0.49,1.98c-0.52,2.09-0.82,4.29-0.35,6.39
			c0.28,1.27-1.1,2.75-1.19,4.04l0,0l1.08,5.21c0,0.09-0.09,0.15-0.18,0.14L63.92,59.8L63.39,59.01z"/>
		<path id="XMLID_2102_" class="st1" d="M85.11,60.47c1.27,0.17,2.29-0.04,2.68-1.58c0.78-3.04-0.02-8.67-0.02-8.67
			c0-2.17,1.75-9.67,1.75-9.67l0,0c0.76-0.11,1.35-0.73,1.41-1.5c0.23-3.23-0.24-10.75-0.24-10.75c0.06-1.99,0.09-4.96-0.73-6.58
			c-0.54-1.08-1.98-1.01-2.12-1.69c-0.03-0.13,2.14,0.16,2.05,0.09c-0.94-0.69-0.91-0.99-1.32-1.36c-0.24-0.21,1.24,0.04,0.94-0.08
			l-1.82-0.93l0.97-0.91l-1.31-0.62l0.85-0.92l-1.14-0.83l1.05-0.92l-1.55-0.2l0.72-0.67l-1.34-0.74l0.12-0.97l-0.86,0.33l0.83-1.58
			L84.61,9.8l0.5-1l-1.34,0.42l0.67-1.04l-1.71,0.08l-0.08-0.92l-1.33,0.75l0.29-1l-1.23,0.59l-0.14-1.17l-0.99,0.98l-0.42-0.93
			L78,7.14l-0.56-1l-0.7,0.49l-0.47-0.69l-0.58,0.43L74.86,5.8l-0.54,0.65l-0.6-0.48l-0.42,0.98l-0.85-0.48l-0.67,1.08l-0.75-0.67
			l-0.88,0.96l-1.21-0.58l-0.96,0.79l-1.33-0.13l-0.46,1.92l-0.83,0.12l-0.75,1.42h-0.83l-0.25,1l-1.11,0.25v0.83l-1.06,0.12
			l-0.05,0.7l-1.04,0.38l0.26,0.65l-0.92,0.57l0.5,0.62l-1.75,0.96h0.79l0.54,0.42l-1.83,0.96l0.71,0.54l-1.04,1.25h1.33
			c-2.83,2.42-2.17,7.33-1.58,7.83c0.42,0.36,0.75,2.25,0.9,3.29c0.07,0.45,0.05,0.89,0,1.34c-0.42,3.6,0.92,7.68,1.69,9.66
			c0.28,0.71,0.41,1.47,0.38,2.24c-0.07,1.93,0.12,5.8,0.12,5.8c0.44,2.25,0.23,3.08,0,6.91c-0.01,0.14-0.01,0.28-0.02,0.42
			c0,0.03,0,0.07,0,0.1c-0.01,1.78,1.89,2.92,3.49,2.16l0.19-0.09c1.5-0.67,0.88-1.63,0.71-2.63l-0.15-0.87l-0.08-9.76
			c0-0.29-0.08-0.57-0.24-0.82c-0.01-0.01-0.01-0.02-0.02-0.03c-0.93-1.53-1.43-3.3-1.3-5.08c0.07-0.92-0.1-2.23-1.04-3.8
			c-0.51-0.85-1.62-2.66-1.12-3.58c0.73-1.35,0.82-3.45,0.75-5.38c-0.04-1.12,0.27-2.2,0.83-3.18c0.3-0.53,0.57-1.07,0.82-1.63
			c0.77-1.74,3.12-5.84,8.65-5.4c0.38,0.03,2.98,0.41,3.36,0.4c1.96-0.07,6.05,2.1,8.71,5.77c0.61,0.84,0.32,2.33,0.75,3.08
			c1.23,2.17,0.01,4.17,0.13,8.11c0.04,1.12-0.02,2.25-0.24,3.35c-0.64,3.2-1.9,9.59-1.97,10.1l-0.25,7.69l-0.03,1.22
			c-0.02,1.01,0.62,1.91,1.58,2.22L85.11,60.47z"/>
		<path id="XMLID_2100_" class="st0" d="M85.3,31.72c0.51,0,1,0.11,1.46,0.33c1.03,0.5,2.68,1.62,2.68,3.67c0,0,0.46,1.72-1.08,4.14
			c0,0-1.17,3.03-2.42,3.11c0,0-1.43,0.42-2.17,0l0.63-11.25H85.3z"/>
		<path id="XMLID_2099_" class="st0" d="M63,42.53c0,0-1.48,0.75-1.92-1.13c0,0-0.92-1.97-1.8-3.44c-0.37-0.61-0.64-1.28-0.78-1.98
			c-0.06-0.3-0.08-0.6-0.04-0.82c0.26-1.3,1.48-2.07,2.35-1.44L63,39.16V42.53z"/>
		<path id="XMLID_2098_" class="st0" d="M139.19,158.76c0,0-1.75-6.2-4.37-8.93c-0.97-1.01-2.05-3.56-3.01-6.32l0.08,0.04
			c0,0-4.57-14.72-11.32-38.89c-1.07-3.82-2.97-5.68-3.44-9.24c-0.62-4.69-1.12-6.31-1.72-9.43c-0.28-1.47-2.49-6.9-3.83-9.34
			c-1.08-1.97-1.83-4.83-2.91-6.45c-0.34-0.52-0.74-1-1.09-1.48c-1.55-2.1-3.66-3.7-6.1-4.63c-2.19-0.84-5.48-1.3-8.87-1.62
			c-8.82-0.84-9.12-4.05-10.06-8.93c-0.12-0.62-0.18-1.18-0.17-1.66l-17.75,0.17c0,0,1.36,7.75-7.54,10.76
			c-0.69,0.23-1.41,0.39-2.14,0.44c-4.23,0.28-15.21-0.75-18.89,12.3c-0.34,1.22-0.75,2.42-1.34,3.54
			c-1.16,2.21-3.13,7.17-3.09,15.39c0.02,4.68-1.9,6.45-3.1,11.8c-1.91,8.55-2.01,5.75-4.29,13.55c-0.89,3.05-7.72,27.4-10.33,30.01
			c-2.33,2.33-2.57,4.35-4.37,8.93c-0.47,1.18-0.83,0.96-0.78,9.22c0.02,3.18,2.73,5.75,5.57,7.2c2.39,1.22,5.21,2.4,6.75,2.15
			c0,0-7.37-9.5-6.43-15c0,0,4.18-2.25,4.63,4.62c0.05,0.76,1.46,0.25,1.55-0.51c0.24-1.91,0.57-4.92,0.62-7.25
			c0.05-2.13-1.47-6.12-0.54-8.03c2.35-4.79,8.16-13.79,10-16.67c2.43-5.96,5.8-11.49,9.98-16.39l1.86-2.17
			c1.12-1.31,1.91-2.89,2.23-4.59c0.24-1.28,0.38-2.6,0.59-3.66l1.81-9.22l3.2,24.86l46.83,0.36l2.21-26.97l0.52,1.26
			c1.8,4.35,2.27,4.63,3.09,9.27c0,0,1.77,8.21,2.99,9.43c2.15,2.17,3.98,4.62,5.43,7.28c0.08,0.14,0.16,0.29,0.24,0.43
			c1.05,1.87,2.31,3.62,3.75,5.21c0.89,0.99,2.08,2.4,3.28,4.07c1.51,2.12,4.26,8.85,5.57,10.87c0.22,0.34,2.11,2.21,2.6,2.96
			c0.86,1.35,1.12,2.91,1.12,4.46c0,3.25-0.49,1.59-0.68,10.86c0,0,0.18,4.52,1.43,4.52c0,0,0.86,0.22,0.79-1.86
			c-0.02-0.55,0.08-1.1,0.29-1.61c0.43-1.07,1.37-2.46,3.25-1.83c0.49,0.16,0.84,0.63,0.85,1.14c0.02,1.28-0.51,4.31-3.92,11.03
			l-1.86,2.29c-0.22,0.27,0.03,0.66,0.36,0.56c2.78-0.78,8.52-1.83,10.83-7.71c0.32-0.81,0.47-1.68,0.49-2.55
			C140.04,164.86,140.01,160.98,139.19,158.76z"/>
		<g id="XMLID_2090_">
			<path id="XMLID_2097_" class="st0" d="M50.81,122.09c0,0-3.07,9.43-5.76,23.07c-2.75,13.97-5.09,32.35-3.32,49.55
				c0,0,2.53,13.5,6.52,17c0,0,1.52,8.41,0.33,11.01c-0.33,0.72-0.59,1.47-0.57,2.27c0.03,0.96,0.26,2.29,1.03,3.97
				c0,0-6.45,24.25,0,47.75c0,0,1.2,8.5,1.45,10.75c0,0-2,2.5,0,4.75c0,0-11.25,11.75-14,14.5c0,0-3,6.22,4.75,6.22
				c0,0,11.6,0.03,12.25-4.82c0.11-0.78,0.21-1.55,0.49-2.28c0.82-2.19,2.49-6.26,3.76-6.63c0,0,3-3.25,0-6.25
				c0,0,0.65-1.77,0.76-3.84c0.25-4.71,0.8-9.39,1.99-13.94c2.08-7.95,4.54-18.31,4.24-21.97c-0.5-6.25,0-19.5-2.25-25.25
				c0,0,2.3-0.75,2.27-13.25c0,0,7.66-46.02,4.66-50.52l0.7-41.95L50.81,122.09z"/>
			<path id="XMLID_2096_" class="st0" d="M109.52,306.71c-2.75-2.75-14-14.5-14-14.5c2-2.25,0-4.75,0-4.75
				c0.25-2.25,1.45-10.75,1.45-10.75c6.4-34.5,0-47.75,0-47.75c0.26-0.56,0.48-1.1,0.67-1.61c0.75-1.99,0.93-4.13,0.69-6.25
				c-0.37-3.25,1.54-9.89,1.54-9.89c3.98-3.5,6.63-20.74,6.63-20.74c3.5-34-8.99-68.37-8.99-68.37H78.2l-4.33,46.94
				c-3,4.5,7.38,45.68,7.38,45.68c-0.02,12.5,2.27,13.25,2.27,13.25c-2.25,5.75-1.75,19-2.25,25.25
				c-0.36,4.49,3.41,19.03,5.56,26.87c0.71,2.57,0.84,5.24,0.68,7.9c-0.15,2.51,0.76,4.98,0.76,4.98c-3,3,0,6.25,0,6.25
				c1.27,0.36,2.94,4.44,3.76,6.63c0.27,0.73,0.38,1.5,0.49,2.28c0.66,4.84,12.25,4.82,12.25,4.82
				C112.52,312.93,109.52,306.71,109.52,306.71z"/>
		</g>
		<rect id="XMLID_2089_" x="66.28" y="120.6" class="st0" width="14.33" height="47.33"/>
	</g>
	<g id="XMLID_2081_">
		<path id="XMLID_2087_" class="st26" d="M61.74,285.62c0,0,1.24,5.69,2.65,12.15c0.96,4.38,1.75,9.13,1.13,10.63l-10.25,5.5
			l-1.75-2.25c0,0-6.25,3-7,5c0,0-5.75,5.25-13.75,2.5c0,0-8-1-8-1.75c0,0,0.39-2.9,2.35-4.28c1.05-0.74,2-1.61,2.94-2.49
			c1.36-1.27,3.26-2.9,5.18-4.14c3.87-2.49,7.22-5.72,9.52-9.7c1.13-1.95,2-3.68,2-4.39l0.12-6.11
			C46.88,286.29,58.99,287.62,61.74,285.62z"/>
		<g id="XMLID_2085_">
			<path id="XMLID_2086_" class="st27" d="M65.52,304.73l-10.25,5.5l-1.75-2.25c0,0-5.21,2.5-6.69,4.46
				c-0.55,0.72-1.25,1.3-2.03,1.76c-2.28,1.36-6.64,3.13-12.03,1.28c0,0-4.57-0.57-6.8-1.17c-0.97,1.41-1.2,3.09-1.2,3.09
				c0,0.75,8,1.75,8,1.75c8,2.75,13.75-2.5,13.75-2.5c0.75-2,7-5,7-5l1.75,2.25l10.25-5.5c0.29-0.7,0.27-2.12,0.07-3.88
				C65.56,304.59,65.54,304.67,65.52,304.73z"/>
		</g>
		<path id="XMLID_2084_" class="st26" d="M84.83,285.62c0,0-1.24,5.69-2.65,12.15c-0.96,4.38-1.75,9.13-1.13,10.63l10.25,5.5
			l1.75-2.25c0,0,6.25,3,7,5c0,0,5.75,5.25,13.75,2.5c0,0,8-1,8-1.75c0,0-0.39-2.9-2.35-4.28c-1.05-0.74-2-1.61-2.94-2.49
			c-1.36-1.27-3.26-2.9-5.18-4.14c-3.87-2.49-7.22-5.72-9.52-9.7c-1.13-1.95-2-3.68-2-4.39l-0.12-6.11
			C99.69,286.29,87.58,287.62,84.83,285.62z"/>
		<g id="XMLID_2082_">
			<path id="XMLID_2083_" class="st27" d="M81.05,304.73l10.25,5.5l1.75-2.25c0,0,5.21,2.5,6.69,4.46c0.55,0.72,1.25,1.3,2.03,1.76
				c2.28,1.36,6.64,3.13,12.03,1.28c0,0,4.57-0.57,6.8-1.17c0.97,1.41,1.2,3.09,1.2,3.09c0,0.75-8,1.75-8,1.75
				c-8,2.75-13.75-2.5-13.75-2.5c-0.75-2-7-5-7-5l-1.75,2.25l-10.25-5.5c-0.29-0.7-0.27-2.12-0.07-3.88
				C81.01,304.59,81.03,304.67,81.05,304.73z"/>
		</g>
	</g>
	<path id="XMLID_2080_" class="st28" d="M65.69,260.55c0,0-1.19,9.73-2.17,17.55c-0.82,6.56-0.55,13.21,0.86,19.67
		c0.96,4.38,1.75,9.13,1.13,10.63l-10.25,5.5l-1.75-2.25c0,0-4.79,2.3-6.48,4.21c-0.82,0.92-1.73,1.75-2.81,2.34
		c-2.23,1.2-5.93,2.47-10.42,1.27c-0.91-0.24-1.83-0.42-2.76-0.55c-2.35-0.34-6.27-0.99-6.27-1.51c0,0,0.39-2.9,2.35-4.28
		c1.05-0.74,2-1.61,2.94-2.49c1.36-1.27,3.26-2.9,5.18-4.14c3.87-2.49,7.22-5.72,9.52-9.7c1.13-1.95,2-3.68,2-4.39l0.64-33.7
		C47.41,258.7,55.6,259.89,65.69,260.55z"/>
	<path id="XMLID_2079_" class="st29" d="M98.67,125.69h-49.1c0,0-9.37,27.13-9.2,51.49c0.1,13.37,2.34,59.98,2.87,65.28l2.67,44.62
		l3.58-0.25c0,0,11.12,0.25,13.25,0.88l3.59-47.05c0.01,0,0.02-0.01,0.02-0.01l0.08-1.34l0,0h0l3.85-66.16h2.21l2.99,20.83
		c0.1,1.05,0.24,2.09,0.42,3.12l2.61,26.49c0.17,0.98,1.38,17.06,1.3,18.05c-0.01,0.19,0.01,0.36,0.06,0.53l1.76,46.14l18.45-0.75
		l2.16-46.61c0.66-3.82,5.36-51.14,5.36-51.14C111.66,166.15,98.67,125.69,98.67,125.69z"/>
	<path id="XMLID_2078_" class="st30" d="M40.57,166.57l25.71-0.78l8.1-40.1l9.69,39.77l23.63,0.16c0.7,0,1.23-0.64,1.08-1.33
		l-10.65-49.66l1.98-16.65l6.51,21.81c1.17,3.91,2.87,7.64,5.07,11.09l8.29,8.32c1.15,1.16,2.01,2.57,2.51,4.13l1.68,5.25l10.56-4.3
		l-2.99-5.02c-0.45-0.75-0.8-1.55-1.06-2.38l-3.43-14.67c-1.17-5.02-3.12-9.82-5.78-14.24l0,0l-11.39-44.14l-24.22-3.18l-11.5,61.46
		L59.95,61.48l-22.96,4.14L26.9,108.29l-0.84,5.68c-0.06,0.43-0.21,0.85-0.42,1.22l-2.55,4.48c-0.35,0.61-0.62,1.26-0.82,1.93
		l-5.02,20.78l-3.35,7.44l10.79,2.63l1.63-6.48c0.28-1.12,0.83-2.16,1.59-3.03l8.3-9.4c0.36-0.41,0.66-0.85,0.9-1.34
		c2.34-4.66,5.96-14.73,7.53-19.61l3.1-9.81l1,11.84l-9.65,50.2C38.91,165.75,39.63,166.59,40.57,166.57z"/>
	<g id="XMLID_2068_">
		<defs>
			<polygon id="XMLID_2069_" points="61.63,74.28 72.52,63.48 75.69,63.48 87,75.02 73.83,124.32 			"/>
		</defs>
		<clipPath id="XMLID_2_">
			<use xlink:href="#XMLID_2069_"  style="overflow:visible;"/>
		</clipPath>
		<polygon id="XMLID_2077_" style="clip-path:url(#XMLID_2_);fill:#1B75BB;" points="61.63,74.28 72.52,63.48 75.69,63.48 87,75.02 
			73.83,124.32 		"/>
		<rect id="XMLID_2076_" x="63.68" y="61.68" style="clip-path:url(#XMLID_2_);fill:#FFFFFF;" width="1.33" height="58.17"/>
		<rect id="XMLID_2075_" x="70.01" y="62.2" style="clip-path:url(#XMLID_2_);fill:#FFFFFF;" width="1.33" height="58.17"/>
		<rect id="XMLID_2074_" x="66.93" y="62.27" style="clip-path:url(#XMLID_2_);fill:#FFFFFF;" width="1.33" height="58.17"/>
		<rect id="XMLID_2073_" x="72.98" y="64.04" style="clip-path:url(#XMLID_2_);fill:#FFFFFF;" width="1.33" height="58.17"/>
		<rect id="XMLID_2072_" x="76.35" y="62.2" style="clip-path:url(#XMLID_2_);fill:#FFFFFF;" width="1.33" height="58.17"/>
		<rect id="XMLID_2071_" x="79.1" y="61.63" style="clip-path:url(#XMLID_2_);fill:#FFFFFF;" width="1.33" height="58.17"/>
		<rect id="XMLID_2070_" x="81.6" y="61.63" style="clip-path:url(#XMLID_2_);fill:#FFFFFF;" width="1.33" height="58.17"/>
	</g>
	<rect id="XMLID_2067_" x="51.74" y="185.97" class="st30" width="1.28" height="97.22"/>
	<rect id="XMLID_2066_" x="91.07" y="187.22" class="st30" width="1.28" height="97.22"/>
	<ellipse id="XMLID_2065_" class="st29" cx="74.38" cy="124.15" rx="1.81" ry="1.94"/>
	<g id="XMLID_2060_">
		<defs>
			<polygon id="XMLID_2061_" points="72.62,69.57 64.98,86.85 74.37,124.05 82.23,88.1 74.96,69.63 			"/>
		</defs>
		<clipPath id="XMLID_3_">
			<use xlink:href="#XMLID_2061_"  style="overflow:visible;"/>
		</clipPath>
		<polygon id="XMLID_2064_" style="clip-path:url(#XMLID_3_);fill:#E5E2B6;" points="72.62,69.57 64.98,86.85 74.37,124.05 
			82.23,88.1 74.96,69.63 		"/>
		
			<rect id="XMLID_2063_" x="72.83" y="67.4" transform="matrix(0.2794 -0.9602 0.9602 0.2794 -18.0264 125.4666)" class="st6" width="3.5" height="14.69"/>
		
			<rect id="XMLID_2062_" x="72.24" y="70.64" transform="matrix(0.2794 -0.9602 0.9602 0.2794 -21.5589 127.242)" style="clip-path:url(#XMLID_3_);fill:#FFFFFF;" width="3.5" height="14.69"/>
	</g>
	<path id="XMLID_2059_" class="st29" d="M102.93,67.27l-17.05-6.64l-11.5,61.46L59.95,61.48l-16.88,6.64l31.31,57.56
		C74.87,122.52,102.93,67.27,102.93,67.27z"/>
	<g id="XMLID_1866_">
		<polygon id="XMLID_2058_" class="st27" points="64.07,55.75 73.88,63.04 82.9,54.43 85.88,60.63 83.41,73.84 73.88,63.04 
			62.93,74.03 59.95,61.48 		"/>
		<path id="XMLID_2057_" class="st26" d="M73.87,62.94l-3.98,3.95l2.73,2.68c0.64,0.63,1.67,0.66,2.34,0.05l2.68-2.42L73.87,62.94z"
			/>
		<circle id="XMLID_1934_" class="st29" cx="73.28" cy="70.39" r="0.32"/>
		<circle id="XMLID_1933_" class="st29" cx="74.5" cy="71.67" r="0.32"/>
		<circle id="XMLID_1932_" class="st29" cx="69.25" cy="79.54" r="0.32"/>
		<circle id="XMLID_1931_" class="st29" cx="68.28" cy="90.71" r="0.32"/>
		<circle id="XMLID_1930_" class="st29" cx="67.64" cy="84.3" r="0.32"/>
		<circle id="XMLID_1929_" class="st29" cx="70.6" cy="87.54" r="0.32"/>
		<circle id="XMLID_1897_" class="st29" cx="78" cy="96.17" r="0.32"/>
		<circle id="XMLID_1896_" class="st29" cx="73.99" cy="90.71" r="0.32"/>
		<circle id="XMLID_1895_" class="st29" cx="75.05" cy="96.49" r="0.32"/>
		<circle id="XMLID_1894_" class="st29" cx="68.92" cy="95.12" r="0.32"/>
		<circle id="XMLID_1893_" class="st29" cx="71.64" cy="93.16" r="0.32"/>
		<circle id="XMLID_1892_" class="st29" cx="71.32" cy="98.3" r="0.32"/>
		<circle id="XMLID_1885_" class="st29" cx="71.64" cy="103.12" r="0.32"/>
		<circle id="XMLID_1884_" class="st29" cx="74.31" cy="101.38" r="0.32"/>
		<circle id="XMLID_1883_" class="st29" cx="74.41" cy="118.03" r="0.32"/>
		<circle id="XMLID_1882_" class="st29" cx="77.32" cy="101.71" r="0.32"/>
		<circle id="XMLID_1881_" class="st29" cx="74.73" cy="105.13" r="0.32"/>
		<circle id="XMLID_1880_" class="st29" cx="79.82" cy="87.54" r="0.32"/>
		<circle id="XMLID_1879_" class="st29" cx="73" cy="83.01" r="0.32"/>
		<circle id="XMLID_1878_" class="st29" cx="73" cy="85.96" r="0.32"/>
		<circle id="XMLID_1877_" class="st29" cx="70.44" cy="83.66" r="0.32"/>
		<circle id="XMLID_1876_" class="st29" cx="67.96" cy="86.6" r="0.32"/>
		<circle id="XMLID_1875_" class="st29" cx="73.44" cy="81.05" r="0.32"/>
		<circle id="XMLID_1874_" class="st29" cx="78.32" cy="83.34" r="0.32"/>
		<circle id="XMLID_1873_" class="st29" cx="76.18" cy="88.18" r="0.32"/>
		<circle id="XMLID_1872_" class="st29" cx="76.5" cy="85.96" r="0.32"/>
		<circle id="XMLID_1871_" class="st29" cx="78.32" cy="92.22" r="0.32"/>
		<circle id="XMLID_1870_" class="st29" cx="72.67" cy="107.71" r="0.32"/>
		<circle id="XMLID_1869_" class="st29" cx="74.09" cy="113.6" r="0.32"/>
		<circle id="XMLID_1868_" class="st29" cx="75.86" cy="109.61" r="0.32"/>
		<circle id="XMLID_1867_" class="st29" cx="72.67" cy="111.36" r="0.32"/>
	</g>
	<path id="XMLID_1865_" class="st29" d="M70.53,29.61c0,1.42-1.15,0.46-2.57,0.46c-1.42,0-2.57,0.96-2.57-0.46s1.15-2.57,2.57-2.57
		C69.38,27.04,70.53,28.19,70.53,29.61z"/>
	<path id="XMLID_1864_" class="st29" d="M80.45,29.59c0,1.42-1.15,0.54-2.57,0.54c-1.42,0-2.57,0.88-2.57-0.54
		c0-1.42,1.15-2.57,2.57-2.57C79.3,27.02,80.45,28.17,80.45,29.59z"/>
	<path id="XMLID_1863_" class="st36" d="M69.48,41.42c0,0,1.14,1.4,3.04,1.4c2.85,0,3.59-1.41,3.59-1.41
		c-1.73-1.86-3.14-1.37-3.43-1.01C72.68,40.39,71.39,39.11,69.48,41.42z"/>
</g>
</svg>
