<?xml version="1.0" encoding="utf-8"?>
<!-- Generator: Adobe Illustrator 19.2.1, SVG Export Plug-In . SVG Version: 6.00 Build 0)  -->
<svg version="1.1" id="Layer_1" xmlns="http://www.w3.org/2000/svg" xmlns:xlink="http://www.w3.org/1999/xlink" x="0px" y="0px"
	 viewBox="0 0 148.75 325.75" style="enable-background:new 0 0 148.75 325.75;" xml:space="preserve">
<style type="text/css">
	.st0{fill:#F0EAD6;}
	.st1{fill:#EE4036;}
	.st2{fill:#BE1E2D;}
	.st3{clip-path:url(#XMLID_2_);fill:#404041;}
	.st4{clip-path:url(#XMLID_2_);fill:none;stroke:#FFFFFF;stroke-width:2;stroke-miterlimit:10;}
	.st5{clip-path:url(#XMLID_3_);fill:#F0EAD6;}
	.st6{clip-path:url(#XMLID_3_);fill:#EE4036;}
	.st7{clip-path:url(#XMLID_3_);fill:none;}
	.st8{clip-path:url(#XMLID_3_);fill:none;stroke:#404041;stroke-miterlimit:10;}
	.st9{clip-path:url(#XMLID_3_);fill:#404041;}
	.st10{clip-path:url(#XMLID_3_);fill:#FFF9CD;}
	.st11{clip-path:url(#XMLID_4_);fill:#F0EAD6;}
	.st12{clip-path:url(#XMLID_4_);}
	.st13{clip-path:url(#XMLID_4_);fill:#D8D03E;}
	.st14{clip-path:url(#XMLID_4_);fill:none;}
	.st15{clip-path:url(#XMLID_4_);fill:#404041;}
	.st16{clip-path:url(#XMLID_4_);fill:#EE4036;}
	.st17{clip-path:url(#XMLID_4_);fill:#FFF9CD;}
	.st18{clip-path:url(#XMLID_5_);fill:#FFF9CD;}
	.st19{clip-path:url(#XMLID_5_);fill:none;stroke:#EE4036;stroke-width:1.5;stroke-miterlimit:10;}
	.st20{clip-path:url(#XMLID_4_);fill:none;stroke:#EE4036;stroke-width:1.5;stroke-miterlimit:10;}
	.st21{fill:#FFF9CD;}
	.st22{clip-path:url(#XMLID_6_);fill:#404041;}
	.st23{clip-path:url(#XMLID_6_);fill:#FFF9CD;}
	.st24{clip-path:url(#XMLID_6_);fill:#EE4036;}
	.st25{clip-path:url(#XMLID_6_);fill:#D8D03E;}
	.st26{fill:#404041;}
	.st27{fill:#FFFFFF;}
	.st28{fill:none;}
	.st29{fill:#00ADEE;}
	.st30{fill:#26A9E0;}
	.st31{clip-path:url(#XMLID_7_);fill:#1B75BB;}
	.st32{clip-path:url(#XMLID_7_);fill:#FFFFFF;}
	.st33{clip-path:url(#XMLID_8_);fill:#E5E2B6;}
	.st34{clip-path:url(#XMLID_8_);fill:#EE4036;}
	.st35{clip-path:url(#XMLID_8_);fill:#FFFFFF;}
	.st36{fill:#D7182A;}
	.st37{clip-path:url(#XMLID_9_);fill:#FFF9CD;}
	.st38{clip-path:url(#XMLID_9_);fill:#EE4036;}
	.st39{clip-path:url(#XMLID_9_);fill:#58595B;}
	.st40{clip-path:url(#XMLID_10_);fill:#FFF9CD;}
	.st41{clip-path:url(#XMLID_10_);fill:#EE4036;}
	.st42{clip-path:url(#XMLID_10_);fill:#58595B;}
	.st43{fill:none;stroke:#58595B;stroke-width:1.5;stroke-miterlimit:10;}
	.st44{fill:#58595B;}
	.st45{fill:#A6A8AB;}
	.st46{clip-path:url(#XMLID_11_);fill:#EE4036;}
	.st47{clip-path:url(#XMLID_11_);}
	.st48{clip-path:url(#XMLID_11_);fill:none;stroke:#404041;stroke-miterlimit:10;}
	.st49{clip-path:url(#XMLID_12_);fill:#EE4036;}
	.st50{clip-path:url(#XMLID_12_);}
	.st51{clip-path:url(#XMLID_12_);fill:none;stroke:#404041;stroke-miterlimit:10;}
	.st52{clip-path:url(#XMLID_13_);fill:#D8D03E;}
	.st53{clip-path:url(#XMLID_13_);fill:#00ADEE;}
	.st54{clip-path:url(#XMLID_13_);fill:#EE4036;}
	.st55{clip-path:url(#XMLID_14_);fill:#D8D03E;}
	.st56{clip-path:url(#XMLID_14_);fill:#EE4036;}
	.st57{clip-path:url(#XMLID_14_);fill:#00ADEE;}
	.st58{fill:none;stroke:#404041;stroke-width:1.5;stroke-miterlimit:10;}
	.st59{fill:#EF4136;}
	.st60{opacity:0.51;fill:#BE1E2D;}
	.st61{clip-path:url(#XMLID_15_);fill:#404041;}
	.st62{clip-path:url(#XMLID_15_);fill:#FFF9CD;}
	.st63{fill:#D8D03E;}
	.st64{opacity:0.28;fill:#FFF9CD;}
	.st65{fill:#1B75BB;}
	.st66{clip-path:url(#XMLID_16_);fill:#D8D03E;}
	.st67{clip-path:url(#XMLID_16_);fill:#404041;}
	.st68{opacity:0.62;fill:#D8D03E;}
</style>
<g id="XMLID_489_">
	<g id="XMLID_491_">
		<path id="XMLID_818_" class="st0" d="M63.39,62.52l0.44-11.98c0-0.03-0.01-0.06-0.02-0.08c-0.14-0.22-0.94-1.51-1.5-3.3
			c-0.21-0.69-0.27-1.43-0.2-2.15l0-0.04c0.14-1.56-0.3-3.11-1.22-4.38C60.43,39.96,60,39.12,60,38.2c0,0-3.17-13.74,5.68-17.58
			c0,0,6.96-3.04,14.27,0.48c0,0,6.34,1.67,6.34,5.55c0,0-0.35,7.89,0,9.33c0,0.01,0,0.01,0,0.01c0.05,0.09,0.91,1.74-0.87,4.38
			c-0.01,0.01-0.02,0.03-0.02,0.05c-0.08,0.48-1.41,8.2-1.67,9.14l-0.49,1.98c-0.52,2.09-0.82,4.29-0.35,6.39
			c0.28,1.27-1.1,2.75-1.19,4.04l0,0l1.08,5.21c0,0.09-0.09,0.15-0.18,0.14l-18.69-4.02L63.39,62.52z"/>
		<path id="XMLID_817_" class="st1" d="M85.11,63.98c1.27,0.17,2.29-0.04,2.68-1.58c0.78-3.04-0.02-8.67-0.02-8.67
			c0-2.17,1.75-9.67,1.75-9.67l0,0c0.76-0.11,1.35-0.73,1.41-1.5c0.23-3.23-0.24-10.75-0.24-10.75c0.06-1.99,0.09-4.96-0.73-6.58
			c-0.54-1.08-1.98-1.01-2.12-1.69c-0.03-0.13,2.14,0.16,2.05,0.09c-0.94-0.69-0.91-0.99-1.32-1.36c-0.24-0.21,1.24,0.04,0.94-0.08
			l-1.82-0.93l0.97-0.91l-1.31-0.62l0.85-0.92l-1.14-0.83l1.05-0.92l-1.55-0.2l0.72-0.67l-1.34-0.74l0.12-0.97l-0.86,0.33l0.83-1.58
			l-1.42,0.08l0.5-1l-1.34,0.42l0.67-1.04l-1.71,0.08l-0.08-0.92l-1.33,0.75l0.29-1l-1.23,0.59l-0.14-1.17L79.24,11l-0.42-0.93
			L78,10.65l-0.56-1l-0.7,0.49l-0.47-0.69l-0.58,0.43l-0.83-0.55l-0.54,0.65l-0.6-0.48l-0.42,0.98l-0.85-0.48l-0.67,1.08l-0.75-0.67
			l-0.88,0.96l-1.21-0.58l-0.96,0.79l-1.33-0.12l-0.46,1.92l-0.83,0.12l-0.75,1.42h-0.83l-0.25,1l-1.11,0.25v0.83l-1.06,0.12
			l-0.05,0.7l-1.04,0.38l0.26,0.65l-0.92,0.57l0.5,0.62l-1.75,0.96h0.79l0.54,0.42l-1.83,0.96l0.71,0.54l-1.04,1.25h1.33
			c-2.83,2.42-2.17,7.33-1.58,7.83c0.42,0.36,0.75,2.25,0.9,3.29c0.07,0.45,0.05,0.89,0,1.34c-0.42,3.6,0.92,7.68,1.69,9.66
			c0.28,0.71,0.41,1.47,0.38,2.24c-0.07,1.93,0.12,5.8,0.12,5.8c0.44,2.25,0.23,3.08,0,6.91c-0.01,0.14-0.01,0.28-0.02,0.42
			c0,0.03,0,0.07,0,0.1c-0.01,1.78,1.89,2.92,3.49,2.16l0.19-0.09c1.5-0.67,0.88-1.63,0.71-2.63l-0.15-0.87l-0.08-9.76
			c0-0.29-0.08-0.57-0.24-0.82c-0.01-0.01-0.01-0.02-0.02-0.03c-0.93-1.53-1.43-3.3-1.3-5.08c0.07-0.92-0.1-2.23-1.04-3.8
			c-0.51-0.85-1.62-2.66-1.12-3.58c0.73-1.35,0.82-3.45,0.75-5.38c-0.04-1.12,0.27-2.2,0.83-3.18c0.3-0.53,0.57-1.07,0.82-1.63
			c0.77-1.74,3.12-5.84,8.65-5.4c0.38,0.03,2.98,0.41,3.36,0.4c1.96-0.07,6.05,2.1,8.71,5.77c0.61,0.84,0.32,2.33,0.75,3.08
			c1.23,2.17,0.01,4.17,0.13,8.11c0.04,1.12-0.02,2.25-0.24,3.35c-0.64,3.2-1.9,9.59-1.97,10.1l-0.25,7.69l-0.03,1.22
			c-0.02,1.01,0.62,1.91,1.58,2.22L85.11,63.98z"/>
		<path id="XMLID_816_" class="st0" d="M85.3,35.23c0.51,0,1,0.11,1.46,0.33c1.03,0.5,2.68,1.62,2.68,3.67c0,0,0.46,1.72-1.08,4.14
			c0,0-1.17,3.03-2.42,3.11c0,0-1.43,0.42-2.17,0l0.63-11.25H85.3z"/>
		<path id="XMLID_815_" class="st0" d="M63,46.04c0,0-1.48,0.75-1.92-1.13c0,0-0.92-1.97-1.8-3.44c-0.37-0.61-0.64-1.28-0.78-1.98
			c-0.06-0.3-0.08-0.6-0.04-0.82c0.26-1.3,1.48-2.07,2.35-1.44L63,42.67V46.04z"/>
		<g id="XMLID_494_">
			<defs>
				<path id="XMLID_495_" d="M139.19,162.27c0,0-1.75-6.2-4.37-8.93c-0.97-1.01-2.05-3.56-3.01-6.32l0.08,0.04
					c0,0-4.57-14.72-11.32-38.89c-1.07-3.82-2.97-5.68-3.44-9.24c-0.62-4.69-1.12-6.31-1.72-9.43c-0.28-1.47-2.49-6.9-3.83-9.34
					c-1.08-1.97-1.83-4.83-2.91-6.45c-0.34-0.52-0.74-1-1.09-1.48c-1.55-2.1-3.66-3.7-6.1-4.63c-2.19-0.84-5.48-1.3-8.87-1.62
					c-8.82-0.84-9.12-4.05-10.06-8.93c-0.12-0.62-0.18-1.18-0.17-1.66l-17.75,0.17c0,0,1.36,7.75-7.54,10.76
					c-0.69,0.23-1.41,0.39-2.14,0.44c-4.23,0.28-15.21-0.75-18.89,12.3c-0.34,1.22-0.75,2.42-1.34,3.54
					c-1.16,2.21-3.13,7.17-3.09,15.39c0.02,4.68-1.9,6.45-3.1,11.8c-1.91,8.55-2.01,5.75-4.29,13.55
					c-0.89,3.05-7.72,27.4-10.33,30.01c-2.33,2.33-2.57,4.35-4.37,8.93c-0.47,1.18-0.83,0.96-0.78,9.22
					c0.02,3.18,2.73,5.75,5.57,7.2c2.39,1.22,5.21,2.4,6.75,2.15c0,0-7.37-9.5-6.43-15c0,0,4.18-2.25,4.63,4.62
					c0.05,0.76,1.46,0.25,1.55-0.51c0.24-1.91,0.57-4.92,0.62-7.25c0.05-2.13-1.47-6.12-0.54-8.03c2.35-4.79,8.16-13.79,10-16.67
					c2.43-5.96,5.8-11.49,9.98-16.39l1.86-2.17c1.12-1.31,1.91-2.89,2.23-4.59c0.24-1.28,0.38-2.6,0.59-3.66l1.81-9.22l3.16,24.56
					c-0.83,2.69-3.27,11.01-5.46,22.13c-2.75,13.97-5.09,32.35-3.32,49.55c0,0,2.53,13.5,6.52,17c0,0,1.52,8.41,0.33,11.01
					c-0.33,0.72-0.59,1.47-0.57,2.27c0.03,0.96,0.26,2.29,1.03,3.97c0,0-6.45,24.25,0,47.75c0,0,1.2,8.5,1.45,10.75
					c0,0-2,2.5,0,4.75c0,0-11.25,11.75-14,14.5c0,0-3,6.22,4.75,6.22c0,0,11.6,0.03,12.25-4.82c0.11-0.78,0.21-1.55,0.49-2.28
					c0.82-2.19,2.49-6.26,3.76-6.63c0,0,3-3.25,0-6.25c0,0,0.65-1.77,0.76-3.84c0.25-4.71,0.8-9.39,1.99-13.94
					c2.08-7.95,4.54-18.31,4.24-21.97c-0.5-6.25,0-19.5-2.25-25.25c0,0,2.3-0.75,2.27-13.25c0,0,5.8-32.76,5.35-44.84l3.37,0.29
					l0.39-1.13c-3,4.5,7.38,45.68,7.38,45.68c-0.02,12.5,2.27,13.25,2.27,13.25c-2.25,5.75-1.75,19-2.25,25.25
					c-0.36,4.49,3.41,19.03,5.56,26.87c0.71,2.57,0.84,5.24,0.68,7.9c-0.15,2.51,0.76,4.98,0.76,4.98c-3,3,0,6.25,0,6.25
					c1.27,0.36,2.94,4.44,3.76,6.63c0.27,0.73,0.38,1.5,0.49,2.28c0.66,4.84,12.25,4.82,12.25,4.82c7.75,0,4.75-6.22,4.75-6.22
					c-2.75-2.75-14-14.5-14-14.5c2-2.25,0-4.75,0-4.75c0.25-2.25,1.45-10.75,1.45-10.75c6.4-34.5,0-47.75,0-47.75
					c0.26-0.56,0.48-1.1,0.67-1.61c0.75-1.99,0.93-4.13,0.69-6.25c-0.37-3.25,1.54-9.89,1.54-9.89c3.98-3.5,6.63-20.74,6.63-20.74
					c3.5-34-8.99-68.37-8.99-68.37l2.07-25.37l0.52,1.26c1.8,4.35,2.27,4.63,3.09,9.27c0,0,1.77,8.21,2.99,9.43
					c2.15,2.17,3.98,4.62,5.43,7.28c0.08,0.14,0.16,0.29,0.24,0.43c1.05,1.87,2.31,3.62,3.75,5.21c0.89,0.99,2.08,2.4,3.28,4.07
					c1.51,2.12,4.26,8.85,5.57,10.87c0.22,0.34,2.11,2.21,2.6,2.96c0.86,1.35,1.12,2.91,1.12,4.46c0,3.25-0.49,1.59-0.68,10.86
					c0,0,0.18,4.52,1.43,4.52c0,0,0.86,0.22,0.79-1.86c-0.02-0.55,0.08-1.1,0.29-1.61c0.43-1.07,1.37-2.46,3.25-1.83
					c0.49,0.16,0.84,0.63,0.85,1.14c0.02,1.28-0.51,4.31-3.92,11.03l-1.86,2.29c-0.22,0.27,0.03,0.66,0.36,0.56
					c2.78-0.78,8.52-1.83,10.83-7.71c0.32-0.81,0.47-1.68,0.49-2.55C140.05,168.37,140.01,164.48,139.19,162.27z"/>
			</defs>
			<clipPath id="XMLID_2_">
				<use xlink:href="#XMLID_495_"  style="overflow:visible;"/>
			</clipPath>
			<path id="XMLID_544_" style="clip-path:url(#XMLID_2_);fill:#F0EAD6;" d="M139.19,162.27c0,0-1.75-6.2-4.37-8.93
				c-0.97-1.01-2.05-3.56-3.01-6.32l0.08,0.04c0,0-4.57-14.72-11.32-38.89c-1.07-3.82-2.97-5.68-3.44-9.24
				c-0.62-4.69-1.12-6.31-1.72-9.43c-0.28-1.47-2.49-6.9-3.83-9.34c-1.08-1.97-1.83-4.83-2.91-6.45c-0.34-0.52-0.74-1-1.09-1.48
				c-1.55-2.1-3.66-3.7-6.1-4.63c-2.19-0.84-5.48-1.3-8.87-1.62c-8.82-0.84-9.12-4.05-10.06-8.93c-0.12-0.62-0.18-1.18-0.17-1.66
				l-17.75,0.17c0,0,1.36,7.75-7.54,10.76c-0.69,0.23-1.41,0.39-2.14,0.44c-4.23,0.28-15.21-0.75-18.89,12.3
				c-0.34,1.22-0.75,2.42-1.34,3.54c-1.16,2.21-3.13,7.17-3.09,15.39c0.02,4.68-1.9,6.45-3.1,11.8c-1.91,8.55-2.01,5.75-4.29,13.55
				c-0.89,3.05-7.72,27.4-10.33,30.01c-2.33,2.33-2.57,4.35-4.37,8.93c-0.47,1.18-0.83,0.96-0.78,9.22c0.02,3.18,2.73,5.75,5.57,7.2
				c2.39,1.22,5.21,2.4,6.75,2.15c0,0-7.37-9.5-6.43-15c0,0,4.18-2.25,4.63,4.62c0.05,0.76,1.46,0.25,1.55-0.51
				c0.24-1.91,0.57-4.92,0.62-7.25c0.05-2.13-1.47-6.12-0.54-8.03c2.35-4.79,8.16-13.79,10-16.67c2.43-5.96,5.8-11.49,9.98-16.39
				l1.86-2.17c1.12-1.31,1.91-2.89,2.23-4.59c0.24-1.28,0.38-2.6,0.59-3.66l1.81-9.22l3.16,24.56c-0.83,2.69-3.27,11.01-5.46,22.13
				c-2.75,13.97-5.09,32.35-3.32,49.55c0,0,2.53,13.5,6.52,17c0,0,1.52,8.41,0.33,11.01c-0.33,0.72-0.59,1.47-0.57,2.27
				c0.03,0.96,0.26,2.29,1.03,3.97c0,0-6.45,24.25,0,47.75c0,0,1.2,8.5,1.45,10.75c0,0-2,2.5,0,4.75c0,0-11.25,11.75-14,14.5
				c0,0-3,6.22,4.75,6.22c0,0,11.6,0.03,12.25-4.82c0.11-0.78,0.21-1.55,0.49-2.28c0.82-2.19,2.49-6.26,3.76-6.63c0,0,3-3.25,0-6.25
				c0,0,0.65-1.77,0.76-3.84c0.25-4.71,0.8-9.39,1.99-13.94c2.08-7.95,4.54-18.31,4.24-21.97c-0.5-6.25,0-19.5-2.25-25.25
				c0,0,2.3-0.75,2.27-13.25c0,0,5.78-34.69,5.33-46.78h3.88l-0.1,1.09c-3,4.5,7.38,45.68,7.38,45.68
				c-0.02,12.5,2.27,13.25,2.27,13.25c-2.25,5.75-1.75,19-2.25,25.25c-0.36,4.49,3.41,19.03,5.56,26.87
				c0.71,2.57,0.84,5.24,0.68,7.9c-0.15,2.51,0.76,4.98,0.76,4.98c-3,3,0,6.25,0,6.25c1.27,0.36,2.94,4.44,3.76,6.63
				c0.27,0.73,0.38,1.5,0.49,2.28c0.66,4.84,12.25,4.82,12.25,4.82c7.75,0,4.75-6.22,4.75-6.22c-2.75-2.75-14-14.5-14-14.5
				c2-2.25,0-4.75,0-4.75c0.25-2.25,1.45-10.75,1.45-10.75c6.4-34.5,0-47.75,0-47.75c0.26-0.56,0.48-1.1,0.67-1.61
				c0.75-1.99,0.93-4.13,0.69-6.25c-0.37-3.25,1.54-9.89,1.54-9.89c3.98-3.5,6.63-20.74,6.63-20.74c3.5-34-8.99-68.37-8.99-68.37
				l2.07-25.37l0.52,1.26c1.8,4.35,2.27,4.63,3.09,9.27c0,0,1.77,8.21,2.99,9.43c2.15,2.17,3.98,4.62,5.43,7.28
				c0.08,0.14,0.16,0.29,0.24,0.43c1.05,1.87,2.31,3.62,3.75,5.21c0.89,0.99,2.08,2.4,3.28,4.07c1.51,2.12,4.26,8.85,5.57,10.87
				c0.22,0.34,2.11,2.21,2.6,2.96c0.86,1.35,1.12,2.91,1.12,4.46c0,3.25-0.49,1.59-0.68,10.86c0,0,0.18,4.52,1.43,4.52
				c0,0,0.86,0.22,0.79-1.86c-0.02-0.55,0.08-1.1,0.29-1.61c0.43-1.07,1.37-2.46,3.25-1.83c0.49,0.16,0.84,0.63,0.85,1.14
				c0.02,1.28-0.51,4.31-3.92,11.03l-1.86,2.29c-0.22,0.27,0.03,0.66,0.36,0.56c2.78-0.78,8.52-1.83,10.83-7.71
				c0.32-0.81,0.47-1.68,0.49-2.55C140.05,168.37,140.01,164.48,139.19,162.27z"/>
			<path id="XMLID_543_" style="clip-path:url(#XMLID_2_);fill:#EE4036;" d="M73.32,179.56l33.99,1c0,0-0.01-32.4-9.48-53.95
				l2.08-25.37l4.29,15.35c0,0,12.6-2.61,16.85-8.04c0,0-8.43-40.44-12.43-41.22c0,0-17.14-2.43-19.62-2.18
				c-1.5,0.15-16,26.9-16,26.9L58.45,65.14c0,0-28.82-1.53-30.57,3.19v38.22c0,0,8.71,10.12,17.96,10.87l1.92-12l-0.12,23.12
				l-7.88,52l30.62-1H73.32z"/>
			<path id="XMLID_542_" style="clip-path:url(#XMLID_2_);fill:none;" d="M139.19,162.27c0,0-1.75-6.2-4.37-8.93
				c-0.97-1.01-2.05-3.56-3.01-6.32l0.08,0.04c0,0-4.57-14.72-11.32-38.89c-1.07-3.82-2.97-5.68-3.44-9.24
				c-0.62-4.69-1.12-6.31-1.72-9.43c-0.28-1.47-2.49-6.9-3.83-9.34c-1.08-1.97-1.83-4.83-2.91-6.45c-0.34-0.52-0.74-1-1.09-1.48
				c-1.55-2.1-3.66-3.7-6.1-4.63c-2.19-0.84-5.48-1.3-8.87-1.62c-8.82-0.84-9.12-4.05-10.06-8.93c-0.12-0.62-0.18-1.18-0.17-1.66
				l-17.75,0.17c0,0,1.36,7.75-7.54,10.76c-0.69,0.23-1.41,0.39-2.14,0.44c-4.23,0.28-15.21-0.75-18.89,12.3
				c-0.34,1.22-0.75,2.42-1.34,3.54c-1.16,2.21-3.13,7.17-3.09,15.39c0.02,4.68-1.9,6.45-3.1,11.8c-1.91,8.55-2.01,5.75-4.29,13.55
				c-0.89,3.05-7.72,27.4-10.33,30.01c-2.33,2.33-2.57,4.35-4.37,8.93c-0.47,1.18-0.83,0.96-0.78,9.22c0.02,3.18,2.73,5.75,5.57,7.2
				c2.39,1.22,5.21,2.4,6.75,2.15c0,0-7.37-9.5-6.43-15c0,0,4.18-2.25,4.63,4.62c0.05,0.76,1.46,0.25,1.55-0.51
				c0.24-1.91,0.57-4.92,0.62-7.25c0.05-2.13-1.47-6.12-0.54-8.03c2.35-4.79,8.16-13.79,10-16.67c2.43-5.96,5.8-11.49,9.98-16.39
				l1.86-2.17c1.12-1.31,1.91-2.89,2.23-4.59c0.24-1.28,0.38-2.6,0.59-3.66l1.81-9.22l3.16,24.56c-0.83,2.69-3.27,11.01-5.46,22.13
				c-2.75,13.97-5.09,32.35-3.32,49.55c0,0,2.53,13.5,6.52,17c0,0,1.52,8.41,0.33,11.01c-0.33,0.72-0.59,1.47-0.57,2.27
				c0.03,0.96,0.26,2.29,1.03,3.97c0,0-6.45,24.25,0,47.75c0,0,1.2,8.5,1.45,10.75c0,0-2,2.5,0,4.75c0,0-11.25,11.75-14,14.5
				c0,0-3,6.22,4.75,6.22c0,0,11.6,0.03,12.25-4.82c0.11-0.78,0.21-1.55,0.49-2.28c0.82-2.19,2.49-6.26,3.76-6.63c0,0,3-3.25,0-6.25
				c0,0,0.65-1.77,0.76-3.84c0.25-4.71,0.8-9.39,1.99-13.94c2.08-7.95,4.54-18.31,4.24-21.97c-0.5-6.25,0-19.5-2.25-25.25
				c0,0,2.3-0.75,2.27-13.25c0,0,5.78-34.69,5.33-46.78h3.88l-0.1,1.09c-3,4.5,7.38,45.68,7.38,45.68
				c-0.02,12.5,2.27,13.25,2.27,13.25c-2.25,5.75-1.75,19-2.25,25.25c-0.36,4.49,3.41,19.03,5.56,26.87
				c0.71,2.57,0.84,5.24,0.68,7.9c-0.15,2.51,0.76,4.98,0.76,4.98c-3,3,0,6.25,0,6.25c1.27,0.36,2.94,4.44,3.76,6.63
				c0.27,0.73,0.38,1.5,0.49,2.28c0.66,4.84,12.25,4.82,12.25,4.82c7.75,0,4.75-6.22,4.75-6.22c-2.75-2.75-14-14.5-14-14.5
				c2-2.25,0-4.75,0-4.75c0.25-2.25,1.45-10.75,1.45-10.75c6.4-34.5,0-47.75,0-47.75c0.26-0.56,0.48-1.1,0.67-1.61
				c0.75-1.99,0.93-4.13,0.69-6.25c-0.37-3.25,1.54-9.89,1.54-9.89c3.98-3.5,6.63-20.74,6.63-20.74c3.5-34-8.99-68.37-8.99-68.37
				l2.07-25.37l0.52,1.26c1.8,4.35,2.27,4.63,3.09,9.27c0,0,1.77,8.21,2.99,9.43c2.15,2.17,3.98,4.62,5.43,7.28
				c0.08,0.14,0.16,0.29,0.24,0.43c1.05,1.87,2.31,3.62,3.75,5.21c0.89,0.99,2.08,2.4,3.28,4.07c1.51,2.12,4.26,8.85,5.57,10.87
				c0.22,0.34,2.11,2.21,2.6,2.96c0.86,1.35,1.12,2.91,1.12,4.46c0,3.25-0.49,1.59-0.68,10.86c0,0,0.18,4.52,1.43,4.52
				c0,0,0.86,0.22,0.79-1.86c-0.02-0.55,0.08-1.1,0.29-1.61c0.43-1.07,1.37-2.46,3.25-1.83c0.49,0.16,0.84,0.63,0.85,1.14
				c0.02,1.28-0.51,4.31-3.92,11.03l-1.86,2.29c-0.22,0.27,0.03,0.66,0.36,0.56c2.78-0.78,8.52-1.83,10.83-7.71
				c0.32-0.81,0.47-1.68,0.49-2.55C140.05,168.37,140.01,164.48,139.19,162.27z"/>
			
				<line id="XMLID_541_" style="clip-path:url(#XMLID_2_);fill:none;stroke:#404041;stroke-miterlimit:10;" x1="73" y1="91.18" x2="73" y2="171.44"/>
			<path id="XMLID_540_" class="st3" d="M29.43,103.3l-1.06,3.8c0,0,4.54,4.27,5.49,4.97c0,0,5.97,4.78,10.33,5.13l1.65,0.23
				l0.47-2.92C46.3,114.51,33.18,108.05,29.43,103.3z"/>
			<path id="XMLID_539_" class="st3" d="M102.38,175.8c-0.06-0.52-0.08-1.06-0.02-1.53c0.11-0.95-0.5-3.43-1.46-3.46
				c-0.13,0-1.44-0.23-2.01,0.19c-0.59,0.44-0.67,1.54-0.56,1.76c0.39,0.85,1.77,1.09,2.01,1.8c0.11,0.31-0.44,0.75-1.16,1.24l0,0
				c-2.1,0.86-4.46,0.88-6.57,0.05l-0.14-0.05c0.18-0.75,0.7-1.69,0.21-1.69c-2.75,0-0.98-2.31-1.82-3.3
				c-0.72-0.86-1.48-0.64-2.16,0.03c-1.04,1.02-2,2.92-1.83,4.97l-0.1,0.04c-1.47,0.56-3.1,0.55-4.56-0.04l0,0
				c-0.24-0.76,0.77-1.15,0.36-1.72c-1.67-2.31,1.44-2.37,1.55-3.66c0.09-1.12-0.59-1.5-1.54-1.5c-3.76,0-2.89,3.15-4.51,5.01
				c-1.01,1.17-1.57,1.59-1.62,1.88l-0.17,0.06c-1.24,0.45-2.58,0.62-3.89,0.49l-1.49,0.32c-1.37,0.3-2.81-0.02-3.93-0.87l0,0
				c-0.05-0.51-0.07-1.04-0.02-1.5c0.11-0.95-0.5-3.43-1.46-3.46c-0.13,0-1.44-0.23-2.01,0.19c-0.59,0.44-0.67,1.54-0.56,1.76
				c0.39,0.85,1.77,1.09,2.01,1.8c0.1,0.31-0.43,0.73-1.12,1.21l-0.94,0.43c-1.79,0.82-3.87,0.66-5.51-0.43h0l0,0
				c0.66-2,0.47-4.56-2.08-6.67c-0.74-0.61-3.03,0.17-3.73,0.83c-0.09,0.09-1.18,0.85-1.28,1.56c-0.1,0.73,1.36,0.92,1.59,1.01
				c0.87,0.32-0.75,2.55,0,2.55c0.98,0,1.39,0.3,1.54,0.73l-2.2,0.6c-1.51,0.41-3.13,0.2-4.48-0.6h0c-0.71-0.45-1.36-0.85-1.25-1.19
				c0.21-0.63,1.24-1.92,0.97-2.39c-0.22-0.38-0.92-0.55-1.88-0.4c-0.95,0.15-1.55,1.08-1.43,2.03c0.07,0.6,0.01,1.31-0.09,1.95
				h-0.1H37v4.92h74.75v-4.92l-4.01,0.7c-1.75,0.31-3.55,0.09-5.18-0.62L102.38,175.8z"/>
			<path id="XMLID_538_" class="st3" d="M120.07,103.99l-2.37,1.63c-0.02-0.47-0.05-0.94-0.11-1.39c-0.19-1.39-0.57-3.01-1.94-2.73
				c-0.61,0.13-0.62,0.8-0.69,1.03c-0.04,0.14-0.13,0.17-0.25,0.16c-1.24-0.15-1.97,1.28-0.99,2.06c0.15,0.12,0.32,0.24,0.52,0.35
				c0,0,1.7,0.67,1.8,1.63c-1.39,0.88-2.85,1.66-4.35,2.33c0.22-0.79,1.05-1.57,1.05-1.57c0.14-0.18,0.26-0.36,0.35-0.52
				c0.62-1.08-0.58-2.15-1.68-1.55c-0.11,0.06-0.2,0.06-0.29-0.05c-0.16-0.19-0.41-0.81-1.02-0.7c-1.38,0.25-1.13,1.89-0.8,3.25
				c0.15,0.62,0.38,1.27,0.61,1.87c-1.03,0.39-2.08,0.73-3.14,1.02c-0.57-0.63-0.93-1.65-0.93-1.65c1.09,0.57,1.41-0.6,1.41-0.6
				c0.38-0.88-1.2-1.79-1.29-1.81c-1.18-0.33-1.93,0.6-2.17,1.19c-0.03,0.08-0.06,0.19-0.09,0.33c-0.21,1.11,0.14,2.24,0.87,3.09
				l-2.86,0.7l1.17,4.88c0,0,17.12-3.42,19.33-10.21L120.07,103.99z"/>
			<path id="XMLID_537_" class="st3" d="M38.35,113.06c0,0,1.08-2.16,1.54-4.01c0.34-1.36,0.58-3.01-0.8-3.25
				c-0.62-0.11-0.87,0.52-1.02,0.7c-0.09,0.11-0.18,0.11-0.29,0.05c-1.09-0.6-2.3,0.47-1.68,1.55c0.1,0.17,0.21,0.34,0.35,0.52
				c0,0,2.06,1.94,0.56,2.77C35.52,112.23,38.35,113.06,38.35,113.06z"/>
			<path id="XMLID_536_" class="st3" d="M31.56,109.66c0,0-0.21-2.4,0.05-4.3c0.19-1.39,0.57-3.01,1.94-2.73
				c0.61,0.13,0.62,0.8,0.69,1.03c0.04,0.14,0.13,0.17,0.25,0.16c1.24-0.15,1.97,1.28,0.99,2.06c-0.15,0.12-0.32,0.24-0.52,0.35
				c0,0-2.63,1.04-1.54,2.37C34.5,109.93,31.56,109.66,31.56,109.66z"/>
			<path id="XMLID_535_" class="st3" d="M42.96,113.97l1.21-1.03c1.03-0.87,1.56-2.22,1.31-3.55c-0.03-0.14-0.06-0.26-0.09-0.33
				c-0.24-0.59-0.98-1.51-2.17-1.19c-0.09,0.02-1.66,0.94-1.29,1.81c0,0,0.33,1.17,1.42,0.6c0,0-0.56,1.64-1.42,2.04L42.96,113.97z"
				/>
			<path id="XMLID_534_" class="st3" d="M76.18,89.78L76.18,89.78c0.65,1.18,1.86,1.97,3.21,2c0.14,0,0.26,0,0.35-0.02
				c0.62-0.12,1.68-0.66,1.6-1.88c-0.01-0.09-0.58-1.82-1.52-1.62c0,0-0.3,0.02-0.56,0.19c-0.76,0.49-1.58,0.87-2.47,0.94
				C76.33,89.42,76.04,89.53,76.18,89.78z"/>
			<path id="XMLID_533_" class="st3" d="M65.21,142.34L65.21,142.34c0.65,1.18,1.86,1.97,3.21,2c0.14,0,0.26,0,0.35-0.02
				c0.62-0.12,1.68-0.66,1.6-1.88c-0.01-0.09-0.58-1.82-1.52-1.62c0,0-0.3,0.02-0.56,0.19c-0.76,0.49-1.58,0.87-2.47,0.94
				C65.37,141.98,65.07,142.08,65.21,142.34z"/>
			<path id="XMLID_532_" class="st3" d="M61.5,86.94L61.5,86.94c0.15-0.52,0.03-1.09-0.34-1.47c-0.04-0.04-0.08-0.07-0.1-0.09
				c-0.21-0.14-0.66-0.29-0.99,0.08c-0.02,0.03-0.35,0.68-0.03,0.89c0,0,0.09,0.08,0.21,0.11c0.35,0.07,0.69,0.2,0.97,0.44
				C61.35,87,61.46,87.06,61.5,86.94z"/>
			<circle id="XMLID_531_" style="clip-path:url(#XMLID_2_);fill:#FFF9CD;" cx="76.14" cy="96.97" r="1.08"/>
			<circle id="XMLID_530_" style="clip-path:url(#XMLID_2_);fill:#FFF9CD;" cx="76.14" cy="103.3" r="1.08"/>
			<circle id="XMLID_529_" style="clip-path:url(#XMLID_2_);fill:#FFF9CD;" cx="76.14" cy="109.19" r="1.08"/>
			<circle id="XMLID_528_" style="clip-path:url(#XMLID_2_);fill:#FFF9CD;" cx="76.14" cy="116.93" r="1.08"/>
			<circle id="XMLID_527_" style="clip-path:url(#XMLID_2_);fill:#FFF9CD;" cx="76.14" cy="125.05" r="1.08"/>
			<circle id="XMLID_526_" style="clip-path:url(#XMLID_2_);fill:#FFF9CD;" cx="76.14" cy="132.39" r="1.08"/>
			<circle id="XMLID_525_" style="clip-path:url(#XMLID_2_);fill:#FFF9CD;" cx="76.14" cy="139.38" r="1.08"/>
			<circle id="XMLID_524_" style="clip-path:url(#XMLID_2_);fill:#FFF9CD;" cx="76.14" cy="146.22" r="1.08"/>
			<circle id="XMLID_523_" style="clip-path:url(#XMLID_2_);fill:#FFF9CD;" cx="76.14" cy="152.05" r="1.08"/>
			<circle id="XMLID_522_" style="clip-path:url(#XMLID_2_);fill:#FFF9CD;" cx="76.14" cy="158.38" r="1.08"/>
			<path id="XMLID_521_" class="st3" d="M78.99,81.21c0,0,3.63-1.71,5.84-0.59c2.13,1.08,2.76,4.6,1.1,6.66
				c-0.02,0.02-1.71,1.76-3.1,1.49c-0.24-0.05-0.38-0.3-0.29-0.53c0.59-1.55,2.35-7.25-5.69-3.22L78.99,81.21z"/>
			<path id="XMLID_520_" class="st3" d="M64.77,77.18l1.65,2.69c0,0-2.7-0.66-3.01,3.28c-0.04,0.53-0.65,0.78-1.05,0.43
				c-0.45-0.39-0.85-1.08-0.73-2.28C61.62,81.3,62.35,77.05,64.77,77.18z"/>
			<path id="XMLID_519_" class="st3" d="M73.35,109.79l-0.57,2.48c0,0-1.59-2.28-4.43,0.47c-0.38,0.37-1,0.15-1.07-0.37
				c-0.08-0.59,0.08-1.37,0.96-2.2C68.24,110.17,71.91,107.2,73.35,109.79z"/>
			<path id="XMLID_518_" class="st3" d="M62.02,88.03c0,0,1.17,2.57,2.72,1.86c0.97-0.44,1.11-0.67,1.98-0.41
				c0.45,0.14,0.99-0.33,1.05-0.64c0.31-1.54,0.58-1.37,1.32-1.55c0.39-0.09,0.85-0.09,1.39,0.09l-0.18-0.33L68.65,84
				c0,0-0.12,0.02-0.3,0.07c-1.26,0.34-2.05,1.51-2.08,2.81c-0.01,0.33-0.08,0.67-0.29,0.89c-0.64,0.65-2.24,0.16-3.01-0.32
				C62.26,87,61.48,86.71,62.02,88.03z"/>
			<path id="XMLID_517_" class="st3" d="M81.87,76.15l2.09-3.59c0,0,3.09,3.49,5.9,0.18c0.97-1.14,3-0.34,1.92,1.72
				C91.79,74.46,89.59,77.49,81.87,76.15z"/>
			<path id="XMLID_516_" class="st3" d="M63.56,74.61l-1.96-3.66c0,0-3.22,3.37-5.91-0.05c-0.93-1.18-2.98-0.46-1.98,1.65
				C53.71,72.55,55.8,75.66,63.56,74.61z"/>
			<path id="XMLID_515_" class="st3" d="M58.45,65.14l0.27,0.5L73,92.05c0,0,14.12-26.12,15.71-26.72l1.17-0.19L73,93.99
				L57.15,65.91"/>
			<path id="XMLID_514_" style="clip-path:url(#XMLID_2_);fill:#FFF9CD;" d="M72.51,159.28c0,0-31.68-18.14-20.28-35.92
				c0,0,2.08-3.47,6.66-1.76c0,0,2.17-2.11,5.39-1.08c0,0,3.82-2.21,5.32-0.15c0.22,0.3,0.22,0.71,0.05,1.03l0,0
				c-0.49,0.91-1.47,1.46-2.5,1.36c-2.23-0.2-6.03-0.04-6.54,3.25c0,0-6.06-3.15-7.68,2c0,0-4.25,9.04,7.5,18.21
				c7.89,6.16,12.15,7.25,12.15,7.25L72.51,159.28z"/>
			<path id="XMLID_513_" class="st3" d="M70.36,119.44L70.36,119.44c-0.65-1.18-1.86-1.97-3.21-2c-0.14,0-0.26,0-0.35,0.02
				c-0.62,0.12-1.68,0.66-1.6,1.88c0.01,0.09,0.58,1.82,1.52,1.62c0,0,0.3-0.02,0.56-0.19c0.76-0.49,1.58-0.87,2.47-0.94
				C70.21,119.8,70.5,119.69,70.36,119.44z"/>
			<path id="XMLID_512_" class="st3" d="M65.05,116.01L65.05,116.01c0.15-0.52,0.03-1.09-0.34-1.47c-0.04-0.04-0.08-0.07-0.1-0.09
				c-0.21-0.14-0.66-0.29-0.99,0.08c-0.02,0.03-0.35,0.68-0.03,0.89c0,0,0.09,0.08,0.21,0.11c0.35,0.07,0.69,0.2,0.97,0.44
				C64.9,116.07,65.02,116.12,65.05,116.01z"/>
			<path id="XMLID_511_" class="st3" d="M72.51,125.05c0,0,0.95,2.98-3.76,3.81c-2.35,0.42-5.22-2.43-5.29-4.82c0-0.03,0-0.06,0-0.1
				c0,0,0.01-2.42,1.67-2.53c0,0,2.19,8.51,7.39-0.43V125.05z"/>
			<path id="XMLID_510_" class="st3" d="M69.88,157.21c0,0-1,2.37-4.39,0.38c-0.84-0.49-1.58-2.79-0.99-4.72
				c0.61-1.99,2.57-3.6,3.12-3.19c0,0-3.6,7.81,4.43,4.99L69.88,157.21z"/>
			<path id="XMLID_509_" class="st3" d="M72.51,157.41c0,0-3.12,4.92-9.16,2.54c-1.4-0.55-2.49-2.63-3.11-4.11
				c-0.49-1.17-0.44-2.53,0.25-3.6c0.35-0.54,0.82-0.98,1.44-1.02c0,0,0.92,10.88,10.57,2.13V157.41z"/>
			<path id="XMLID_508_" style="clip-path:url(#XMLID_2_);fill:#FFF9CD;" d="M97.93,65.93c0,0-3.37,4.43-0.53,6.65
				c0,0,1.33,4.59,5.17,2.25c0,0,2.76,1.2,5-2.59l1.07-4.9L97.93,65.93z"/>
			<path id="XMLID_507_" style="clip-path:url(#XMLID_2_);fill:#FFF9CD;" d="M29.7,71.06c0,0,1.04,10.03,7.54,9.45
				c0,0,7.45,4.42,9.61-3.43c0,0,5.13-1.84,3.4-9.62l-4.66-7.8L29.7,71.06z"/>
			<path id="XMLID_506_" style="clip-path:url(#XMLID_2_);fill:#FFF9CD;" d="M93.04,135.13c0.43-0.57,3.44-6.98-2.48-10.08
				c0,0-6.8-3.48-10,3c0,0-2.27,8.21,1.83,8.21c0,0,1.36,5.92,5.73,3.37c0,0,4.25,8.15,12.88-2.67s1.28-13.17-0.6-13.48
				c-1.44-0.24-1.9,0.24-2.01,0.77c-0.11,0.55,0.2,1.1,0.69,1.39c0.96,0.57,3.78,1.44,2.89,2.87c-1.01,1.64,0.73,1.58-2.27,4.38
				c-0.52,0.48-0.31,1.74-1.14,2.41c0,0-6.17,6.21-9.25,2c0,0-2.59,2.18-4.25-1.62c0,0-6.99-2.13-0.5-8.62c0,0,5.3-0.1,5.61,3.6
				c0.32,3.7-5.5,2.31-3.29-0.89l-1.85-0.2c0,0-2.65,6.71,3.86,5.43C88.89,134.98,91.17,137.63,93.04,135.13z"/>
			<path id="XMLID_505_" style="clip-path:url(#XMLID_2_);fill:#FFF9CD;" d="M104.37,152.31c-0.71,0.1-7.37,2.5-5.37,8.88
				c0,0,2.35,7.27,9.19,4.95c0,0,7.4-4.2,4.51-7.09c0,0,3.23-5.15-1.67-6.44c0,0,2.76-8.77-11-7.22s-10.21,8.41-9.11,9.96
				c0.85,1.19,1.52,1.18,1.97,0.87c0.47-0.32,0.63-0.92,0.49-1.47c-0.28-1.08-1.66-3.69-0.01-4.08c1.87-0.44,0.6-1.63,4.7-1.49
				c0.71,0.02,1.44-1.01,2.51-0.9c0,0,8.76-0.03,7.95,5.13c0,0,3.38,0.29,1.86,4.15c0,0,1.37,4.19-4.2,5.33
				c-2.22,0.45-4.46-1.12-4.48-3.38c-0.01-0.89,0.36-1.68,1.52-2c3.57-0.99,6.9,2.34,3.07,3.04l-0.22,1.37c0,0,6.62-2.87,1.11-6.57
				C107.21,155.35,107.47,151.87,104.37,152.31z"/>
		</g>
		<circle id="XMLID_493_" class="st1" cx="72.23" cy="28.75" r="4.76"/>
		<path id="XMLID_492_" class="st0" d="M76.22,28.75c0,1.86-2.12,3.33-3.98,3.33c-1.86,0-3.98-1.47-3.98-3.33s2.11-3.37,3.97-3.37
			C74.09,25.38,76.22,26.89,76.22,28.75z"/>
	</g>
	<rect id="XMLID_490_" x="68.84" y="170.42" class="st1" width="5.53" height="5"/>
</g>
</svg>
