<?xml version="1.0" encoding="utf-8"?>
<!-- Generator: Adobe Illustrator 19.2.1, SVG Export Plug-In . SVG Version: 6.00 Build 0)  -->
<svg version="1.1" id="Layer_1" xmlns="http://www.w3.org/2000/svg" xmlns:xlink="http://www.w3.org/1999/xlink" x="0px" y="0px"
	 viewBox="0 0 243.75 325.75" style="enable-background:new 0 0 243.75 325.75;" xml:space="preserve">
<style type="text/css">
	.st0{fill:#F0EAD6;}
	.st1{fill:#EE4036;}
	.st2{fill:#BE1E2D;}
	.st3{clip-path:url(#XMLID_2_);fill:#404041;}
	.st4{clip-path:url(#XMLID_2_);fill:none;stroke:#FFFFFF;stroke-width:2;stroke-miterlimit:10;}
	.st5{clip-path:url(#XMLID_3_);fill:#F0EAD6;}
	.st6{clip-path:url(#XMLID_3_);fill:#EE4036;}
	.st7{clip-path:url(#XMLID_3_);fill:none;}
	.st8{clip-path:url(#XMLID_3_);fill:none;stroke:#404041;stroke-miterlimit:10;}
	.st9{clip-path:url(#XMLID_3_);fill:#404041;}
	.st10{clip-path:url(#XMLID_3_);fill:#FFF9CD;}
	.st11{clip-path:url(#XMLID_4_);fill:#F0EAD6;}
	.st12{clip-path:url(#XMLID_4_);}
	.st13{clip-path:url(#XMLID_4_);fill:#D8D03E;}
	.st14{clip-path:url(#XMLID_4_);fill:none;}
	.st15{clip-path:url(#XMLID_4_);fill:#404041;}
	.st16{clip-path:url(#XMLID_4_);fill:#EE4036;}
	.st17{clip-path:url(#XMLID_4_);fill:#FFF9CD;}
	.st18{clip-path:url(#XMLID_5_);fill:#FFF9CD;}
	.st19{clip-path:url(#XMLID_5_);fill:none;stroke:#EE4036;stroke-width:1.5;stroke-miterlimit:10;}
	.st20{clip-path:url(#XMLID_4_);fill:none;stroke:#EE4036;stroke-width:1.5;stroke-miterlimit:10;}
	.st21{fill:#FFF9CD;}
	.st22{clip-path:url(#XMLID_6_);fill:#404041;}
	.st23{clip-path:url(#XMLID_6_);fill:#FFF9CD;}
	.st24{clip-path:url(#XMLID_6_);fill:#EE4036;}
	.st25{clip-path:url(#XMLID_6_);fill:#D8D03E;}
	.st26{fill:#404041;}
	.st27{fill:#FFFFFF;}
	.st28{fill:none;}
	.st29{fill:#00ADEE;}
	.st30{fill:#26A9E0;}
	.st31{clip-path:url(#XMLID_7_);fill:#1B75BB;}
	.st32{clip-path:url(#XMLID_7_);fill:#FFFFFF;}
	.st33{clip-path:url(#XMLID_8_);fill:#E5E2B6;}
	.st34{clip-path:url(#XMLID_8_);fill:#EE4036;}
	.st35{clip-path:url(#XMLID_8_);fill:#FFFFFF;}
	.st36{fill:#D7182A;}
	.st37{clip-path:url(#XMLID_9_);fill:#FFF9CD;}
	.st38{clip-path:url(#XMLID_9_);fill:#EE4036;}
	.st39{clip-path:url(#XMLID_9_);fill:#58595B;}
	.st40{clip-path:url(#XMLID_10_);fill:#FFF9CD;}
	.st41{clip-path:url(#XMLID_10_);fill:#EE4036;}
	.st42{clip-path:url(#XMLID_10_);fill:#58595B;}
	.st43{fill:none;stroke:#58595B;stroke-width:1.5;stroke-miterlimit:10;}
	.st44{fill:#58595B;}
	.st45{fill:#A6A8AB;}
	.st46{clip-path:url(#XMLID_11_);fill:#EE4036;}
	.st47{clip-path:url(#XMLID_11_);}
	.st48{clip-path:url(#XMLID_11_);fill:none;stroke:#404041;stroke-miterlimit:10;}
	.st49{clip-path:url(#XMLID_12_);fill:#EE4036;}
	.st50{clip-path:url(#XMLID_12_);}
	.st51{clip-path:url(#XMLID_12_);fill:none;stroke:#404041;stroke-miterlimit:10;}
	.st52{clip-path:url(#XMLID_13_);fill:#D8D03E;}
	.st53{clip-path:url(#XMLID_13_);fill:#00ADEE;}
	.st54{clip-path:url(#XMLID_13_);fill:#EE4036;}
	.st55{clip-path:url(#XMLID_14_);fill:#D8D03E;}
	.st56{clip-path:url(#XMLID_14_);fill:#EE4036;}
	.st57{clip-path:url(#XMLID_14_);fill:#00ADEE;}
	.st58{fill:none;stroke:#404041;stroke-width:1.5;stroke-miterlimit:10;}
	.st59{fill:#EF4136;}
	.st60{opacity:0.51;fill:#BE1E2D;}
	.st61{clip-path:url(#XMLID_15_);fill:#404041;}
	.st62{clip-path:url(#XMLID_15_);fill:#FFF9CD;}
	.st63{fill:#D8D03E;}
	.st64{opacity:0.28;fill:#FFF9CD;}
	.st65{fill:#1B75BB;}
	.st66{clip-path:url(#XMLID_16_);fill:#D8D03E;}
	.st67{clip-path:url(#XMLID_16_);fill:#404041;}
	.st68{opacity:0.62;fill:#D8D03E;}
</style>
<path id="XMLID_1086_" class="st0" d="M110.03,58.99l0.44-11.98c0-0.03-0.01-0.06-0.02-0.08c-0.14-0.21-0.87-1.4-1.42-3.06
	c-0.25-0.77-0.36-1.58-0.28-2.39c0-0.01,0-0.03,0-0.04c0.14-1.56-0.3-3.11-1.22-4.38c-0.46-0.63-0.89-1.47-0.89-2.39
	c0,0-3.17-13.74,5.68-17.58c0,0,6.96-3.04,14.27,0.48c0,0,6.34,1.67,6.34,5.55c0,0-0.35,7.86,0,9.32c0,0.01,0,0.02,0.01,0.03
	c0.08,0.14,0.87,1.78-0.87,4.37c-0.01,0.02-0.02,0.03-0.02,0.05c-0.09,0.51-1.41,8.2-1.67,9.14l-0.51,2.02
	c-0.53,2.11-0.63,4.31-0.32,6.46c0.18,1.25-1.13,2.67-1.21,3.93l0,0l1.08,5.21c0,0.09-0.09,0.15-0.18,0.14l-18.69-4.02L110.03,58.99
	z"/>
<path id="XMLID_1085_" class="st1" d="M131.74,60.45c1.27,0.17,2.29-0.04,2.68-1.58c0.78-3.04-0.02-8.67-0.02-8.67
	c0-2.17,1.75-9.67,1.75-9.67l0,0c0.76-0.11,1.35-0.73,1.41-1.5c0.23-3.23-0.24-10.75-0.24-10.75c0.06-1.99,0.09-4.96-0.73-6.58
	c-0.54-1.08-1.98-1.01-2.12-1.69c-0.03-0.13,2.14,0.16,2.05,0.09c-0.94-0.69-0.91-0.99-1.32-1.36c-0.24-0.21,1.24,0.04,0.94-0.08
	l-1.82-0.93l0.97-0.91l-1.31-0.62l0.85-0.92l-1.14-0.83l1.05-0.92l-1.55-0.2l0.72-0.67l-1.34-0.74l0.12-0.97l-0.86,0.33l0.83-1.58
	l-1.42,0.08l0.5-1L130.4,9.2l0.67-1.04l-1.71,0.08l-0.08-0.92l-1.33,0.75l0.29-1l-1.23,0.59l-0.14-1.17l-0.99,0.98l-0.42-0.93
	l-0.82,0.58l-0.56-1l-0.7,0.49l-0.47-0.69l-0.58,0.43l-0.83-0.55l-0.54,0.65l-0.6-0.48l-0.42,0.98l-0.85-0.48l-0.67,1.08l-0.75-0.67
	l-0.88,0.96l-1.21-0.58l-0.96,0.79l-1.33-0.12l-0.46,1.92l-0.83,0.12l-0.75,1.42h-0.83l-0.25,1l-1.11,0.25v0.83l-1.06,0.12
	l-0.05,0.7l-1.04,0.38l0.26,0.65l-0.92,0.57l0.5,0.62l-1.75,0.96h0.79l0.54,0.42l-1.83,0.96l0.71,0.54l-1.04,1.25h1.33
	c-2.83,2.42-2.17,7.33-1.58,7.83c0.42,0.36,0.75,2.24,0.9,3.29c0.07,0.45,0.05,0.9,0,1.35c-0.42,3.59,0.92,7.67,1.69,9.66
	c0.28,0.72,0.41,1.47,0.38,2.24c-0.07,1.93,0.12,5.8,0.12,5.8c0.44,2.25,0.23,3.08,0,6.91c-0.01,0.14-0.01,0.28-0.02,0.42
	c0,0.03,0,0.07,0,0.1c-0.01,1.78,1.89,2.92,3.49,2.16l0.19-0.09c1.5-0.67,0.88-1.63,0.71-2.63l-0.15-0.87l-0.08-9.76
	c0-0.29-0.08-0.57-0.24-0.82c-0.01-0.01-0.01-0.02-0.02-0.03c-0.93-1.53-1.43-3.3-1.3-5.08c0.07-0.92-0.1-2.23-1.04-3.8
	c-0.51-0.85-1.62-2.66-1.12-3.58c0.73-1.35,0.82-3.45,0.75-5.38c-0.04-1.12,0.27-2.2,0.83-3.18c0.3-0.53,0.57-1.07,0.82-1.63
	c0.77-1.74,3.12-5.84,8.65-5.4c0.38,0.03,2.98,0.41,3.36,0.4c1.96-0.07,6.05,2.1,8.71,5.77c0.61,0.84,0.32,2.33,0.75,3.08
	c1.23,2.17,0.01,4.17,0.13,8.11c0.04,1.13-0.02,2.25-0.24,3.35c-0.64,3.2-1.9,9.59-1.97,10.09l-0.25,7.69l-0.03,1.22
	c-0.02,1.01,0.62,1.91,1.58,2.22L131.74,60.45z"/>
<path id="XMLID_1084_" class="st0" d="M131.93,31.7c0.51,0,1,0.11,1.46,0.33c1.03,0.5,2.68,1.62,2.68,3.67c0,0,0.46,1.72-1.08,4.14
	c0,0-1.17,3.03-2.42,3.11c0,0-1.43,0.42-2.17,0l0.63-11.25H131.93z"/>
<path id="XMLID_1083_" class="st0" d="M109.64,42.52c0,0-1.48,0.75-1.92-1.13c0,0-0.92-1.97-1.8-3.44
	c-0.37-0.61-0.64-1.28-0.78-1.98c-0.06-0.3-0.08-0.6-0.04-0.82c0.26-1.3,1.48-2.07,2.35-1.44l2.18,5.43V42.52z"/>
<path id="XMLID_1082_" class="st1" d="M199.57,306.97c0,0-1.25-2.96-6.5-2.96c0,0-6.29-0.28-8.25-2.5l-28.61,3.69v3.41h43.36V306.97
	z"/>
<path id="XMLID_1081_" class="st2" d="M156.21,306.97v7.95c0,1.18,0.91,2.16,2.08,2.24c5.28,0.38,19.12,1.36,24.38,1.73
	c0.93,0.07,1.84,0.25,2.73,0.53c2.02,0.62,6.75,1.39,12.95-1.95c0.75-0.41,1.23-1.19,1.23-2.05l0-8.46c0,0-20.33,2.54-28.83-1.76
	c-7.78-3.94-6.51,1.54-6.51,1.54L156.21,306.97"/>
<path id="XMLID_1080_" class="st1" d="M37.62,306.97c0,0,1.25-2.96,6.5-2.96c0,0,6.29-0.28,8.25-2.5l28.61,3.69v3.41H37.62V306.97z"
	/>
<path id="XMLID_1079_" class="st2" d="M80.99,306.97v7.95c0,1.18-0.91,2.16-2.08,2.24c-5.28,0.38-19.12,1.36-24.38,1.73
	c-0.93,0.07-1.84,0.25-2.73,0.53c-2.02,0.62-6.75,1.39-12.95-1.95c-0.75-0.41-1.23-1.19-1.23-2.05l0-8.46c0,0,20.33,2.54,28.83-1.76
	c7.78-3.94,6.51,1.54,6.51,1.54L80.99,306.97"/>
<circle id="XMLID_1078_" class="st1" cx="119.64" cy="25.52" r="4.76"/>
<path id="XMLID_1077_" class="st0" d="M123.63,25.52c0,1.86-2.12,3.33-3.98,3.33c-1.86,0-3.98-1.47-3.98-3.33
	c0-1.86,2.11-3.37,3.97-3.37C121.5,22.15,123.63,23.65,123.63,25.52z"/>
<g id="XMLID_1060_">
	<defs>
		<path id="XMLID_1061_" d="M232.89,237.41c4.19-5.33,0-10.67,0-10.67c-2.39-3.21-2.06-4.84-1.61-5.55c0.47-0.74,0.91-1.5,1.14-2.35
			c0.74-2.73,0.48-5.73,0.08-7.93c-0.31-1.67-0.93-3.27-1.8-4.73c-3.02-5.02-5.99-13.12-5.99-13.12
			c-0.67-4.33-14.17-15.17-14.17-15.17l-24.64-20.29c0.39-1.32,0.22-2.21,0.22-2.21c-0.5-0.92-1.92-2.83-1.92-2.83
			c0-1.09-0.45-2.78-0.85-4.06c-0.28-0.89-0.77-1.69-1.37-2.41c-1.32-1.62-2.54-5.03-2.54-5.03c-0.25-3.67-3-8.17-3-8.17
			c-1.5-1.33-1.58-3.5-1.58-3.5c-0.83-8.17-3.83-10.33-3.83-10.33c-1.25-1.67-2.83-7.83-2.83-7.83c-0.74-3.35-1.83-4.93-2.51-5.64
			c-0.49-0.5-0.89-1.07-1.18-1.71c-0.56-1.26-1.39-3.09-2-4.44c-0.52-1.14-0.77-2.39-0.75-3.65c0.1-6.67-1.21-10.51-1.75-11.81
			c-0.13-0.31-0.32-0.58-0.51-0.86c-0.92-1.31-0.64-2.64-0.64-2.64c-0.81-4.66-4.1-9.17-5.68-11.12c-0.2-0.34-0.49-0.67-0.84-0.99
			c0,0-0.02-0.02-0.02-0.02l0,0c-4.43-3.96-19.48-6.47-19.48-6.47l-3.6-7.19c-0.11-0.28-0.45-0.37-0.69-0.21
			c-8.43,5.61-14.77,2.48-17.3,0.67c-0.61-0.44-1.47-0.14-1.69,0.58l-2.99,6.46c0,0-8.16,3.59-9.41,4.46
			c-0.52,0.36-1.34,0.42-2.12,0.37c-2.21-0.15-4.4,0.41-6.32,1.5c-1.66,0.94-3.06,1.87-3.06,1.87s-5.29,7-6.12,11.83
			c0,0-1.83,8.33-2.5,11.83c0,0-1.83,9.83-3.5,13.5c0,0-2.5,5.67-3.5,6.83c0,0-1.33,2.83-2,5.5c0,0,0,0.67-2.83,4.5
			c0,0-1.35,2.8-2,6.19c-0.38,2-1.13,3.9-2.25,5.59c-1.37,2.05-2.98,5.51-3.08,10.56c0,0-1.63,5.71-1.82,10.25
			c-2.06,1.78-3.39,2.92-3.39,2.92c-5.25,1.88-10.25,9.12-10.25,9.12c-1.38,2.25-5.25,4.12-5.25,4.12
			c-2.23,1.27-4.37,2.73-5.99,3.92c-1.37,1-2.62,2.14-3.68,3.46c-1.44,1.79-4.32,4.75-4.32,4.75c-3.22,1.73-5.51,4.83-6.7,6.73
			c-0.55,0.88-0.88,1.85-1.07,2.87c-0.37,2.05-1.36,5.02-1.36,5.02c-1.62,2-3.62,10.38-3.62,10.38c0.38,3.62-0.75,6.62-0.75,6.62
			c-1.5,4.62,0,9,0,9c1.38,1.62,0.88,4,0.88,4c-1.12,3.62,1.62,13.5,1.62,13.5c0,1.38,0.62,4.12,0.62,4.12c0.12,3.5,2.88,7,2.88,7
			c2.5,2.12,3.88,6,3.88,6c0.75,3,2.5,6.12,2.5,6.12c1.75,1.62,2.88,7,2.88,7c1.17,2.11,2.36,4.35,3.09,5.74
			c0.42,0.79,0.62,1.66,0.71,2.55c0.67,6.35,10.66,15.46,10.66,15.46c20.67,19,65.33,7.33,65.33,7.33c2-2.33,2.33-66.67,2.33-66.67
			c2.33-4.67,2.67-20.67,2.67-20.67c-0.33-8.33,1.67-19.67,1.67-19.67c0-10.95,3.89-18.98,5.73-22.16c0.62-1.07,0.94-2.27,0.94-3.5
			h3.84c0.4,4.74,4.64,26.76,6.4,35.79c0.39,2.02,0.53,4.09,0.32,6.14c-0.85,8.2,2.11,28.4,2.11,28.4l1,23c0,1.67,3.67,36,3.67,36
			c46.67,17.21,66.54-9.48,70.77-16.42c0.57-0.93,1.37-1.7,2.31-2.25c7.32-4.25,15.25-20.56,17.95-26.49
			c0.56-1.23,1.43-2.25,2.44-3.15c3.09-2.74,3.86-8.36,3.86-8.36C231.37,237.74,232.89,237.41,232.89,237.41z M81.1,135.08
			c0.54-2,1.27-4.97,1.27-6.34c0,0,4.67-8.33,4.83-10.33l0,0c0.78-4.56,2.45-8.91,4.91-12.83l0.12-0.19
			C94.39,119.85,83.93,132.1,81.1,135.08z M150.79,126.41c0-1.2-0.26-1.83-0.56-2.16c-1.51-1.68-2.5-3.77-3.23-5.91
			c-3.08-9.03-1.07-15.06-0.67-16.12c0.85,2.52,2.12,5.86,2.12,5.86c1.42,2.42,1.67,4.33,1.67,4.33c0.08,2.08,3.42,9.17,3.42,9.17
			l-0.02,0.09c-0.42,2.04,0.15,4.14,1.44,5.77c1.42,1.81,3.33,5.05,3.33,5.05c0.48,0.99,0.52,2.09,0.43,2.98
			C152.92,131.28,150.79,126.41,150.79,126.41z"/>
	</defs>
	<clipPath id="XMLID_2_">
		<use xlink:href="#XMLID_1061_"  style="overflow:visible;"/>
	</clipPath>
	<path id="XMLID_1073_" class="st3" d="M232.89,237.41c4.19-5.33,0-10.67,0-10.67c-2.39-3.21-2.06-4.84-1.61-5.55
		c0.47-0.74,0.91-1.5,1.14-2.35c0.74-2.73,0.48-5.73,0.08-7.93c-0.31-1.67-0.93-3.27-1.8-4.73c-3.02-5.02-5.99-13.12-5.99-13.12
		c-0.67-4.33-14.17-15.17-14.17-15.17l-24.64-20.29c0.39-1.32,0.22-2.21,0.22-2.21c-0.5-0.92-1.92-2.83-1.92-2.83
		c0-1.09-0.45-2.78-0.85-4.06c-0.28-0.89-0.77-1.69-1.37-2.41c-1.32-1.62-2.54-5.03-2.54-5.03c-0.25-3.67-3-8.17-3-8.17
		c-1.5-1.33-1.58-3.5-1.58-3.5c-0.83-8.17-3.83-10.33-3.83-10.33c-1.25-1.67-2.83-7.83-2.83-7.83c-0.74-3.35-1.83-4.93-2.51-5.64
		c-0.49-0.5-0.89-1.07-1.18-1.71c-0.56-1.26-1.39-3.09-2-4.44c-0.52-1.14-0.77-2.39-0.75-3.65c0.1-6.67-1.21-10.51-1.75-11.81
		c-0.13-0.31-0.32-0.58-0.51-0.86c-0.92-1.31-0.64-2.64-0.64-2.64c-0.81-4.66-4.1-9.17-5.68-11.12c-0.2-0.34-0.49-0.67-0.84-0.99
		c0,0-0.02-0.02-0.02-0.02l0,0c-4.43-3.96-19.48-6.47-19.48-6.47l-3.6-7.19c-0.11-0.28-0.45-0.37-0.69-0.21
		c-8.43,5.61-14.77,2.48-17.3,0.67c-0.61-0.44-1.47-0.14-1.69,0.58l-2.99,6.46c0,0-8.16,3.59-9.41,4.46
		c-0.52,0.36-1.34,0.42-2.12,0.37c-2.21-0.15-4.4,0.41-6.32,1.5c-1.66,0.94-3.06,1.87-3.06,1.87s-5.29,7-6.12,11.83
		c0,0-1.83,8.33-2.5,11.83c0,0-1.83,9.83-3.5,13.5c0,0-2.5,5.67-3.5,6.83c0,0-1.33,2.83-2,5.5c0,0,0,0.67-2.83,4.5
		c0,0-1.35,2.8-2,6.19c-0.38,2-1.13,3.9-2.25,5.59c-1.37,2.05-2.98,5.51-3.08,10.56c0,0-1.63,5.71-1.82,10.25
		c-2.06,1.78-3.39,2.92-3.39,2.92c-5.25,1.88-10.25,9.12-10.25,9.12c-1.38,2.25-5.25,4.12-5.25,4.12c-2.23,1.27-4.37,2.73-5.99,3.92
		c-1.37,1-2.62,2.14-3.68,3.46c-1.44,1.79-4.32,4.75-4.32,4.75c-3.22,1.73-5.51,4.83-6.7,6.73c-0.55,0.88-0.88,1.85-1.07,2.87
		c-0.37,2.05-1.36,5.02-1.36,5.02c-1.62,2-3.62,10.38-3.62,10.38c0.38,3.62-0.75,6.62-0.75,6.62c-1.5,4.62,0,9,0,9
		c1.38,1.62,0.88,4,0.88,4c-1.12,3.62,1.62,13.5,1.62,13.5c0,1.38,0.62,4.12,0.62,4.12c0.12,3.5,2.88,7,2.88,7
		c2.5,2.12,3.88,6,3.88,6c0.75,3,2.5,6.12,2.5,6.12c1.75,1.62,2.88,7,2.88,7c1.17,2.11,2.36,4.35,3.09,5.74
		c0.42,0.79,0.62,1.66,0.71,2.55c0.67,6.35,10.66,15.46,10.66,15.46c20.67,19,65.33,7.33,65.33,7.33c2-2.33,2.33-66.67,2.33-66.67
		c2.33-4.67,2.67-20.67,2.67-20.67c-0.33-8.33,1.67-19.67,1.67-19.67c0-10.95,3.89-18.98,5.73-22.16c0.62-1.07,0.94-2.27,0.94-3.5
		h3.84c0.4,4.74,4.64,26.76,6.4,35.79c0.39,2.02,0.53,4.09,0.32,6.14c-0.85,8.2,2.11,28.4,2.11,28.4l1,23c0,1.67,3.67,36,3.67,36
		c46.67,17.21,66.54-9.48,70.77-16.42c0.57-0.93,1.37-1.7,2.31-2.25c7.32-4.25,15.25-20.56,17.95-26.49
		c0.56-1.23,1.43-2.25,2.44-3.15c3.09-2.74,3.86-8.36,3.86-8.36C231.37,237.74,232.89,237.41,232.89,237.41z M81.1,135.08
		c0.54-2,1.27-4.97,1.27-6.34c0,0,4.67-8.33,4.83-10.33l0,0c0.78-4.56,2.45-8.91,4.91-12.83l0.12-0.19
		C94.39,119.85,83.93,132.1,81.1,135.08z M150.79,126.41c0-1.2-0.26-1.83-0.56-2.16c-1.51-1.68-2.5-3.77-3.23-5.91
		c-3.08-9.03-1.07-15.06-0.67-16.12c0.85,2.52,2.12,5.86,2.12,5.86c1.42,2.42,1.67,4.33,1.67,4.33c0.08,2.08,3.42,9.17,3.42,9.17
		l-0.02,0.09c-0.42,2.04,0.15,4.14,1.44,5.77c1.42,1.81,3.33,5.05,3.33,5.05c0.48,0.99,0.52,2.09,0.43,2.98
		C152.92,131.28,150.79,126.41,150.79,126.41z"/>
	<path id="XMLID_1072_" class="st4" d="M165.81,142.5l-18.74-44.16l-2.37,3.95c-3.42,5.7-4.13,12.73-1.52,18.85
		c3.96,9.29,11.89,14.32,11.89,14.32c6.65,1.52,30.28,24.55,37.93,32.14c1.08,1.07,2.03,2.26,2.96,3.46c1.3,1.68,4.6,4.15,7.08,5.89
		c1.33,0.93,2.73,1.76,4.21,2.43c6.6,2.95,15.48,19.96,15.48,19.96c13.01,31.4,2.5,53.92-0.98,60.01c-0.5,0.88-0.99,1.77-1.39,2.7
		c-3.58,8.29-25.47,29.84-27.48,31.81c-0.1,0.1-0.21,0.19-0.32,0.27c-26.96,18.48-57.6,3.45-57.6,3.45l-29.1-3.22
		c-13.87,7.65-45.79,4.35-45.79,4.35c-21-3.3-30.33-30.37-30.33-30.37c-3-5.67-9.67-18-9.67-18c-8.64-31.6,0-43.67,0-43.67
		c5.67-21.67,36.33-41.33,36.33-41.33c7-4.67,26.33-21,36.12-31.67c9.79-10.67,6.55-21,6.55-28.29S84.55,84.9,84.55,84.9l0.55-0.38
		c0.81-0.56,1.54-1.23,2.23-1.93c3.31-3.38,21.31-12.91,21.31-12.91l10-4.33l1.11,0.8c1.62,1.16,3.39,2.12,5.26,2.83
		c17.6,6.71,27.03,16.71,27.03,16.71l-3.54,5.65c-0.28,0.45-0.61,0.88-0.96,1.29l-7.53,8.54c-0.7,0.8-1.26,1.71-1.63,2.7
		c-5.07,13.6,6.95,27.49,6.95,27.49c2.25,4.67,26.75,23,26.75,23c9.67,9.33,31.67,27,31.67,27c15.33,12,20.67,42.67,20.67,42.67
		c3.81,46.07-35.98,65.84-39.72,67.59c-0.2,0.09-0.39,0.21-0.57,0.34c-21.64,15.37-51.38-0.21-51.38-0.21l-24.85-3.7
		c-0.05,1.41-10.98,4.57-16.66,5.76c-2.81,0.59-5.66,0.88-8.53,0.88H71.04c-4.9,0-9.76-1.07-14.13-3.27
		c-10.27-5.17-15.16-13.73-15.16-13.73l-9.27-16.01c-1-1.73-2.17-3.34-3.38-4.93c-8.81-11.57-9.02-32.72-9.02-32.72
		c2-22.67,15.67-35.67,15.67-35.67c3.59-3.88,34.23-29.74,40.54-35.05c0.64-0.54,1.35-0.99,2.13-1.3
		c9.06-3.56,19.29-19.25,22.76-24.93c0.85-1.39,1.39-2.94,1.58-4.56c3.28-26.83-13.2-37.48-13.2-37.48
		c11.89-8.41,29.09-14.69,29.09-14.69c15.42,6.42,28.74,15.85,28.74,15.85c-3.08,1.54-7.48,7.11-9.69,9.37
		c-0.75,0.76-1.37,1.64-1.84,2.6c-8.1,16.38,1.27,30.25,4.33,34.11c0.42,0.53,0.78,1.09,1.12,1.68
		c3.81,6.62,54.77,47.39,54.77,47.39c32,20.33,20.33,66,20.33,66c-8.33,26.67-33,40.33-33,40.33c-13.67,10.67-77.13-3.65-77.13-3.65
		c-5.79,4.02-27.87,5.32-27.87,5.32c-10.73,1.41-19.88-2.85-26.14-7.18c-4.78-3.31-8.61-7.82-11.31-12.97
		c-3.8-7.22-10.55-18.85-10.55-18.85c-13.33-25.67,1.67-50,1.67-50c5.67-8.67,44.33-39.92,44.33-39.92
		c30.33-21.58,31.72-42.55,31.72-42.55c-0.28-25.13-11.39-31.54-11.39-31.54l22.24-11.07l0.53-0.26l20.23,10.67
		c0,0-19.67,21-9.67,41.33c0,0,18.33,22.67,40,38.67c0,0,32.38,25.12,35.72,32.39c0.36,0.79,0.76,1.54,1.24,2.26
		c2.65,3.92,9.64,16.55,6.37,37.02c0,0-15.29,54.02-59.47,49.24c-1.44-0.16-2.89-0.16-4.34-0.1c-4.83,0.23-15.4,0.4-18.2-2.14
		c0,0-20.69-7.15-24.02-6.81c0,0-11.08,10.45-45.1,3.86c-1.77-0.34-3.45-1.03-4.97-2c-4.78-3.05-14.27-11.3-22.57-31.71
		c0,0-4.33-13.65-4.33-16.49c0,0,0-5.51,0-10.18c0,0,0.88-12.01,3.46-14.34c0.54-0.48,1.12-0.91,1.62-1.43
		c1.94-1.98,5.98-6.15,7.88-8.56c1.47-1.86,3.12-3.57,4.88-5.17c6.29-5.7,18.29-16.56,20.48-18.51c0,0,13.08-12.42,17.1-15.15
		c1.03-0.7,1.98-1.52,2.87-2.4l3.82-3.79c0,0,11.79-11.08,14.22-15.5c0.31-0.56,0.67-1.07,1.06-1.56c2.8-3.59,11.94-18.58-2.72-47.6
		l13.55-6.33c0,0,7.63,2.57,13.63,5.67c0,0-13.59,20-8.39,35.67c0,0,11.53,25,39.53,45.33c0,0,35,25.67,39.33,36.33
		c0,0,11.43,22,4,41.67c0,0-14,29-35.33,36c0,0-6.3,2.33-12.65,1.33c0,0-16.82-1.93-25.75-3.8l-25.6-4.35c0,0-12.42,7.59-40.33,3.15
		c0,0-13,0-25.75-25.75c0,0-4.93-13.15-5.11-19.7c-0.04-1.31-0.13-2.62-0.36-3.91c-0.69-3.98-1.35-12.89,4.46-20.39
		c0,0,4.75-9,9-11.25l31.78-29c0,0,23.72-19.5,24.22-22c0,0,12-14.91,12.25-24.83c0,0-0.75-21.92-7-31.42l8.07-3.75l6.68,2.5
		c0,0-11.14,18.97-3.45,41.73c0,0,18.7,27.77,34.7,37.27c0,0,34,28.5,41.25,38.5c0,0,7.82,11.22,5.43,32.08
		c-0.35,3.03-1.36,5.95-2.91,8.58c-4.16,7.05-13.5,21.67-22.27,27.09c0,0-9.5,10.25-46.75,0.75l-24.68-4.48
		c0,0-24.94,10.35-42.23,1.32c0,0-26.35-16.71-25-44c0,0-1-21.33,16.67-29c0,0,41.33-39,47-43.33c0,0,14.33-14.19,15-19.59
		c0,0,26.67,31.6,49.67,49.26c0,0,27.67,17.33,30,33.67c0,0,3.67,24.49-6,33.57c-1.04,0.98-1.89,2.14-2.64,3.36
		c-3,4.83-11.03,15.85-22.69,17.41c0,0-23.33,1.33-36-3l-23.66-5.67c0,0-26.26,13.82-43.68,0.67c0,0-21.33-19-19-34.33
		c0,0-1.67-20.67,20.33-34c0,0,36.5-31.99,43.92-39.99l11.19-12.01c0,0,34.35,38.33,43.29,42.67c0,0,29.6,20.67,29.94,31.67
		c0,0,5.52,23.23-11.73,38.67c0,0-10.34,17.12-49.3,8.4l-24.89-6.06c0,0-24.44,12.76-46.5-2.88c-0.43-0.3-0.79-0.69-1.06-1.14
		c-2.32-3.73-13.02-21.9-9.85-34.98c0,0,1-10,15-18.67c0,0,29-27.33,39.67-36.33l15.48-14.81c0,0,31.89,34.15,39.21,39.81
		c0,0,23.98,18,26.65,24c0,0,9.54,22.67-4.39,35c0,0-7.33,11.59-20.19,13.93c-2.58,0.47-5.23,0.38-7.81-0.09l-21.57-3.89
		l-24.55-5.61c0,0-12.47,7.66-29.84,4.99c0,0-17.87-2.56-23.65-28.67c0,0-3.1-10.55,4.94-16.17c0.98-0.68,1.9-1.44,2.72-2.31
		c4.62-4.95,19.57-20.77,24.34-23.85c0,0,20.51-21.43,24.57-23.51c0.72-0.37,1.39-0.83,2.05-1.3l6.43-4.53c0,0,13.96,12.67,16.62,14
		c0,0,16.33,19.67,30.67,29.67c0,0,17.33,11.33,17.67,20c0.33,8.67,1.67,21.67-13,31.67c0,0-9.06,9.96-39.19,0.31l-24.27-4.31
		c0,0-12.58,6.74-27.54,4.33c0,0-16.89,0.65-20.98-29.84c-0.07-0.55,0.03-1.11,0.28-1.61c1.48-2.9,7.25-13.12,17.05-18.24
		c0.85-0.44,1.64-0.99,2.3-1.69c4.45-4.7,22.4-23.66,25.02-26.28c0,0,6.98-9.31,11.45-11.05c1.19-0.47,2.37-0.96,3.45-1.65l0.47-0.3
		l5.43,4.67c0,0,5.74,7.17,8.86,8.95c1.12,0.64,2.11,1.46,3.04,2.36c6.97,6.72,29.72,28.53,35.62,33.03c0,0,12.38,8.37,4,28.67
		c0,0-8.07,22.22-44.37,8.94l-22.82-6.92c0,0-10.71,8.9-28.56,5.36c-0.18-0.04-0.36-0.09-0.53-0.16
		c-1.97-0.77-13.55-5.77-15.97-18.08c-0.48-2.42-0.16-4.92,0.93-7.13c1.39-2.81,4.12-6.73,9.28-9.77c0.68-0.4,1.32-0.87,1.88-1.43
		c4.72-4.76,27.92-28.21,33.08-34.49c0,0,6.92-6.33,7.5-7.33c0.58-1,0.58-1,0.58-1l5.47,0.67c0,0,0.86,7,11.53,14.67
		c0,0,24.51,26.48,33.89,31.66c1.28,0.7,2.41,1.63,3.26,2.81c2.61,3.64,6.37,11.57-0.82,21.19c0,0-5.95,10.67-19.48,8
		c0,0-13.73-2.43-19.46-3.38l-22.25-7.43c0,0-5.68,8.29-28.69,6.54c-0.61-0.05-1.2-0.21-1.75-0.48c-2.4-1.2-8.59-5.32-10.37-16.58
		c0,0-0.41-4.97,6.92-9.51c1.93-1.19,3.73-2.58,5.35-4.16c6.71-6.52,22.85-22.5,26.39-28.66c0,0,10.44-11.04,11.63-12.27
		c1.2-1.23,1.47,2.1,1.47,2.1s6.12,9.79,11.05,13.12c2.03,1.37,3.86,3.01,5.41,4.92c5.8,7.13,18.76,22.22,29.63,28.81
		c0.9,0.54,1.6,1.35,2.04,2.3c1.49,3.27,3.45,10.86-5.9,17.69c0,0-9.83,4.64-31.33-0.76l-22.08-6.69c0,0-9.42,6.46-18.75,5.79
		c0,0-12.67,0.33-13.67-4.17c0,0-1.43-3.73-2.49-5.76c-0.62-1.18-0.73-2.57-0.26-3.81c0.35-0.91,0.89-1.83,1.73-2.32
		c0.57-0.33,1.13-0.68,1.63-1.12c4.03-3.6,19.71-17.7,22.98-22.03c0.31-0.41,0.51-0.74,0.58-0.96c0.83-2.83,14.38-18.02,14.5-18.3
		c0.12-0.29,8.08,0.47,8.08,0.47s1.39,4.61,5.09,7.97c1.01,0.92,1.93,1.94,2.64,3.12c1.72,2.87,4.93,8.05,6.36,9.24
		c0,0,17,15.83,21,18.5c0,0,9,5.17,5.17,12.17c0,0-2.33,6.67-11.5,5.33l-23.33-2.67l-19.13-5.81c0,0-10.2,5.47-17.7,4.81
		c0,0-10.54,1.43-12.26-4.43c-0.27-0.93-0.14-1.93,0.29-2.8c0.71-1.44,2.2-3.86,4.86-5.61c1.08-0.71,2.12-1.48,3.03-2.4
		c3.74-3.76,13.06-13.39,16.75-19.59l9.33-14.41l10.64,5.24c0,0,6.62,10.4,8.68,12.11c0.57,0.47,1.06,1.01,1.56,1.55
		c3.84,4.21,15.62,17,17.29,17.84c0,0,7.33,4.17,6.5,8.33c0,0,0.17,4.33-8.33,2.5c0,0-17.5-2.17-22.5-2.33l-17.69-5.82
		c0,0-8.98,3.98-12.14,3.98c0,0-4.18,0.64-7.38,0.43c-1.8-0.12-2.77-2.14-1.72-3.6c0.96-1.34,2.72-3.12,5.93-5.33
		c0,0,16-22.67,17.5-26.17l14.34,2.02c0,0,6.33,12.98,10.67,17.15c0,0,8.21,8.64,11.5,11.17c0,0,2.67,3.33-5.67,3
		c0,0-11.33-1.5-14.5-1.5l-18.27-5.84c0,0-7.57,2.34-10.4,3.17c0,0-3.17,0.33,0.17-4.17c0,0,10.67-17.92,11.59-18.38
		c0.91-0.46,15.79,0,15.79,0s5.46,14.71,7.46,15.21c0,0,4.21,2.42,1.91,4.48c-0.65,0.58-1.52,0.85-2.39,0.87l-6.86,0.15l-18.58-5.67
		c0,0-1.88,0.08-1.65-2c0.25-2.23,2.26-3.84,4.5-3.87l15.54-0.18l4.19,6.04c0,0,1.09,1.51-2.45,1.5l-5.8-0.5"/>
	<path id="XMLID_1071_" class="st4" d="M152.04,85.68l6.7,24.33c0,0,5,14,6,17.33c0.15,0.5,0.26,0.91,0.33,1.24
		c0.52,2.45,1.22,4.84,2.23,7.13c2.45,5.53,5.85,13.08,6.27,13.46"/>
	<path id="XMLID_1070_" class="st4" d="M62.57,152.68c0,0,24.5-54.75,25.5-56.25c0.97-1.46,8.07,5.1,6.88,16.25
		c-0.06,0.6-0.08,1.2-0.04,1.8c0.24,3.22,0,15.49-16.08,25.45c0,0-19.52,13.76-26.08,22.64c-0.77,1.04-1.7,1.94-2.73,2.72
		c-5.73,4.37-23.53,18.34-30.2,28.14c0,0-11.54,18.91-8.14,39.46c0.08,0.49,0.14,0.98,0.16,1.48c0.14,3,0.99,15.07,5.61,19.39
		c0.62,0.58,1.19,1.22,1.63,1.95c0.95,1.58,2.64,4.4,4.2,7.03c2.03,3.42,3.73,7.02,5.08,10.76c1.94,5.37,5.45,13.94,8.95,16.94
		c0,0,19,23.68,68.25,8.59l2.75,0.16"/>
	<path id="XMLID_1069_" class="st4" d="M59.28,155.58c1-0.91,24.13-69.9,24.13-69.9c0.03-1.43,0.57-2.94,1.31-4.36
		c1.92-3.66,5.14-6.49,8.94-8.14c1.37-0.6,2.94-1.2,4.91-1.75c12.5-3.5,17.25-12.25,17.25-12.25v-4.77"/>
	<path id="XMLID_1068_" class="st4" d="M181.01,156.02c-1.06-4.16-5.69-7.84-6.19-13.09c-0.27-2.89-1.68-5.62-2.9-7.5
		c-1.06-1.64-1.88-3.43-2.32-5.33c-0.67-2.91-1.86-5.8-2.72-7.69c-0.6-1.31-1.02-2.7-1.29-4.12c-0.7-3.73-2.8-9.36-2.8-9.36
		c-0.86-1.53-2.42-5.95-3.33-8.62c-0.43-1.27-0.66-2.6-0.71-3.94c-0.37-9.53-6.72-18.19-6.72-18.19
		c-4.08-4.87-11.22-5.75-11.22-5.75c-10.08-2.73-16.34-7.25-19.29-9.83c-1.3-1.14-2.02-2.78-2.02-4.51v-3.68"/>
	<path id="XMLID_1067_" class="st4" d="M123.88,54.41c0,0,1.07,2,2.87,4.41c2.86,3.84,6.84,6.69,11.38,8.2
		c2.81,0.93,6.02,1.91,7.2,1.91c0,0,13.43,2.75,13.43,6.25"/>
	<path id="XMLID_1066_" class="st4" d="M112.57,53.18c0,0-0.59,10.85-8,12.17c0,0-14.02,2.58-17.76,8.08c0,0-10.22,8.9-9.74,13.5"/>
	<polygon id="XMLID_1065_" class="st4" points="115.82,90.68 118.03,94.45 121.07,90.68 118.45,89.43 	"/>
</g>
</svg>
