<?xml version="1.0" encoding="utf-8"?>
<!-- Generator: Adobe Illustrator 19.2.1, SVG Export Plug-In . SVG Version: 6.00 Build 0)  -->
<svg version="1.1" id="Layer_1" xmlns="http://www.w3.org/2000/svg" xmlns:xlink="http://www.w3.org/1999/xlink" x="0px" y="0px"
	 viewBox="0 0 666.25 330.3" style="enable-background:new 0 0 666.25 330.3;" xml:space="preserve">
<style type="text/css">
	.st0{fill:#F0EAD6;}
	.st1{fill:#EE4036;}
	.st2{fill:#BE1E2D;}
	.st3{clip-path:url(#XMLID_2_);fill:#404041;}
	.st4{clip-path:url(#XMLID_2_);fill:none;stroke:#FFFFFF;stroke-width:2;stroke-miterlimit:10;}
	.st5{clip-path:url(#XMLID_3_);fill:#F0EAD6;}
	.st6{clip-path:url(#XMLID_3_);fill:#EE4036;}
	.st7{clip-path:url(#XMLID_3_);fill:none;}
	.st8{clip-path:url(#XMLID_3_);fill:none;stroke:#404041;stroke-miterlimit:10;}
	.st9{clip-path:url(#XMLID_3_);fill:#404041;}
	.st10{clip-path:url(#XMLID_3_);fill:#FFF9CD;}
	.st11{clip-path:url(#XMLID_4_);fill:#F0EAD6;}
	.st12{clip-path:url(#XMLID_4_);}
	.st13{clip-path:url(#XMLID_4_);fill:#D8D03E;}
	.st14{clip-path:url(#XMLID_4_);fill:none;}
	.st15{clip-path:url(#XMLID_4_);fill:#404041;}
	.st16{clip-path:url(#XMLID_4_);fill:#EE4036;}
	.st17{clip-path:url(#XMLID_4_);fill:#FFF9CD;}
	.st18{clip-path:url(#XMLID_5_);fill:#FFF9CD;}
	.st19{clip-path:url(#XMLID_5_);fill:none;stroke:#EE4036;stroke-width:1.5;stroke-miterlimit:10;}
	.st20{clip-path:url(#XMLID_4_);fill:none;stroke:#EE4036;stroke-width:1.5;stroke-miterlimit:10;}
	.st21{fill:#FFF9CD;}
	.st22{clip-path:url(#XMLID_6_);fill:#404041;}
	.st23{clip-path:url(#XMLID_6_);fill:#FFF9CD;}
	.st24{clip-path:url(#XMLID_6_);fill:#EE4036;}
	.st25{clip-path:url(#XMLID_6_);fill:#D8D03E;}
	.st26{fill:#404041;}
	.st27{fill:#FFFFFF;}
	.st28{fill:none;}
	.st29{fill:#00ADEE;}
	.st30{fill:#26A9E0;}
	.st31{clip-path:url(#XMLID_7_);fill:#1B75BB;}
	.st32{clip-path:url(#XMLID_7_);fill:#FFFFFF;}
	.st33{clip-path:url(#XMLID_8_);fill:#E5E2B6;}
	.st34{clip-path:url(#XMLID_8_);fill:#EE4036;}
	.st35{clip-path:url(#XMLID_8_);fill:#FFFFFF;}
	.st36{fill:#D7182A;}
	.st37{clip-path:url(#XMLID_9_);fill:#FFF9CD;}
	.st38{clip-path:url(#XMLID_9_);fill:#EE4036;}
	.st39{clip-path:url(#XMLID_9_);fill:#58595B;}
	.st40{clip-path:url(#XMLID_10_);fill:#FFF9CD;}
	.st41{clip-path:url(#XMLID_10_);fill:#EE4036;}
	.st42{clip-path:url(#XMLID_10_);fill:#58595B;}
	.st43{fill:none;stroke:#58595B;stroke-width:1.5;stroke-miterlimit:10;}
	.st44{fill:#58595B;}
	.st45{fill:#A6A8AB;}
	.st46{clip-path:url(#XMLID_11_);fill:#EE4036;}
	.st47{clip-path:url(#XMLID_11_);}
	.st48{clip-path:url(#XMLID_11_);fill:none;stroke:#404041;stroke-miterlimit:10;}
	.st49{clip-path:url(#XMLID_12_);fill:#EE4036;}
	.st50{clip-path:url(#XMLID_12_);}
	.st51{clip-path:url(#XMLID_12_);fill:none;stroke:#404041;stroke-miterlimit:10;}
	.st52{clip-path:url(#XMLID_13_);fill:#D8D03E;}
	.st53{clip-path:url(#XMLID_13_);fill:#00ADEE;}
	.st54{clip-path:url(#XMLID_13_);fill:#EE4036;}
	.st55{clip-path:url(#XMLID_14_);fill:#D8D03E;}
	.st56{clip-path:url(#XMLID_14_);fill:#EE4036;}
	.st57{clip-path:url(#XMLID_14_);fill:#00ADEE;}
	.st58{fill:none;stroke:#404041;stroke-width:1.5;stroke-miterlimit:10;}
	.st59{fill:#EF4136;}
	.st60{opacity:0.51;fill:#BE1E2D;}
	.st61{clip-path:url(#XMLID_15_);fill:#404041;}
	.st62{clip-path:url(#XMLID_15_);fill:#FFF9CD;}
	.st63{fill:#D8D03E;}
	.st64{opacity:0.28;fill:#FFF9CD;}
	.st65{fill:#1B75BB;}
	.st66{clip-path:url(#XMLID_16_);fill:#D8D03E;}
	.st67{clip-path:url(#XMLID_16_);fill:#404041;}
	.st68{opacity:0.62;fill:#D8D03E;}
</style>
<rect id="XMLID_2659_" x="9.07" y="11.71" class="st26" width="641.59" height="276.97"/>
<rect id="XMLID_2658_" x="240.08" y="76.75" class="st21" width="1.09" height="16.39"/>
<rect id="XMLID_2657_" x="240.06" y="76.75" transform="matrix(1.674410e-10 1 -1 1.674410e-10 325.3702 -155.4729)" class="st21" width="0.72" height="16.39"/>
<rect id="XMLID_2656_" x="240.18" y="76.75" transform="matrix(0.7071 -0.7071 0.7071 0.7071 10.4098 195.0288)" class="st21" width="0.88" height="16.39"/>
<rect id="XMLID_2655_" x="240.19" y="76.75" transform="matrix(0.7071 0.7071 -0.7071 0.7071 130.5453 -145.267)" class="st21" width="0.87" height="16.39"/>
<g id="XMLID_2650_">
	<rect id="XMLID_2654_" x="279.11" y="47.45" class="st21" width="1.71" height="25.88"/>
	
		<rect id="XMLID_2653_" x="279.08" y="47.45" transform="matrix(1.766976e-10 1 -1 1.766976e-10 340.0434 -219.2544)" class="st21" width="1.13" height="25.88"/>
	
		<rect id="XMLID_2652_" x="279.27" y="47.45" transform="matrix(0.7071 -0.7071 0.7071 0.7071 39.2962 215.6585)" class="st21" width="1.4" height="25.88"/>
	
		<rect id="XMLID_2651_" x="279.29" y="47.45" transform="matrix(0.7071 0.7071 -0.7071 0.7071 124.7069 -180.2802)" class="st21" width="1.37" height="25.88"/>
</g>
<rect id="XMLID_2649_" x="279.11" y="101.68" class="st21" width="1.09" height="16.39"/>
<rect id="XMLID_2648_" x="279.09" y="101.68" transform="matrix(1.801260e-10 1 -1 1.801260e-10 389.3239 -169.5661)" class="st21" width="0.72" height="16.39"/>
<rect id="XMLID_2647_" x="279.21" y="101.68" transform="matrix(0.7071 -0.7071 0.7071 0.7071 4.2111 229.9244)" class="st21" width="0.88" height="16.39"/>
<rect id="XMLID_2646_" x="279.22" y="101.68" transform="matrix(0.7071 0.7071 -0.7071 0.7071 159.6034 -165.5588)" class="st21" width="0.87" height="16.39"/>
<g id="XMLID_2641_">
	<rect id="XMLID_2645_" x="205.85" y="49.14" class="st21" width="0.75" height="11.26"/>
	
		<rect id="XMLID_2644_" x="205.84" y="49.14" transform="matrix(1.809466e-10 1 -1 1.809466e-10 260.8473 -151.3172)" class="st21" width="0.49" height="11.26"/>
	
		<rect id="XMLID_2643_" x="205.92" y="49.14" transform="matrix(0.7071 -0.7071 0.7071 0.7071 21.6764 161.8615)" class="st21" width="0.61" height="11.26"/>
	
		<rect id="XMLID_2642_" x="205.92" y="49.14" transform="matrix(0.7071 0.7071 -0.7071 0.7071 99.1258 -129.7809)" class="st21" width="0.6" height="11.26"/>
</g>
<rect id="XMLID_2640_" x="195.29" y="110.86" class="st21" width="0.66" height="9.92"/>
<rect id="XMLID_2639_" x="195.27" y="110.86" transform="matrix(1.843546e-10 1 -1 1.843546e-10 311.3144 -79.668)" class="st21" width="0.43" height="9.92"/>
<rect id="XMLID_2638_" x="195.35" y="110.86" transform="matrix(0.7071 -0.7071 0.7071 0.7071 -24.6052 172.2443)" class="st21" width="0.54" height="9.92"/>
<rect id="XMLID_2637_" x="195.35" y="110.86" transform="matrix(0.7071 0.7071 -0.7071 0.7071 139.1936 -104.3966)" class="st21" width="0.52" height="9.92"/>
<rect id="XMLID_2636_" x="248.41" y="22.96" class="st21" width="0.66" height="9.92"/>
<rect id="XMLID_2635_" x="248.4" y="22.96" transform="matrix(1.634051e-10 1 -1 1.634051e-10 276.5343 -220.6971)" class="st21" width="0.43" height="9.92"/>
<rect id="XMLID_2634_" x="248.47" y="22.96" transform="matrix(0.7071 -0.7071 0.7071 0.7071 53.1126 184.0623)" class="st21" width="0.54" height="9.92"/>
<rect id="XMLID_2633_" x="248.48" y="22.96" transform="matrix(0.7071 0.7071 -0.7071 0.7071 92.5955 -167.708)" class="st21" width="0.52" height="9.92"/>
<g id="XMLID_2606_">
	
		<rect id="XMLID_2632_" x="358.43" y="57.58" transform="matrix(-1 9.048305e-11 -9.048305e-11 -1 717.9463 131.541)" class="st21" width="1.09" height="16.39"/>
	
		<rect id="XMLID_2631_" x="358.82" y="57.58" transform="matrix(-2.790683e-10 -1 1 -2.790683e-10 293.4065 424.9476)" class="st21" width="0.72" height="16.39"/>
	
		<rect id="XMLID_2630_" x="358.53" y="57.58" transform="matrix(-0.7071 0.7071 -0.7071 -0.7071 659.3123 -141.5551)" class="st21" width="0.88" height="16.39"/>
	
		<rect id="XMLID_2629_" x="358.54" y="57.58" transform="matrix(-0.7071 -0.7071 0.7071 -0.7071 566.2987 366.1096)" class="st21" width="0.87" height="16.39"/>
	<g id="XMLID_2624_">
		
			<rect id="XMLID_2628_" x="318.77" y="77.38" transform="matrix(-1 8.911970e-11 -8.911970e-11 -1 639.2552 180.6494)" class="st21" width="1.71" height="25.88"/>
		
			<rect id="XMLID_2627_" x="319.38" y="77.38" transform="matrix(-2.650466e-10 -1 1 -2.650466e-10 229.625 410.2744)" class="st21" width="1.13" height="25.88"/>
		
			<rect id="XMLID_2626_" x="318.93" y="77.38" transform="matrix(-0.7071 0.7071 -0.7071 -0.7071 609.5077 -71.817)" class="st21" width="1.4" height="25.88"/>
		
			<rect id="XMLID_2625_" x="318.94" y="77.38" transform="matrix(-0.7071 -0.7071 0.7071 -0.7071 481.7693 380.2048)" class="st21" width="1.37" height="25.88"/>
	</g>
	
		<rect id="XMLID_2623_" x="319.41" y="32.65" transform="matrix(-1 9.048305e-11 -9.048305e-11 -1 639.8994 81.6805)" class="st21" width="1.09" height="16.39"/>
	
		<rect id="XMLID_2622_" x="319.8" y="32.65" transform="matrix(-2.638458e-10 -1 1 -2.638458e-10 279.3133 360.9938)" class="st21" width="0.72" height="16.39"/>
	
		<rect id="XMLID_2621_" x="319.51" y="32.65" transform="matrix(-0.7071 0.7071 -0.7071 -0.7071 575.0667 -156.5199)" class="st21" width="0.88" height="16.39"/>
	
		<rect id="XMLID_2620_" x="319.52" y="32.65" transform="matrix(-0.7071 -0.7071 0.7071 -0.7071 517.3098 295.9572)" class="st21" width="0.87" height="16.39"/>
	<g id="XMLID_2615_">
		
			<rect id="XMLID_2619_" x="393" y="90.32" transform="matrix(-1 8.780386e-11 -8.780386e-11 -1 786.7525 191.9083)" class="st21" width="0.75" height="11.26"/>
		
			<rect id="XMLID_2618_" x="393.27" y="90.32" transform="matrix(-2.621884e-10 -1 1 -2.621884e-10 297.5622 489.4705)" class="st21" width="0.49" height="11.26"/>
		
			<rect id="XMLID_2617_" x="393.07" y="90.32" transform="matrix(-0.7071 0.7071 -0.7071 -0.7071 739.3851 -114.355)" class="st21" width="0.61" height="11.26"/>
		
			<rect id="XMLID_2616_" x="393.08" y="90.32" transform="matrix(-0.7071 -0.7071 0.7071 -0.7071 603.6854 441.963)" class="st21" width="0.6" height="11.26"/>
	</g>
	
		<rect id="XMLID_2614_" x="403.66" y="29.93" transform="matrix(-1 9.408861e-11 -9.408861e-11 -1 807.9678 69.792)" class="st21" width="0.66" height="9.92"/>
	
		<rect id="XMLID_2613_" x="403.89" y="29.93" transform="matrix(-2.765325e-10 -1 1 -2.765325e-10 369.2114 439.0034)" class="st21" width="0.43" height="9.92"/>
	
		<rect id="XMLID_2612_" x="403.72" y="29.93" transform="matrix(-0.7071 0.7071 -0.7071 -0.7071 714.3188 -226.0886)" class="st21" width="0.54" height="9.92"/>
	
		<rect id="XMLID_2611_" x="403.72" y="29.93" transform="matrix(-0.7071 -0.7071 0.7071 -0.7071 664.9685 345.2309)" class="st21" width="0.52" height="9.92"/>
	
		<rect id="XMLID_2610_" x="350.53" y="117.84" transform="matrix(-1 8.855393e-11 -8.855393e-11 -1 701.7188 245.6012)" class="st21" width="0.66" height="9.92"/>
	
		<rect id="XMLID_2609_" x="350.77" y="117.84" transform="matrix(-2.555831e-10 -1 1 -2.555831e-10 228.1823 473.7834)" class="st21" width="0.43" height="9.92"/>
	
		<rect id="XMLID_2608_" x="350.59" y="117.84" transform="matrix(-0.7071 0.7071 -0.7071 -0.7071 685.7876 -38.4614)" class="st21" width="0.54" height="9.92"/>
	
		<rect id="XMLID_2607_" x="350.6" y="117.84" transform="matrix(-0.7071 -0.7071 0.7071 -0.7071 512.1213 457.7288)" class="st21" width="0.52" height="9.92"/>
</g>
<g id="XMLID_2579_">
	
		<rect id="XMLID_2605_" x="208.02" y="207.64" transform="matrix(-1 9.048305e-11 -9.048305e-11 -1 417.1217 431.6731)" class="st21" width="1.09" height="16.39"/>
	
		<rect id="XMLID_2604_" x="208.41" y="207.64" transform="matrix(-2.638458e-10 -1 1 -2.638458e-10 -7.0718 424.6013)" class="st21" width="0.72" height="16.39"/>
	
		<rect id="XMLID_2603_" x="208.12" y="207.64" transform="matrix(-0.7071 0.7071 -0.7071 -0.7071 508.6552 220.9813)" class="st21" width="0.88" height="16.39"/>
	
		<rect id="XMLID_2602_" x="208.13" y="207.64" transform="matrix(-0.7071 -0.7071 0.7071 -0.7071 203.4162 515.9308)" class="st21" width="0.87" height="16.39"/>
	<g id="XMLID_2597_">
		
			<rect id="XMLID_2601_" x="168.36" y="227.45" transform="matrix(-1 8.911970e-11 -8.911970e-11 -1 338.4307 480.7815)" class="st21" width="1.71" height="25.88"/>
		
			<rect id="XMLID_2600_" x="168.97" y="227.45" transform="matrix(-2.650466e-10 -1 1 -2.650466e-10 -70.8534 409.9281)" class="st21" width="1.13" height="25.88"/>
		
			<rect id="XMLID_2599_" x="168.52" y="227.45" transform="matrix(-0.7071 0.7071 -0.7071 -0.7071 458.8506 290.7194)" class="st21" width="1.4" height="25.88"/>
		
			<rect id="XMLID_2598_" x="168.53" y="227.45" transform="matrix(-0.7071 -0.7071 0.7071 -0.7071 118.8867 530.026)" class="st21" width="1.37" height="25.88"/>
	</g>
	
		<rect id="XMLID_2596_" x="168.99" y="182.71" transform="matrix(-1 9.048305e-11 -9.048305e-11 -1 339.0748 381.8126)" class="st21" width="1.09" height="16.39"/>
	
		<rect id="XMLID_2595_" x="169.38" y="182.71" transform="matrix(-2.638458e-10 -1 1 -2.638458e-10 -21.165 360.6476)" class="st21" width="0.72" height="16.39"/>
	
		<rect id="XMLID_2594_" x="169.1" y="182.71" transform="matrix(-0.7071 0.7071 -0.7071 -0.7071 424.4095 206.0164)" class="st21" width="0.88" height="16.39"/>
	
		<rect id="XMLID_2593_" x="169.1" y="182.71" transform="matrix(-0.7071 -0.7071 0.7071 -0.7071 154.4273 445.7785)" class="st21" width="0.87" height="16.39"/>
	<g id="XMLID_2588_">
		
			<rect id="XMLID_2592_" x="242.59" y="240.39" transform="matrix(-1 9.024280e-11 -9.024280e-11 -1 485.9279 492.0404)" class="st21" width="0.75" height="11.26"/>
		
			<rect id="XMLID_2591_" x="242.86" y="240.39" transform="matrix(-2.621884e-10 -1 1 -2.621884e-10 -2.9162 489.1243)" class="st21" width="0.49" height="11.26"/>
		
			<rect id="XMLID_2590_" x="242.66" y="240.39" transform="matrix(-0.7071 0.7071 -0.7071 -0.7071 588.728 248.1813)" class="st21" width="0.61" height="11.26"/>
		
			<rect id="XMLID_2589_" x="242.67" y="240.39" transform="matrix(-0.7071 -0.7071 0.7071 -0.7071 240.8029 591.7842)" class="st21" width="0.6" height="11.26"/>
	</g>
	
		<rect id="XMLID_2587_" x="253.24" y="180" transform="matrix(-1 8.855393e-11 -8.855393e-11 -1 507.1432 369.9241)" class="st21" width="0.66" height="9.92"/>
	
		<rect id="XMLID_2586_" x="253.48" y="180" transform="matrix(-2.555831e-10 -1 1 -2.555831e-10 68.733 438.6571)" class="st21" width="0.43" height="9.92"/>
	
		<rect id="XMLID_2585_" x="253.3" y="180" transform="matrix(-0.7071 0.7071 -0.7071 -0.7071 563.6617 136.4477)" class="st21" width="0.54" height="9.92"/>
	
		<rect id="XMLID_2584_" x="253.31" y="180" transform="matrix(-0.7071 -0.7071 0.7071 -0.7071 302.0859 495.0522)" class="st21" width="0.52" height="9.92"/>
	
		<rect id="XMLID_2583_" x="200.12" y="267.91" transform="matrix(-1 8.855393e-11 -8.855393e-11 -1 400.8943 545.7333)" class="st21" width="0.66" height="9.92"/>
	
		<rect id="XMLID_2582_" x="200.35" y="267.91" transform="matrix(-2.765325e-10 -1 1 -2.765325e-10 -72.296 473.4372)" class="st21" width="0.43" height="9.92"/>
	
		<rect id="XMLID_2581_" x="200.18" y="267.91" transform="matrix(-0.7071 0.7071 -0.7071 -0.7071 535.1305 324.075)" class="st21" width="0.54" height="9.92"/>
	
		<rect id="XMLID_2580_" x="200.18" y="267.91" transform="matrix(-0.7071 -0.7071 0.7071 -0.7071 149.2388 607.55)" class="st21" width="0.52" height="9.92"/>
</g>
<g id="XMLID_2552_">
	<rect id="XMLID_2578_" x="331.41" y="235.64" class="st21" width="1.09" height="16.39"/>
	
		<rect id="XMLID_2577_" x="331.39" y="235.64" transform="matrix(1.826626e-10 1 -1 1.826626e-10 575.5865 -87.9188)" class="st21" width="0.72" height="16.39"/>
	
		<rect id="XMLID_2576_" x="331.51" y="235.64" transform="matrix(0.7071 -0.7071 0.7071 0.7071 -75.1887 306.146)" class="st21" width="0.88" height="16.39"/>
	
		<rect id="XMLID_2575_" x="331.52" y="235.64" transform="matrix(0.7071 0.7071 -0.7071 0.7071 269.6444 -163.3115)" class="st21" width="0.87" height="16.39"/>
	<g id="XMLID_2570_">
		<rect id="XMLID_2574_" x="370.44" y="206.34" class="st21" width="1.71" height="25.88"/>
		
			<rect id="XMLID_2573_" x="370.41" y="206.34" transform="matrix(1.766976e-10 1 -1 1.766976e-10 590.2597 -151.7004)" class="st21" width="1.13" height="25.88"/>
		
			<rect id="XMLID_2572_" x="370.6" y="206.34" transform="matrix(0.7071 -0.7071 0.7071 0.7071 -46.3023 326.7758)" class="st21" width="1.4" height="25.88"/>
		
			<rect id="XMLID_2571_" x="370.62" y="206.34" transform="matrix(0.7071 0.7071 -0.7071 0.7071 263.806 -198.3247)" class="st21" width="1.37" height="25.88"/>
	</g>
	<rect id="XMLID_2569_" x="370.44" y="260.57" class="st21" width="1.09" height="16.39"/>
	
		<rect id="XMLID_2568_" x="370.42" y="260.57" transform="matrix(1.801260e-10 1 -1 1.801260e-10 639.5403 -102.012)" class="st21" width="0.72" height="16.39"/>
	
		<rect id="XMLID_2567_" x="370.54" y="260.57" transform="matrix(0.7071 -0.7071 0.7071 0.7071 -81.3874 341.0417)" class="st21" width="0.88" height="16.39"/>
	
		<rect id="XMLID_2566_" x="370.55" y="260.57" transform="matrix(0.7071 0.7071 -0.7071 0.7071 298.7025 -183.6033)" class="st21" width="0.87" height="16.39"/>
	<g id="XMLID_2561_">
		<rect id="XMLID_2565_" x="297.18" y="208.02" class="st21" width="0.75" height="11.26"/>
		
			<rect id="XMLID_2564_" x="297.17" y="208.02" transform="matrix(1.809466e-10 1 -1 1.809466e-10 511.0636 -83.7632)" class="st21" width="0.49" height="11.26"/>
		
			<rect id="XMLID_2563_" x="297.25" y="208.02" transform="matrix(0.7071 -0.7071 0.7071 0.7071 -63.9221 272.9788)" class="st21" width="0.61" height="11.26"/>
		
			<rect id="XMLID_2562_" x="297.26" y="208.02" transform="matrix(0.7071 0.7071 -0.7071 0.7071 238.2249 -147.8254)" class="st21" width="0.6" height="11.26"/>
	</g>
	<rect id="XMLID_2560_" x="286.62" y="269.75" class="st21" width="0.66" height="9.92"/>
	
		<rect id="XMLID_2559_" x="286.61" y="269.75" transform="matrix(1.634051e-10 1 -1 1.634051e-10 561.5307 -12.114)" class="st21" width="0.43" height="9.92"/>
	
		<rect id="XMLID_2558_" x="286.68" y="269.75" transform="matrix(0.7071 -0.7071 0.7071 0.7071 -110.2037 283.3615)" class="st21" width="0.54" height="9.92"/>
	
		<rect id="XMLID_2557_" x="286.68" y="269.75" transform="matrix(0.7071 0.7071 -0.7071 0.7071 278.2926 -122.4411)" class="st21" width="0.52" height="9.92"/>
	<rect id="XMLID_2556_" x="339.74" y="181.84" class="st21" width="0.66" height="9.92"/>
	
		<rect id="XMLID_2555_" x="339.73" y="181.84" transform="matrix(1.843546e-10 1 -1 1.843546e-10 526.7506 -153.1431)" class="st21" width="0.43" height="9.92"/>
	
		<rect id="XMLID_2554_" x="339.8" y="181.84" transform="matrix(0.7071 -0.7071 0.7071 0.7071 -32.4859 295.1796)" class="st21" width="0.54" height="9.92"/>
	
		<rect id="XMLID_2553_" x="339.81" y="181.84" transform="matrix(0.7071 0.7071 -0.7071 0.7071 231.6945 -185.7525)" class="st21" width="0.52" height="9.92"/>
</g>
<g id="XMLID_2525_">
	<rect id="XMLID_2551_" x="523.7" y="235.64" class="st21" width="1.09" height="16.39"/>
	
		<rect id="XMLID_2550_" x="523.68" y="235.64" transform="matrix(1.674410e-10 1 -1 1.674410e-10 767.8752 -280.2076)" class="st21" width="0.72" height="16.39"/>
	
		<rect id="XMLID_2549_" x="523.8" y="235.64" transform="matrix(0.7071 -0.7071 0.7071 0.7071 -18.8687 442.1147)" class="st21" width="0.88" height="16.39"/>
	
		<rect id="XMLID_2548_" x="523.81" y="235.64" transform="matrix(0.7071 0.7071 -0.7071 0.7071 325.9645 -299.2801)" class="st21" width="0.87" height="16.39"/>
	<g id="XMLID_2543_">
		<rect id="XMLID_2547_" x="562.73" y="206.34" class="st21" width="1.71" height="25.88"/>
		
			<rect id="XMLID_2546_" x="562.7" y="206.34" transform="matrix(1.766976e-10 1 -1 1.766976e-10 782.5485 -343.9891)" class="st21" width="1.13" height="25.88"/>
		
			<rect id="XMLID_2545_" x="562.89" y="206.34" transform="matrix(0.7071 -0.7071 0.7071 0.7071 10.0178 462.7444)" class="st21" width="1.4" height="25.88"/>
		
			<rect id="XMLID_2544_" x="562.91" y="206.34" transform="matrix(0.7071 0.7071 -0.7071 0.7071 320.1261 -334.2934)" class="st21" width="1.37" height="25.88"/>
	</g>
	<rect id="XMLID_2542_" x="562.73" y="260.57" class="st21" width="1.09" height="16.39"/>
	
		<rect id="XMLID_2541_" x="562.71" y="260.57" transform="matrix(1.801260e-10 1 -1 1.801260e-10 831.829 -294.3008)" class="st21" width="0.72" height="16.39"/>
	
		<rect id="XMLID_2540_" x="562.83" y="260.57" transform="matrix(0.7071 -0.7071 0.7071 0.7071 -25.0673 477.0104)" class="st21" width="0.88" height="16.39"/>
	
		<rect id="XMLID_2539_" x="562.84" y="260.57" transform="matrix(0.7071 0.7071 -0.7071 0.7071 355.0226 -319.572)" class="st21" width="0.87" height="16.39"/>
	<g id="XMLID_2534_">
		<rect id="XMLID_2538_" x="489.47" y="208.02" class="st21" width="0.75" height="11.26"/>
		
			<rect id="XMLID_2537_" x="489.46" y="208.02" transform="matrix(1.809466e-10 1 -1 1.809466e-10 703.3524 -276.0519)" class="st21" width="0.49" height="11.26"/>
		
			<rect id="XMLID_2536_" x="489.54" y="208.02" transform="matrix(0.7071 -0.7071 0.7071 0.7071 -7.6021 408.9474)" class="st21" width="0.61" height="11.26"/>
		
			<rect id="XMLID_2535_" x="489.54" y="208.02" transform="matrix(0.7071 0.7071 -0.7071 0.7071 294.545 -283.794)" class="st21" width="0.6" height="11.26"/>
	</g>
	<rect id="XMLID_2533_" x="478.91" y="269.75" class="st21" width="0.66" height="9.92"/>
	
		<rect id="XMLID_2532_" x="478.89" y="269.75" transform="matrix(1.843546e-10 1 -1 1.843546e-10 753.8195 -204.4027)" class="st21" width="0.43" height="9.92"/>
	
		<rect id="XMLID_2531_" x="478.97" y="269.75" transform="matrix(0.7071 -0.7071 0.7071 0.7071 -53.8836 419.3302)" class="st21" width="0.54" height="9.92"/>
	
		<rect id="XMLID_2530_" x="478.97" y="269.75" transform="matrix(0.7071 0.7071 -0.7071 0.7071 334.6127 -258.4098)" class="st21" width="0.52" height="9.92"/>
	<rect id="XMLID_2529_" x="532.03" y="181.84" class="st21" width="0.66" height="9.92"/>
	
		<rect id="XMLID_2528_" x="532.02" y="181.84" transform="matrix(1.634051e-10 1 -1 1.634051e-10 719.0394 -345.4318)" class="st21" width="0.43" height="9.92"/>
	
		<rect id="XMLID_2527_" x="532.09" y="181.84" transform="matrix(0.7071 -0.7071 0.7071 0.7071 23.8341 431.1483)" class="st21" width="0.54" height="9.92"/>
	
		<rect id="XMLID_2526_" x="532.1" y="181.84" transform="matrix(0.7071 0.7071 -0.7071 0.7071 288.0146 -321.7211)" class="st21" width="0.52" height="9.92"/>
</g>
<g id="XMLID_2498_">
	<rect id="XMLID_2524_" x="504.66" y="74.91" class="st21" width="1.09" height="16.39"/>
	
		<rect id="XMLID_2523_" x="504.64" y="74.91" transform="matrix(1.801260e-10 1 -1 1.801260e-10 588.1064 -421.8926)" class="st21" width="0.72" height="16.39"/>
	
		<rect id="XMLID_2522_" x="504.76" y="74.91" transform="matrix(0.7071 -0.7071 0.7071 0.7071 89.2052 381.5742)" class="st21" width="0.88" height="16.39"/>
	
		<rect id="XMLID_2521_" x="504.77" y="74.91" transform="matrix(0.7071 0.7071 -0.7071 0.7071 206.7361 -332.8913)" class="st21" width="0.87" height="16.39"/>
	<g id="XMLID_2516_">
		<rect id="XMLID_2520_" x="543.69" y="45.61" class="st21" width="1.71" height="25.88"/>
		
			<rect id="XMLID_2519_" x="543.66" y="45.61" transform="matrix(1.766976e-10 1 -1 1.766976e-10 602.7797 -485.6742)" class="st21" width="1.13" height="25.88"/>
		
			<rect id="XMLID_2518_" x="543.85" y="45.61" transform="matrix(0.7071 -0.7071 0.7071 0.7071 118.0917 402.2039)" class="st21" width="1.4" height="25.88"/>
		
			<rect id="XMLID_2517_" x="543.86" y="45.61" transform="matrix(0.7071 0.7071 -0.7071 0.7071 200.8977 -367.9046)" class="st21" width="1.37" height="25.88"/>
	</g>
	<rect id="XMLID_2515_" x="543.68" y="99.84" class="st21" width="1.09" height="16.39"/>
	
		<rect id="XMLID_2514_" x="543.66" y="99.84" transform="matrix(1.826626e-10 1 -1 1.826626e-10 652.0602 -435.9858)" class="st21" width="0.72" height="16.39"/>
	
		<rect id="XMLID_2513_" x="543.78" y="99.84" transform="matrix(0.7071 -0.7071 0.7071 0.7071 83.0065 416.4699)" class="st21" width="0.88" height="16.39"/>
	
		<rect id="XMLID_2512_" x="543.79" y="99.84" transform="matrix(0.7071 0.7071 -0.7071 0.7071 235.7942 -353.1832)" class="st21" width="0.87" height="16.39"/>
	<g id="XMLID_2507_">
		<rect id="XMLID_2511_" x="470.43" y="47.29" class="st21" width="0.75" height="11.26"/>
		
			<rect id="XMLID_2510_" x="470.41" y="47.29" transform="matrix(1.846397e-10 1 -1 1.846397e-10 523.5836 -417.737)" class="st21" width="0.49" height="11.26"/>
		
			<rect id="XMLID_2509_" x="470.5" y="47.29" transform="matrix(0.7071 -0.7071 0.7071 0.7071 100.4718 348.407)" class="st21" width="0.61" height="11.26"/>
		
			<rect id="XMLID_2508_" x="470.5" y="47.29" transform="matrix(0.7071 0.7071 -0.7071 0.7071 175.3166 -317.4052)" class="st21" width="0.6" height="11.26"/>
	</g>
	<rect id="XMLID_2506_" x="459.86" y="109.02" class="st21" width="0.66" height="9.92"/>
	
		<rect id="XMLID_2505_" x="459.85" y="109.02" transform="matrix(1.843546e-10 1 -1 1.843546e-10 574.0507 -346.0878)" class="st21" width="0.43" height="9.92"/>
	
		<rect id="XMLID_2504_" x="459.93" y="109.02" transform="matrix(0.7071 -0.7071 0.7071 0.7071 54.1903 358.7898)" class="st21" width="0.54" height="9.92"/>
	
		<rect id="XMLID_2503_" x="459.93" y="109.02" transform="matrix(0.7071 0.7071 -0.7071 0.7071 215.3844 -292.021)" class="st21" width="0.52" height="9.92"/>
	<rect id="XMLID_2502_" x="512.99" y="21.12" class="st21" width="0.66" height="9.92"/>
	
		<rect id="XMLID_2501_" x="512.98" y="21.12" transform="matrix(1.843546e-10 1 -1 1.843546e-10 539.2706 -487.1169)" class="st21" width="0.43" height="9.92"/>
	
		<rect id="XMLID_2500_" x="513.05" y="21.12" transform="matrix(0.7071 -0.7071 0.7071 0.7071 131.908 370.6078)" class="st21" width="0.54" height="9.92"/>
	
		<rect id="XMLID_2499_" x="513.05" y="21.12" transform="matrix(0.7071 0.7071 -0.7071 0.7071 168.7862 -355.3323)" class="st21" width="0.52" height="9.92"/>
</g>
<g id="XMLID_2471_">
	
		<rect id="XMLID_2497_" x="453.69" y="189.75" transform="matrix(4.691720e-11 -1 1 4.691720e-11 256.2915 652.174)" class="st21" width="1.09" height="16.39"/>
	<rect id="XMLID_2496_" x="453.87" y="189.95" class="st21" width="0.72" height="16.39"/>
	
		<rect id="XMLID_2495_" x="453.79" y="189.75" transform="matrix(-0.7071 -0.7071 0.7071 -0.7071 635.4582 659.0979)" class="st21" width="0.88" height="16.39"/>
	
		<rect id="XMLID_2494_" x="453.8" y="189.75" transform="matrix(0.7071 -0.7071 0.7071 0.7071 -6.9239 379.1667)" class="st21" width="0.87" height="16.39"/>
	<g id="XMLID_2489_">
		
			<rect id="XMLID_2493_" x="428.82" y="145.65" transform="matrix(4.668183e-11 -1 1 4.668183e-11 271.0828 588.2743)" class="st21" width="1.71" height="25.88"/>
		<rect id="XMLID_2492_" x="429.11" y="145.98" class="st21" width="1.13" height="25.88"/>
		
			<rect id="XMLID_2491_" x="428.98" y="145.65" transform="matrix(-0.7071 -0.7071 0.7071 -0.7071 621.3631 574.5685)" class="st21" width="1.4" height="25.88"/>
		
			<rect id="XMLID_2490_" x="428.99" y="145.65" transform="matrix(0.7071 -0.7071 0.7071 0.7071 13.7058 350.2802)" class="st21" width="1.37" height="25.88"/>
	</g>
	
		<rect id="XMLID_2488_" x="478.62" y="150.72" transform="matrix(4.524209e-11 -1 1 4.524209e-11 320.2452 638.0808)" class="st21" width="1.09" height="16.39"/>
	<rect id="XMLID_2487_" x="478.8" y="150.93" class="st21" width="0.72" height="16.39"/>
	
		<rect id="XMLID_2486_" x="478.72" y="150.72" transform="matrix(-0.7071 -0.7071 0.7071 -0.7071 705.6106 610.1091)" class="st21" width="0.88" height="16.39"/>
	
		<rect id="XMLID_2485_" x="478.73" y="150.72" transform="matrix(0.7071 -0.7071 0.7071 0.7071 27.9718 385.3654)" class="st21" width="0.87" height="16.39"/>
	<g id="XMLID_2480_">
		
			<rect id="XMLID_2484_" x="423.68" y="226.71" transform="matrix(5.365847e-11 -1 1 5.365847e-11 191.7047 656.3935)" class="st21" width="0.75" height="11.26"/>
		<rect id="XMLID_2483_" x="423.8" y="226.85" class="st21" width="0.49" height="11.26"/>
		
			<rect id="XMLID_2482_" x="423.75" y="226.71" transform="matrix(-0.7071 -0.7071 0.7071 -0.7071 559.6049 696.4846)" class="st21" width="0.61" height="11.26"/>
		
			<rect id="XMLID_2481_" x="423.75" y="226.71" transform="matrix(0.7071 -0.7071 0.7071 0.7071 -40.0912 367.9001)" class="st21" width="0.6" height="11.26"/>
	</g>
	
		<rect id="XMLID_2479_" x="484.78" y="237.99" transform="matrix(4.704421e-11 -1 1 4.704421e-11 242.1553 728.0593)" class="st21" width="0.66" height="9.92"/>
	<rect id="XMLID_2478_" x="484.89" y="238.11" class="st21" width="0.43" height="9.92"/>
	
		<rect id="XMLID_2477_" x="484.84" y="237.99" transform="matrix(-0.7071 -0.7071 0.7071 -0.7071 656.3369 757.7677)" class="st21" width="0.54" height="9.92"/>
	
		<rect id="XMLID_2476_" x="484.85" y="237.99" transform="matrix(0.7071 -0.7071 0.7071 0.7071 -29.7084 414.1816)" class="st21" width="0.52" height="9.92"/>
	
		<rect id="XMLID_2475_" x="396.87" y="184.87" transform="matrix(4.704421e-11 -1 1 4.704421e-11 207.3752 587.0302)" class="st21" width="0.66" height="9.92"/>
	<rect id="XMLID_2474_" x="396.99" y="184.99" class="st21" width="0.43" height="9.92"/>
	
		<rect id="XMLID_2473_" x="396.94" y="184.87" transform="matrix(-0.7071 -0.7071 0.7071 -0.7071 543.8391 604.9206)" class="st21" width="0.54" height="9.92"/>
	
		<rect id="XMLID_2472_" x="396.94" y="184.87" transform="matrix(0.7071 -0.7071 0.7071 0.7071 -17.8904 336.4639)" class="st21" width="0.52" height="9.92"/>
</g>
<g id="XMLID_2444_">
	
		<rect id="XMLID_2470_" x="98.95" y="62.62" transform="matrix(0.7071 0.7071 -0.7071 0.7071 79.2166 -49.6085)" class="st21" width="1.09" height="16.39"/>
	
		<rect id="XMLID_2469_" x="98.99" y="62.48" transform="matrix(-0.7071 0.7071 -0.7071 -0.7071 219.57 50.4)" class="st21" width="0.72" height="16.39"/>
	<rect id="XMLID_2468_" x="99.05" y="62.62" class="st21" width="0.88" height="16.39"/>
	
		<rect id="XMLID_2467_" x="99.06" y="62.62" transform="matrix(4.620108e-11 1 -1 4.620108e-11 170.3096 -28.6724)" class="st21" width="0.87" height="16.39"/>
	<g id="XMLID_2462_">
		
			<rect id="XMLID_2466_" x="143.82" y="68.34" transform="matrix(0.7071 0.7071 -0.7071 0.7071 99.8463 -78.4949)" class="st21" width="1.71" height="25.88"/>
		
			<rect id="XMLID_2465_" x="143.88" y="68.11" transform="matrix(-0.7071 0.7071 -0.7071 -0.7071 303.8978 36.2214)" class="st21" width="1.13" height="25.88"/>
		<rect id="XMLID_2464_" x="143.98" y="68.34" class="st21" width="1.4" height="25.88"/>
		
			<rect id="XMLID_2463_" x="143.99" y="68.34" transform="matrix(4.387938e-11 1 -1 4.387938e-11 225.9526 -63.3972)" class="st21" width="1.37" height="25.88"/>
	</g>
	
		<rect id="XMLID_2461_" x="108.91" y="107.85" transform="matrix(0.7071 0.7071 -0.7071 0.7071 114.1122 -43.4098)" class="st21" width="1.09" height="16.39"/>
	
		<rect id="XMLID_2460_" x="108.95" y="107.7" transform="matrix(-0.7071 0.7071 -0.7071 -0.7071 268.5589 120.5524)" class="st21" width="0.72" height="16.39"/>
	<rect id="XMLID_2459_" x="109.01" y="107.85" class="st21" width="0.88" height="16.39"/>
	
		<rect id="XMLID_2458_" x="109.02" y="107.85" transform="matrix(4.620108e-11 1 -1 4.620108e-11 225.4972 6.5844)" class="st21" width="0.87" height="16.39"/>
	<g id="XMLID_2453_">
		
			<rect id="XMLID_2457_" x="96.13" y="19.52" transform="matrix(0.7071 0.7071 -0.7071 0.7071 46.0493 -60.8751)" class="st21" width="0.75" height="11.26"/>
		
			<rect id="XMLID_2456_" x="96.16" y="19.42" transform="matrix(-0.7071 0.7071 -0.7071 -0.7071 182.2922 -25.4082)" class="st21" width="0.49" height="11.26"/>
		<rect id="XMLID_2455_" x="96.2" y="19.52" class="st21" width="0.61" height="11.26"/>
		
			<rect id="XMLID_2454_" x="96.21" y="19.52" transform="matrix(5.196536e-11 1 -1 5.196536e-11 121.6563 -71.3585)" class="st21" width="0.6" height="11.26"/>
	</g>
	
		<rect id="XMLID_2452_" x="45.5" y="55.86" transform="matrix(0.7071 0.7071 -0.7071 0.7071 56.4321 -14.5935)" class="st21" width="0.66" height="9.92"/>
	
		<rect id="XMLID_2451_" x="45.53" y="55.77" transform="matrix(-0.7071 0.7071 -0.7071 -0.7071 121.0376 71.3356)" class="st21" width="0.43" height="9.92"/>
	<rect id="XMLID_2450_" x="45.56" y="55.86" class="st21" width="0.54" height="9.92"/>
	
		<rect id="XMLID_2449_" x="45.57" y="55.86" transform="matrix(3.815063e-11 1 -1 3.815063e-11 106.6548 14.9908)" class="st21" width="0.52" height="9.92"/>
	
		<rect id="XMLID_2448_" x="145.23" y="31.27" transform="matrix(0.7071 0.7071 -0.7071 0.7071 68.2501 -92.3113)" class="st21" width="0.66" height="9.92"/>
	
		<rect id="XMLID_2447_" x="145.25" y="31.18" transform="matrix(-0.7071 0.7071 -0.7071 -0.7071 273.8847 -41.1622)" class="st21" width="0.43" height="9.92"/>
	<rect id="XMLID_2446_" x="145.29" y="31.27" class="st21" width="0.54" height="9.92"/>
	
		<rect id="XMLID_2445_" x="145.29" y="31.27" transform="matrix(3.815063e-11 1 -1 3.815063e-11 181.7842 -109.3251)" class="st21" width="0.52" height="9.92"/>
</g>
<rect id="XMLID_2443_" x="629.26" y="65.32" transform="matrix(-1 8.713195e-11 -8.713195e-11 -1 1259.5985 147.0229)" class="st21" width="1.09" height="16.39"/>
<rect id="XMLID_2442_" x="629.64" y="65.32" transform="matrix(-2.663833e-10 -1 1 -2.663833e-10 556.4917 703.5146)" class="st21" width="0.72" height="16.39"/>
<rect id="XMLID_2441_" x="629.36" y="65.32" transform="matrix(-0.7071 0.7071 -0.7071 -0.7071 1127.115 -319.8434)" class="st21" width="0.88" height="16.39"/>
<rect id="XMLID_2440_" x="629.37" y="65.32" transform="matrix(-0.7071 -0.7071 0.7071 -0.7071 1023.1541 570.8273)" class="st21" width="0.87" height="16.39"/>
<g id="XMLID_2435_">
	
		<rect id="XMLID_2439_" x="589.6" y="85.12" transform="matrix(-1 9.124156e-11 -9.124156e-11 -1 1180.9075 196.1313)" class="st21" width="1.71" height="25.88"/>
	
		<rect id="XMLID_2438_" x="590.21" y="85.12" transform="matrix(-2.746842e-10 -1 1 -2.746842e-10 492.7101 688.8414)" class="st21" width="1.13" height="25.88"/>
	
		<rect id="XMLID_2437_" x="589.76" y="85.12" transform="matrix(-0.7071 0.7071 -0.7071 -0.7071 1077.3104 -250.1053)" class="st21" width="1.4" height="25.88"/>
	
		<rect id="XMLID_2436_" x="589.77" y="85.12" transform="matrix(-0.7071 -0.7071 0.7071 -0.7071 938.6247 584.9224)" class="st21" width="1.37" height="25.88"/>
</g>
<rect id="XMLID_2434_" x="590.23" y="40.39" transform="matrix(-1 9.048305e-11 -9.048305e-11 -1 1181.5515 97.1624)" class="st21" width="1.09" height="16.39"/>
<rect id="XMLID_2433_" x="590.62" y="40.39" transform="matrix(-2.638458e-10 -1 1 -2.638458e-10 542.3985 639.5609)" class="st21" width="0.72" height="16.39"/>
<rect id="XMLID_2432_" x="590.33" y="40.39" transform="matrix(-0.7071 0.7071 -0.7071 -0.7071 1042.8694 -334.8083)" class="st21" width="0.88" height="16.39"/>
<rect id="XMLID_2431_" x="590.34" y="40.39" transform="matrix(-0.7071 -0.7071 0.7071 -0.7071 974.1652 500.6748)" class="st21" width="0.87" height="16.39"/>
<rect id="XMLID_2430_" x="621.36" y="125.58" transform="matrix(-1 9.408861e-11 -9.408861e-11 -1 1243.3711 261.0831)" class="st21" width="0.66" height="9.92"/>
<rect id="XMLID_2429_" x="621.59" y="125.58" transform="matrix(-2.765325e-10 -1 1 -2.765325e-10 491.2675 752.3505)" class="st21" width="0.43" height="9.92"/>
<rect id="XMLID_2428_" x="621.42" y="125.58" transform="matrix(-0.7071 0.7071 -0.7071 -0.7071 1153.5903 -216.7497)" class="st21" width="0.54" height="9.92"/>
<rect id="XMLID_2427_" x="621.42" y="125.58" transform="matrix(-0.7071 -0.7071 0.7071 -0.7071 968.9767 662.4464)" class="st21" width="0.52" height="9.92"/>
<g id="XMLID_2400_">
	
		<rect id="XMLID_2426_" x="84.28" y="198.57" transform="matrix(-1 9.048305e-11 -9.048305e-11 -1 169.6438 413.5362)" class="st21" width="1.09" height="16.39"/>
	
		<rect id="XMLID_2425_" x="84.67" y="198.57" transform="matrix(-2.790683e-10 -1 1 -2.790683e-10 -121.7423 291.7939)" class="st21" width="0.72" height="16.39"/>
	
		<rect id="XMLID_2424_" x="84.38" y="198.57" transform="matrix(-0.7071 0.7071 -0.7071 -0.7071 291.0072 292.9971)" class="st21" width="0.88" height="16.39"/>
	
		<rect id="XMLID_2423_" x="84.39" y="198.57" transform="matrix(-0.7071 -0.7071 0.7071 -0.7071 -1.4071 412.9533)" class="st21" width="0.87" height="16.39"/>
	<g id="XMLID_2418_">
		
			<rect id="XMLID_2422_" x="44.62" y="218.38" transform="matrix(-1 9.124156e-11 -9.124156e-11 -1 90.9528 462.6445)" class="st21" width="1.71" height="25.88"/>
		
			<rect id="XMLID_2421_" x="45.23" y="218.38" transform="matrix(-2.730784e-10 -1 1 -2.730784e-10 -185.5238 277.1207)" class="st21" width="1.13" height="25.88"/>
		
			<rect id="XMLID_2420_" x="44.78" y="218.38" transform="matrix(-0.7071 0.7071 -0.7071 -0.7071 241.2026 362.7351)" class="st21" width="1.4" height="25.88"/>
		
			<rect id="XMLID_2419_" x="44.79" y="218.38" transform="matrix(-0.7071 -0.7071 0.7071 -0.7071 -85.9365 427.0485)" class="st21" width="1.37" height="25.88"/>
	</g>
	
		<rect id="XMLID_2417_" x="45.26" y="173.64" transform="matrix(-1 8.713195e-11 -8.713195e-11 -1 91.5969 363.6756)" class="st21" width="1.09" height="16.39"/>
	
		<rect id="XMLID_2416_" x="45.64" y="173.64" transform="matrix(-2.638458e-10 -1 1 -2.638458e-10 -135.8355 227.8402)" class="st21" width="0.72" height="16.39"/>
	
		<rect id="XMLID_2415_" x="45.36" y="173.64" transform="matrix(-0.7071 0.7071 -0.7071 -0.7071 206.7616 278.0322)" class="st21" width="0.88" height="16.39"/>
	
		<rect id="XMLID_2414_" x="45.37" y="173.64" transform="matrix(-0.7071 -0.7071 0.7071 -0.7071 -50.3959 342.801)" class="st21" width="0.87" height="16.39"/>
	<g id="XMLID_2409_">
		
			<rect id="XMLID_2413_" x="118.85" y="231.32" transform="matrix(-1 8.780386e-11 -8.780386e-11 -1 238.45 473.9034)" class="st21" width="0.75" height="11.26"/>
		
			<rect id="XMLID_2412_" x="119.12" y="231.32" transform="matrix(-2.658815e-10 -1 1 -2.658815e-10 -117.5866 356.3168)" class="st21" width="0.49" height="11.26"/>
		
			<rect id="XMLID_2411_" x="118.92" y="231.32" transform="matrix(-0.7071 0.7071 -0.7071 -0.7071 371.08 320.1971)" class="st21" width="0.61" height="11.26"/>
		
			<rect id="XMLID_2410_" x="118.93" y="231.32" transform="matrix(-0.7071 -0.7071 0.7071 -0.7071 35.9797 488.8067)" class="st21" width="0.6" height="11.26"/>
	</g>
	
		<rect id="XMLID_2408_" x="129.5" y="170.93" transform="matrix(-1 8.855393e-11 -8.855393e-11 -1 259.6653 351.7871)" class="st21" width="0.66" height="9.92"/>
	
		<rect id="XMLID_2407_" x="129.74" y="170.93" transform="matrix(-2.765325e-10 -1 1 -2.765325e-10 -45.9374 305.8497)" class="st21" width="0.43" height="9.92"/>
	
		<rect id="XMLID_2406_" x="129.57" y="170.93" transform="matrix(-0.7071 0.7071 -0.7071 -0.7071 346.0138 208.4635)" class="st21" width="0.54" height="9.92"/>
	
		<rect id="XMLID_2405_" x="129.57" y="170.93" transform="matrix(-0.7071 -0.7071 0.7071 -0.7071 97.2627 392.0746)" class="st21" width="0.52" height="9.92"/>
	
		<rect id="XMLID_2404_" x="76.38" y="258.84" transform="matrix(-1 8.855393e-11 -8.855393e-11 -1 153.4164 527.5963)" class="st21" width="0.66" height="9.92"/>
	
		<rect id="XMLID_2403_" x="76.61" y="258.84" transform="matrix(-2.765325e-10 -1 1 -2.765325e-10 -186.9665 340.6298)" class="st21" width="0.43" height="9.92"/>
	
		<rect id="XMLID_2402_" x="76.44" y="258.84" transform="matrix(-0.7071 0.7071 -0.7071 -0.7071 317.4825 396.0907)" class="st21" width="0.54" height="9.92"/>
	
		<rect id="XMLID_2401_" x="76.45" y="258.84" transform="matrix(-0.7071 -0.7071 0.7071 -0.7071 -55.5844 504.5725)" class="st21" width="0.52" height="9.92"/>
</g>
<g id="XMLID_2395_">
	
		<rect id="XMLID_2399_" x="625.31" y="229.28" transform="matrix(-1 9.018063e-11 -9.018063e-11 -1 1252.3286 484.4452)" class="st21" width="1.71" height="25.88"/>
	
		<rect id="XMLID_2398_" x="625.92" y="229.28" transform="matrix(-2.746842e-10 -1 1 -2.746842e-10 384.2638 868.7089)" class="st21" width="1.13" height="25.88"/>
	
		<rect id="XMLID_2397_" x="625.47" y="229.28" transform="matrix(-0.7071 0.7071 -0.7071 -0.7071 1240.2065 -29.2652)" class="st21" width="1.4" height="25.88"/>
	
		<rect id="XMLID_2396_" x="625.48" y="229.28" transform="matrix(-0.7071 -0.7071 0.7071 -0.7071 897.6521 856.2648)" class="st21" width="1.37" height="25.88"/>
</g>
<rect id="XMLID_2394_" x="625.94" y="184.54" transform="matrix(-1 9.048305e-11 -9.048305e-11 -1 1252.9727 385.4763)" class="st21" width="1.09" height="16.39"/>
<rect id="XMLID_2393_" x="626.33" y="184.54" transform="matrix(-2.663833e-10 -1 1 -2.663833e-10 433.9521 819.4283)" class="st21" width="0.72" height="16.39"/>
<rect id="XMLID_2392_" x="626.04" y="184.54" transform="matrix(-0.7071 0.7071 -0.7071 -0.7071 1205.7655 -113.9682)" class="st21" width="0.88" height="16.39"/>
<rect id="XMLID_2391_" x="626.05" y="184.54" transform="matrix(-0.7071 -0.7071 0.7071 -0.7071 933.1926 772.0173)" class="st21" width="0.87" height="16.39"/>
<circle id="XMLID_2390_" class="st45" cx="170.08" cy="157.82" r="10.96"/>
<circle id="XMLID_2389_" class="st63" cx="222.05" cy="158.6" r="21.93"/>
<circle id="XMLID_2388_" class="st29" cx="281.86" cy="157.74" r="21.93"/>
<circle id="XMLID_2387_" class="st1" cx="338.06" cy="157.82" r="16.45"/>
<circle id="XMLID_2386_" class="st1" cx="409.07" cy="159.46" r="39.4"/>
<circle id="XMLID_2385_" class="st29" cx="540.51" cy="160.56" r="11.88"/>
<circle id="XMLID_2384_" class="st65" cx="576.21" cy="162.52" r="9.92"/>
<circle id="XMLID_2383_" class="st27" cx="608.91" cy="167.48" r="4.96"/>
<circle id="XMLID_2382_" class="st63" cx="85.36" cy="152.82" r="62.18"/>
<circle id="XMLID_2381_" class="st26" cx="394.42" cy="142.13" r="5.24"/>
<g id="XMLID_2377_">
	<defs>
		<circle id="XMLID_2378_" cx="485.65" cy="157.74" r="21.37"/>
	</defs>
	<clipPath id="XMLID_2_">
		<use xlink:href="#XMLID_2378_"  style="overflow:visible;"/>
	</clipPath>
	<circle id="XMLID_2380_" style="clip-path:url(#XMLID_2_);fill:#D8D03E;" cx="485.65" cy="157.74" r="21.37"/>
	<path id="XMLID_2379_" class="st3" d="M482.99,151.36c9.59-0.1,19.26,1.16,24.86,3.95v6.74c0,0-19.63-9.76-44.38,0v-6.04l0,0
		C467.03,153.68,478.72,151.4,482.99,151.36z"/>
</g>
<rect id="XMLID_2376_" x="46.34" y="279.67" class="st26" width="12.4" height="30.51"/>
<circle id="XMLID_2375_" class="st26" cx="51.91" cy="310.81" r="13.92"/>
<circle id="XMLID_2374_" class="st21" cx="52.54" cy="310.81" r="9.51"/>
<rect id="XMLID_2373_" x="603.34" y="280.24" class="st26" width="12.4" height="30.51"/>
<circle id="XMLID_2372_" class="st26" cx="608.91" cy="311.38" r="13.92"/>
<circle id="XMLID_2371_" class="st21" cx="609.54" cy="311.38" r="9.51"/>
</svg>
