<?xml version="1.0" encoding="utf-8"?>
<!-- Generator: Adobe Illustrator 19.2.1, SVG Export Plug-In . SVG Version: 6.00 Build 0)  -->
<svg version="1.1" id="Layer_1" xmlns="http://www.w3.org/2000/svg" xmlns:xlink="http://www.w3.org/1999/xlink" x="0px" y="0px"
	 viewBox="0 0 731 530.71" style="enable-background:new 0 0 731 530.71;" xml:space="preserve">
<style type="text/css">
	.st0{fill:#F0EAD6;}
	.st1{fill:#EE4036;}
	.st2{fill:#BE1E2D;}
	.st3{clip-path:url(#XMLID_2_);fill:#404041;}
	.st4{clip-path:url(#XMLID_2_);fill:none;stroke:#FFFFFF;stroke-width:2;stroke-miterlimit:10;}
	.st5{clip-path:url(#XMLID_3_);fill:#F0EAD6;}
	.st6{clip-path:url(#XMLID_3_);fill:#EE4036;}
	.st7{clip-path:url(#XMLID_3_);fill:none;}
	.st8{clip-path:url(#XMLID_3_);fill:none;stroke:#404041;stroke-miterlimit:10;}
	.st9{clip-path:url(#XMLID_3_);fill:#404041;}
	.st10{clip-path:url(#XMLID_3_);fill:#FFF9CD;}
	.st11{clip-path:url(#XMLID_4_);fill:#F0EAD6;}
	.st12{clip-path:url(#XMLID_4_);}
	.st13{clip-path:url(#XMLID_4_);fill:#D8D03E;}
	.st14{clip-path:url(#XMLID_4_);fill:none;}
	.st15{clip-path:url(#XMLID_4_);fill:#404041;}
	.st16{clip-path:url(#XMLID_4_);fill:#EE4036;}
	.st17{clip-path:url(#XMLID_4_);fill:#FFF9CD;}
	.st18{clip-path:url(#XMLID_5_);fill:#FFF9CD;}
	.st19{clip-path:url(#XMLID_5_);fill:none;stroke:#EE4036;stroke-width:1.5;stroke-miterlimit:10;}
	.st20{clip-path:url(#XMLID_4_);fill:none;stroke:#EE4036;stroke-width:1.5;stroke-miterlimit:10;}
	.st21{fill:#FFF9CD;}
	.st22{clip-path:url(#XMLID_6_);fill:#404041;}
	.st23{clip-path:url(#XMLID_6_);fill:#FFF9CD;}
	.st24{clip-path:url(#XMLID_6_);fill:#EE4036;}
	.st25{clip-path:url(#XMLID_6_);fill:#D8D03E;}
	.st26{fill:#404041;}
	.st27{fill:#FFFFFF;}
	.st28{fill:none;}
	.st29{fill:#00ADEE;}
	.st30{fill:#26A9E0;}
	.st31{clip-path:url(#XMLID_7_);fill:#1B75BB;}
	.st32{clip-path:url(#XMLID_7_);fill:#FFFFFF;}
	.st33{clip-path:url(#XMLID_8_);fill:#E5E2B6;}
	.st34{clip-path:url(#XMLID_8_);fill:#EE4036;}
	.st35{clip-path:url(#XMLID_8_);fill:#FFFFFF;}
	.st36{fill:#D7182A;}
	.st37{clip-path:url(#XMLID_9_);fill:#FFF9CD;}
	.st38{clip-path:url(#XMLID_9_);fill:#EE4036;}
	.st39{clip-path:url(#XMLID_9_);fill:#58595B;}
	.st40{clip-path:url(#XMLID_10_);fill:#FFF9CD;}
	.st41{clip-path:url(#XMLID_10_);fill:#EE4036;}
	.st42{clip-path:url(#XMLID_10_);fill:#58595B;}
	.st43{fill:none;stroke:#58595B;stroke-width:1.5;stroke-miterlimit:10;}
	.st44{fill:#58595B;}
	.st45{fill:#A6A8AB;}
	.st46{clip-path:url(#XMLID_11_);fill:#EE4036;}
	.st47{clip-path:url(#XMLID_11_);}
	.st48{clip-path:url(#XMLID_11_);fill:none;stroke:#404041;stroke-miterlimit:10;}
	.st49{clip-path:url(#XMLID_12_);fill:#EE4036;}
	.st50{clip-path:url(#XMLID_12_);}
	.st51{clip-path:url(#XMLID_12_);fill:none;stroke:#404041;stroke-miterlimit:10;}
	.st52{clip-path:url(#XMLID_13_);fill:#D8D03E;}
	.st53{clip-path:url(#XMLID_13_);fill:#00ADEE;}
	.st54{clip-path:url(#XMLID_13_);fill:#EE4036;}
	.st55{clip-path:url(#XMLID_14_);fill:#D8D03E;}
	.st56{clip-path:url(#XMLID_14_);fill:#EE4036;}
	.st57{clip-path:url(#XMLID_14_);fill:#00ADEE;}
	.st58{fill:none;stroke:#404041;stroke-width:1.5;stroke-miterlimit:10;}
	.st59{fill:#EF4136;}
	.st60{opacity:0.51;fill:#BE1E2D;}
	.st61{fill:#D8D03E;}
	.st62{opacity:0.28;fill:#FFF9CD;}
	.st63{fill:#1B75BB;}
	.st64{clip-path:url(#XMLID_15_);fill:#D8D03E;}
	.st65{clip-path:url(#XMLID_15_);fill:#404041;}
	.st66{opacity:0.62;fill:#D8D03E;}
	.st67{opacity:0.32;fill:#D8D03E;}
</style>
<g>
	<polygon class="st63" points="318.87,32.46 344.21,32.46 394.23,32.46 415.91,32.46 415.91,196.3 671.17,32.03 63.61,32.03 
		318.87,196.3 	"/>
	<polygon class="st63" points="56.93,318.74 56.93,427.32 225.66,318.74 	"/>
	<polygon class="st63" points="415.91,496.23 660.15,496.23 415.91,339.05 	"/>
	<polygon class="st63" points="74.63,496.23 318.87,496.23 318.87,339.05 	"/>
	<polygon class="st63" points="681.01,429.35 681.01,318.74 509.12,318.74 	"/>
	<polygon class="st63" points="681.01,223.51 681.01,106 498.41,223.51 	"/>
	<polygon class="st63" points="56.93,108.04 56.93,223.51 236.37,223.51 	"/>
	<polygon class="st0" points="470.43,318.74 681.01,454.25 681.01,429.35 509.12,318.74 	"/>
	<polygon class="st0" points="681.01,484.76 423.03,318.74 415.91,318.74 415.91,339.05 660.15,496.23 681.01,496.23 	"/>
	<polygon class="st0" points="275.05,223.51 56.93,83.14 56.93,108.04 236.37,223.51 	"/>
	<polygon class="st0" points="56.93,52.63 318.87,221.2 318.87,196.3 63.61,32.03 56.93,32.03 	"/>
	<polygon class="st0" points="470.74,223.51 498.41,223.51 681.01,106 681.01,88.19 	"/>
	<polygon class="st0" points="275.36,318.74 225.66,318.74 56.93,427.32 56.93,459.3 	"/>
	<polygon class="st0" points="318.87,321.25 56.93,489.81 56.93,496.23 74.63,496.23 318.87,339.05 	"/>
	<polygon class="st0" points="415.91,223.51 423.34,223.51 681.01,57.69 681.01,32.03 681.01,32.03 671.17,32.03 415.91,196.3 	"/>
	<polygon class="st2" points="423.03,318.74 681.01,484.76 681.01,454.25 470.43,318.74 	"/>
	<polygon class="st2" points="318.87,221.2 56.93,52.63 56.93,83.14 275.05,223.51 318.87,223.51 	"/>
	<polygon class="st2" points="681.01,88.19 681.01,57.69 423.34,223.51 470.74,223.51 	"/>
	<polygon class="st2" points="275.36,318.74 56.93,459.3 56.93,489.81 318.87,321.25 318.87,318.74 	"/>
	<polygon class="st0" points="415.91,196.3 415.91,32.46 394.23,32.46 394.23,210.25 	"/>
	<polygon class="st0" points="344.21,32.46 318.87,32.46 318.87,196.3 344.21,212.61 	"/>
	<polygon class="st0" points="318.87,339.05 318.87,496.23 344.21,496.23 344.21,322.75 	"/>
	<polygon class="st0" points="394.23,325.1 394.23,496.23 415.91,496.23 415.91,339.05 	"/>
	<polygon class="st0" points="394.23,325.1 415.91,339.05 415.91,318.74 394.23,318.74 	"/>
	<polygon class="st0" points="344.21,223.51 344.21,212.61 318.87,196.3 318.87,221.2 322.46,223.51 	"/>
	<polygon class="st0" points="322.76,318.74 318.87,321.25 318.87,339.05 344.21,322.75 344.21,318.74 	"/>
	<polygon class="st0" points="394.23,223.51 415.91,223.51 415.91,196.3 394.23,210.25 	"/>
	<polygon class="st0" points="322.46,223.51 318.87,221.2 318.87,223.51 	"/>
	<polygon class="st0" points="318.87,318.74 318.87,321.25 322.76,318.74 	"/>
	<polygon class="st0" points="463.14,246.21 681.01,246.21 681.01,223.51 498.41,223.51 	"/>
	<polygon class="st0" points="509.12,318.74 681.01,318.74 681.01,296.23 474.15,296.23 	"/>
	<polygon class="st0" points="260.62,296.23 56.93,296.23 56.93,318.74 225.66,318.74 	"/>
	<polygon class="st0" points="236.37,223.51 56.93,223.51 56.93,246.21 271.64,246.21 	"/>
	<polygon class="st0" points="275.05,223.51 236.37,223.51 271.64,246.21 310.33,246.21 	"/>
	<polygon class="st0" points="470.43,318.74 509.12,318.74 474.15,296.23 435.47,296.23 	"/>
	<polygon class="st0" points="415.91,318.74 423.03,318.74 415.91,314.16 	"/>
	<polygon class="st0" points="423.34,223.51 415.91,223.51 415.91,228.29 	"/>
	<polygon class="st0" points="463.14,246.21 498.41,223.51 470.74,223.51 435.47,246.21 	"/>
	<polygon class="st0" points="260.62,296.23 225.66,318.74 275.36,318.74 310.33,296.23 	"/>
	<polygon class="st0" points="318.87,246.21 318.87,223.51 275.05,223.51 310.33,246.21 	"/>
	<polygon class="st0" points="435.47,296.23 415.91,296.23 415.91,314.16 423.03,318.74 470.43,318.74 	"/>
	<polygon class="st0" points="415.91,246.21 435.47,246.21 470.74,223.51 423.34,223.51 415.91,228.29 	"/>
	<polygon class="st0" points="318.87,296.23 310.33,296.23 275.36,318.74 318.87,318.74 	"/>
	<polygon class="st0" points="394.23,300.2 394.23,318.74 415.91,318.74 415.91,314.16 	"/>
	<polygon class="st0" points="344.21,223.51 322.46,223.51 344.21,237.51 	"/>
	<polygon class="st0" points="394.23,242.24 415.91,228.29 415.91,223.51 394.23,223.51 	"/>
	<polygon class="st0" points="344.21,318.74 344.21,304.94 322.76,318.74 	"/>
	<polygon class="st0" points="394.23,300.2 415.91,314.16 415.91,296.23 394.23,296.23 	"/>
	<polygon class="st0" points="344.21,242.45 344.21,237.51 322.46,223.51 318.87,223.51 318.87,246.21 338.36,246.21 	"/>
	<polygon class="st0" points="344.21,242.45 338.36,246.21 344.21,246.21 	"/>
	<polygon class="st0" points="318.87,296.23 318.87,318.74 322.76,318.74 344.21,304.94 344.21,296.23 	"/>
	<polygon class="st0" points="396.42,246.21 415.91,246.21 415.91,228.29 394.23,242.24 394.23,244.8 	"/>
	<polygon class="st0" points="396.42,246.21 394.23,244.8 394.23,246.21 	"/>
	<polygon class="st2" points="384.34,318.74 350.43,318.74 344.21,322.75 344.21,496.23 394.23,496.23 394.23,325.1 	"/>
	<polygon class="st2" points="361.14,223.51 373.63,223.51 394.23,210.25 394.23,32.46 344.21,32.46 344.21,212.61 	"/>
	<polygon class="st2" points="344.21,212.61 344.21,223.51 361.14,223.51 	"/>
	<polygon class="st2" points="384.34,318.74 394.23,325.1 394.23,318.74 	"/>
	<polygon class="st2" points="394.23,210.25 373.63,223.51 394.23,223.51 	"/>
	<polygon class="st2" points="344.21,322.75 350.43,318.74 344.21,318.74 	"/>
	<polygon class="st2" points="350.43,318.74 384.34,318.74 367.39,307.83 	"/>
	<polygon class="st2" points="373.63,223.51 361.14,223.51 367.39,227.53 	"/>
	<polygon class="st2" points="348.05,239.98 367.39,227.53 361.14,223.51 344.21,223.51 344.21,237.51 	"/>
	<polygon class="st2" points="394.23,300.2 388.06,296.23 385.4,296.23 367.39,307.83 384.34,318.74 394.23,318.74 	"/>
	<polygon class="st2" points="392.24,243.52 394.23,242.24 394.23,223.51 373.63,223.51 367.39,227.53 	"/>
	<polygon class="st2" points="353.55,298.92 344.21,304.94 344.21,318.74 350.43,318.74 367.39,307.83 	"/>
	<polygon class="st2" points="353.55,298.92 367.39,307.83 385.4,296.23 357.73,296.23 	"/>
	<polygon class="st2" points="388.06,246.21 392.24,243.52 367.39,227.53 348.05,239.98 357.73,246.21 	"/>
	<polygon class="st2" points="388.06,296.23 394.23,300.2 394.23,296.23 	"/>
	<polygon class="st2" points="344.21,237.51 344.21,242.45 348.05,239.98 	"/>
	<polygon class="st2" points="357.73,246.21 348.05,239.98 344.21,242.45 344.21,246.21 	"/>
	<polygon class="st2" points="394.23,244.8 394.23,242.24 392.24,243.52 	"/>
	<polygon class="st2" points="344.21,296.23 344.21,304.94 353.55,298.92 349.38,296.23 	"/>
	<polygon class="st2" points="394.23,246.21 394.23,244.8 392.24,243.52 388.06,246.21 	"/>
	<polygon class="st2" points="349.38,296.23 353.55,298.92 357.73,296.23 	"/>
	<polygon class="st2" points="429.78,267.68 474.15,296.23 681.01,296.23 681.01,246.21 463.14,246.21 	"/>
	<polygon class="st2" points="305,267.68 271.64,246.21 56.93,246.21 56.93,296.23 260.62,296.23 	"/>
	<polygon class="st2" points="415.91,283.65 435.47,296.23 474.15,296.23 429.78,267.68 415.91,276.6 	"/>
	<polygon class="st2" points="318.87,251.71 310.33,246.21 271.64,246.21 305,267.68 318.87,258.75 	"/>
	<polygon class="st2" points="415.94,258.77 429.78,267.68 463.14,246.21 435.47,246.21 	"/>
	<polygon class="st2" points="318.87,290.74 318.87,276.6 305,267.68 260.62,296.23 310.33,296.23 	"/>
	<polygon class="st2" points="415.91,258.79 415.91,276.6 429.78,267.68 415.94,258.77 	"/>
	<polygon class="st2" points="318.87,258.75 305,267.68 318.87,276.6 	"/>
	<polygon class="st2" points="310.33,246.21 318.87,251.71 318.87,246.21 	"/>
	<polygon class="st2" points="415.91,296.23 435.47,296.23 415.91,283.65 	"/>
	<polygon class="st2" points="310.33,296.23 318.87,296.23 318.87,290.74 	"/>
	<polygon class="st2" points="415.94,258.77 435.47,246.21 415.91,246.21 415.91,258.75 	"/>
	<polygon class="st2" points="415.91,258.79 415.94,258.77 415.91,258.75 	"/>
	<polygon class="st2" points="415.91,283.65 415.91,276.6 410.43,280.13 	"/>
	<polygon class="st2" points="318.87,251.71 318.87,258.75 324.34,255.23 	"/>
	<polygon class="st2" points="318.87,276.6 318.87,290.74 329.85,283.67 	"/>
	<polygon class="st2" points="410.43,280.13 415.91,276.6 415.91,258.79 396.6,271.22 	"/>
	<polygon class="st2" points="344.21,274.43 344.21,268.01 324.34,255.23 318.87,258.75 318.87,276.6 329.85,283.67 	"/>
	<polygon class="st2" points="410.43,280.13 394.23,290.55 394.23,296.23 415.91,296.23 415.91,283.65 	"/>
	<polygon class="st2" points="338.36,246.21 318.87,246.21 318.87,251.71 324.34,255.23 	"/>
	<polygon class="st2" points="394.23,272.75 394.23,290.55 410.43,280.13 396.6,271.22 	"/>
	<polygon class="st2" points="338.36,246.21 324.34,255.23 344.21,268.01 344.21,246.21 	"/>
	<polygon class="st2" points="415.91,258.75 415.91,246.21 396.42,246.21 	"/>
	<polygon class="st2" points="344.21,292.91 329.85,283.67 318.87,290.74 318.87,296.23 344.21,296.23 	"/>
	<polygon class="st2" points="396.42,246.21 394.23,246.21 394.23,269.7 396.6,271.22 415.91,258.79 415.91,258.75 	"/>
	<polygon class="st2" points="329.85,283.67 344.21,292.91 344.21,274.43 	"/>
	<polygon class="st2" points="396.6,271.22 394.23,269.7 394.23,272.75 	"/>
	<polygon class="st2" points="385.4,296.23 388.06,296.23 386.73,295.38 	"/>
	<polygon class="st2" points="372.9,286.48 357.73,296.23 385.4,296.23 386.73,295.38 	"/>
	<polygon class="st2" points="344.21,268.01 344.21,274.43 349.2,271.22 	"/>
	<polygon class="st2" points="357.73,246.21 372.9,255.97 388.06,246.21 	"/>
	<polygon class="st2" points="394.23,290.55 386.73,295.38 388.06,296.23 394.23,296.23 	"/>
	<polygon class="st2" points="372.9,255.97 357.73,246.21 344.21,246.21 344.21,268.01 349.2,271.22 	"/>
	<polygon class="st2" points="372.9,286.48 386.73,295.38 394.23,290.55 394.23,272.75 	"/>
	<polygon class="st2" points="344.21,296.23 349.38,296.23 344.21,292.91 	"/>
	<polygon class="st2" points="344.21,274.43 344.21,292.91 349.38,296.23 357.73,296.23 372.9,286.48 349.2,271.22 	"/>
	<polygon class="st2" points="372.9,255.97 394.23,269.7 394.23,246.21 388.06,246.21 	"/>
	<polygon class="st2" points="394.23,269.7 372.9,255.97 349.2,271.22 372.9,286.48 394.23,272.75 	"/>
</g>
</svg>
